<?xml version="1.0" encoding="utf-8"?>
<!-- Generator: Adobe Illustrator 20.1.0, SVG Export Plug-In . SVG Version: 6.00 Build 0)  -->
<svg version="1.1" id="Слой_1" xmlns="http://www.w3.org/2000/svg" xmlns:xlink="http://www.w3.org/1999/xlink" x="0px" y="0px"
	 width="45px" height="51px" viewBox="0 0 45 51" style="enable-background:new 0 0 45 51;" xml:space="preserve">
<g>
	<g transform="translate(-1062 -3031)">
		<g>
			<g>
				<g>
					<g>
						<path id="_x39_ls2d" d="M1084.5,3078.8c-2.2-1.1-4.4-2.1-6.7-3c-6-2.7-12.4-9.4-13.4-17.2l4.6,2.6l-0.2,1.3v0.3l0,0.1
							c0,0,0,0.1,0,0.1l0,0.1l0,0v0c1.8,3.9,4.3,6.7,7.5,8.3c1.3,0.6,2.9,0.6,4.1-0.2c1.2-0.8,2-2.1,2-3.5v-12.3h3.8v12.3
							c0,2.3,1.9,4.2,4.2,4.2c0.6,0,1.3-0.2,1.8-0.4c3.3-1.6,5.8-4.4,7.6-8.4l0-0.1c0-0.1,0.1-0.2,0.1-0.3v-0.1v0l-0.2-2.2l4.7-2
							c-0.9,7.9-7.3,14.8-13.4,17.5C1089.1,3076.6,1086,3077.9,1084.5,3078.8L1084.5,3078.8z M1076,3053.1c-0.3,0-0.6,0.1-0.8,0.3
							c-0.3,0.3-0.7,0.4-1.1,0.4c-0.8,0-1.5-0.7-1.5-1.5c0-0.8,0.7-1.5,1.5-1.5c0.4,0,0.8,0.2,1.1,0.4c0.2,0.2,0.5,0.3,0.8,0.3h16.8
							c0.3,0,0.6-0.1,0.8-0.3c0.3-0.3,0.7-0.4,1.1-0.4c0.8,0,1.5,0.7,1.5,1.5c0,0.8-0.7,1.5-1.5,1.5c-0.4,0-0.8-0.2-1.1-0.4
							c-0.2-0.2-0.5-0.3-0.8-0.3H1076z M1105.3,3055.5l-7.1,3.1c-0.5,0.2-0.7,0.6-0.7,1.1l0.2,2.7c-1.5,3.4-3.6,5.6-6.3,7
							c-0.6,0.3-1.3,0.3-1.9-0.1c-0.6-0.3-0.9-0.9-0.9-1.6v-12.3h3.8c1.7,1.3,4.1,0.9,5.3-0.8c1.3-1.7,0.9-4.1-0.8-5.3
							c-1.4-1-3.2-1-4.6,0h-16c-1.7-1.3-4.1-0.9-5.3,0.8c-1.3,1.7-0.9,4.1,0.8,5.3c1.4,1,3.2,1,4.6,0h3.8v12.3
							c0,0.7-0.3,1.2-0.9,1.6c-0.6,0.4-1.3,0.4-1.9,0.1c-2.7-1.3-4.8-3.6-6.3-6.9l0.2-1.7c0.1-0.4-0.2-0.9-0.6-1.1l-7.1-4.1
							c-0.5-0.3-1.2-0.1-1.6,0.4c-0.1,0.2-0.2,0.4-0.2,0.6c0,9.7,7.5,18.1,14.9,21.4c5.1,2.1,6.5,2.9,6.7,3.1
							c0.2,0.3,0.4,0.4,0.8,0.4h0.1c0.3,0,0.5-0.2,0.7-0.4c0.2-0.1,1.4-0.9,6.8-3.1c7.4-3.3,14.9-11.7,14.9-21.4
							c0-0.6-0.5-1.1-1.1-1.1C1105.6,3055.4,1105.5,3055.4,1105.3,3055.5L1105.3,3055.5z"/>
					</g>
				</g>
			</g>
		</g>
		<g>
			<g>
				<g>
					<g>
						<path id="_x39_ls2f" d="M1080.9,3046.9c0.6,0.3,1.2,0.1,1.5-0.5s0.1-1.2-0.5-1.5c-2.8-1.4-4-4.8-2.6-7.7
							c1.4-2.8,4.8-4,7.7-2.6c2.8,1.4,4,4.8,2.6,7.7c-0.6,1.1-1.5,2-2.6,2.6c-0.6,0.3-0.8,1-0.5,1.5s1,0.8,1.5,0.5
							c4-2,5.6-6.8,3.6-10.7c-2-4-6.8-5.6-10.7-3.6c-2.7,1.4-4.5,4.1-4.4,7.2C1076.5,3042.8,1078.2,3045.6,1080.9,3046.9"/>
					</g>
				</g>
			</g>
		</g>
		<g>
			<g>
				<path id="_x39_ls2g" d="M1082.6,3039.8c0-1.1,0.9-1.9,1.9-1.9s1.9,0.9,1.9,1.9c0,1-0.9,1.9-1.9,1.9S1082.6,3040.8,1082.6,3039.8
					L1082.6,3039.8z M1084.5,3035.6c-2.3-0.2-4.3,1.6-4.5,3.9s1.6,4.3,3.9,4.5c0.2,0,0.4,0,0.6,0c2.3-0.2,4.1-2.2,3.9-4.5
					C1088.2,3037.4,1086.5,3035.7,1084.5,3035.6L1084.5,3035.6z"/>
			</g>
		</g>
	</g>
</g>
</svg>
