<?xml version="1.0" encoding="utf-8"?>
<!-- Generator: Adobe Illustrator 20.1.0, SVG Export Plug-In . SVG Version: 6.00 Build 0)  -->
<svg version="1.1" id="Слой_1" xmlns="http://www.w3.org/2000/svg" xmlns:xlink="http://www.w3.org/1999/xlink" x="0px" y="0px"
	 width="29.6px" height="29.3px" viewBox="0 0 29.6 29.3" style="enable-background:new 0 0 29.6 29.3;" xml:space="preserve">
<g>
	<g transform="translate(-40 -171)">
		<g>
			<g>
				<g>
					<g>
						<path id="_x37_72sd" d="M62.3,198.9c-1.5-0.6-5.9-3-5.9-5.6v-5.5c1.4-0.3,2.6-1.4,2.8-2.8h6.1c0.3,1.4,1.4,2.5,2.8,2.8v5.5
							C68.2,195.8,64.2,198.1,62.3,198.9L62.3,198.9z M68.9,186.5c-1.2,0-2.2-1-2.2-2.2c0,0,0,0,0,0c0-0.4-0.3-0.7-0.7-0.7h-7.3
							c-0.4,0-0.7,0.3-0.7,0.7c0,1.2-1,2.2-2.2,2.2c-0.4,0-0.7,0.3-0.7,0.7v6.1c0,1.8,1.2,3.4,3.6,5.1c1.4,1,3.3,1.9,3.7,1.9
							c0.1,0,0.2,0,0.3-0.1c0.3-0.1,7-2.9,7-6.9v-6.1C69.6,186.8,69.3,186.5,68.9,186.5z"/>
					</g>
				</g>
			</g>
		</g>
		<g>
			<g>
				<path id="_x37_72se" d="M62.7,196.2c-0.6-0.3-1.1-0.6-1.6-1c-1.1-0.8-1.4-1.4-1.4-1.5V190c0-0.4-0.3-0.6-0.6-0.6c0,0,0,0,0,0
					c-0.4,0-0.6,0.3-0.6,0.6c0,0,0,0,0,0v3.8c0,0.5,0.5,1.4,2,2.4c0.5,0.4,1.1,0.7,1.7,1.1c0.1,0.1,0.2,0.1,0.3,0.1
					c0.2,0,0.4-0.1,0.6-0.3C63.2,196.7,63.1,196.4,62.7,196.2"/>
			</g>
		</g>
		<g>
			<g>
				<path id="_x37_72sf" d="M53.1,185.4h-1.7l-0.8-1.5c-0.2-0.3-0.6-0.5-0.9-0.3c0,0,0,0-0.1,0c-0.3,0.2-0.5,0.7-0.2,1.1l1.1,1.9
					c0.1,0.2,0.4,0.4,0.6,0.4h2.1c0.4,0,0.7-0.4,0.7-0.8C53.9,185.8,53.5,185.4,53.1,185.4"/>
			</g>
		</g>
		<g>
			<g>
				<g>
					<g>
						<path id="_x37_72sh" d="M45.2,193c0,0.2-0.2,0.4-0.3,0.4h-3.2c-0.2,0-0.4-0.2-0.4-0.3c0,0,0,0,0,0v-2.3h3.9L45.2,193z
							 M46.1,185.5h-4.8v-2h2.8C45.3,183.5,46.1,184.4,46.1,185.5L46.1,185.5z M46.9,172.3h12.7L62,179H44.5L46.9,172.3z
							 M41.3,189.4v-2.5h5.5c0.4,0,0.7-0.3,0.7-0.7v-0.7c0-1.8-1.5-3.3-3.3-3.3c0,0,0,0,0,0h-2.8c0.2-1.1,1.1-1.9,2.2-1.9H63
							c0.9,0,1.8,0.6,2.1,1.5c0.1,0.3,0.5,0.5,0.8,0.4c0.3-0.1,0.5-0.5,0.4-0.8c-0.4-1.1-1.3-2-2.5-2.3c0.2-0.6,0.7-1.4,1.8-1.4
							c0.4,0,0.7-0.3,0.7-0.7c0-0.4-0.3-0.7-0.7-0.7c-1,0-2,0.5-2.6,1.4l-2.3-6.3c-0.1-0.3-0.3-0.4-0.6-0.4H46.4
							c-0.3,0-0.5,0.2-0.6,0.4l-2.3,6.3c-0.5-0.9-1.5-1.4-2.6-1.4c-0.4,0-0.7,0.3-0.7,0.7c0,0.4,0.3,0.7,0.7,0.7
							c1,0,1.5,0.8,1.8,1.4c-1.6,0.4-2.7,1.8-2.7,3.5V193c0,0.9,0.8,1.7,1.7,1.7h3.2c0.9,0,1.7-0.8,1.7-1.7v-2.3h6.3
							c0.4,0,0.7-0.3,0.7-0.7c0-0.4-0.3-0.7-0.7-0.7L41.3,189.4z"/>
					</g>
				</g>
			</g>
		</g>
	</g>
</g>
</svg>
