<?xml version="1.0" encoding="utf-8"?>
<!-- Generator: Adobe Illustrator 20.1.0, SVG Export Plug-In . SVG Version: 6.00 Build 0)  -->
<svg version="1.1" id="Слой_1" xmlns="http://www.w3.org/2000/svg" xmlns:xlink="http://www.w3.org/1999/xlink" x="0px" y="0px"
	 width="38.4px" height="29.8px" viewBox="0 0 38.4 29.8" style="enable-background:new 0 0 38.4 29.8;" xml:space="preserve">
<g>
	<g transform="translate(-241 -171)">
		<g>
			<g>
				<path id="_x36_h6ib" d="M267.3,194.1c0-2,1.1-3.8,2.7-4.7l2.3,4.9c0.1,0.3,0.5,0.4,0.7,0.3s0.4-0.5,0.3-0.7l-2.3-5
					c2.9-1,6,0.5,7,3.4s-0.5,6-3.4,7c-2.9,1-6-0.5-7-3.4C267.4,195.3,267.3,194.7,267.3,194.1L267.3,194.1z M254.9,193.6l1.9-4.1
					c1.5,0.9,2.5,2.4,2.7,4.1H254.9z M248.5,194.1c0-3,2.5-5.5,5.5-5.5c0.6,0,1.2,0.1,1.8,0.3l-2.3,5c-0.1,0.3,0,0.6,0.3,0.7
					c0.1,0,0.2,0.1,0.2,0.1h5.5c-0.4,3-3.2,5.1-6.2,4.7C250.6,199,248.6,196.8,248.5,194.1L248.5,194.1z M270.6,187.9l-1.1-2.5
					l1.2-1.8c0.2-0.3,0.1-0.6-0.1-0.8c0,0,0,0,0,0l-3.4-2c-0.3-0.2-0.6-0.1-0.8,0.2c-0.2,0.3-0.1,0.6,0.2,0.8l0,0l2.9,1.7l-0.9,1.3
					h-9.9v-0.9h1.5c0.3,0,0.6-0.2,0.6-0.6c0-0.3-0.2-0.6-0.6-0.6c0,0,0,0,0,0h-4c-0.3,0-0.6,0.2-0.6,0.6c0,0.3,0.2,0.6,0.6,0.6
					c0,0,0,0,0,0h1.5v1.3l-1.2,2.6c-3.4-1.2-7.2,0.5-8.5,4c-1.2,3.4,0.5,7.2,4,8.5c3.4,1.2,7.2-0.5,8.5-4c0.2-0.5,0.3-1.1,0.4-1.7
					h2.8c0.2,0,0.4-0.1,0.5-0.3l3.6-6.7c0.1-0.3,0-0.6-0.2-0.8c-0.3-0.1-0.6,0-0.8,0.2l-3.4,6.4h-2.4c-0.2-2.2-1.4-4.1-3.3-5.2
					l1.1-2.4h10l1.1,2.4c-3.2,1.8-4.3,5.8-2.5,9c1.8,3.2,5.8,4.3,9,2.5s4.3-5.8,2.5-9C277,188.1,273.6,186.8,270.6,187.9
					L270.6,187.9z"/>
			</g>
		</g>
		<g>
			<g>
				<g>
					<g>
						<path id="_x36_h6id" d="M274.5,172.2h-8.9c-0.3,0-0.6-0.3-0.6-0.6s0.3-0.6,0.6-0.6h8.9c0.3,0,0.6,0.3,0.6,0.6
							S274.8,172.2,274.5,172.2"/>
					</g>
				</g>
			</g>
		</g>
		<g>
			<g>
				<path id="_x36_h6ie" d="M274.5,175.5h-5.8c-0.3,0-0.6-0.3-0.6-0.6s0.3-0.6,0.6-0.6h5.8c0.3,0,0.6,0.3,0.6,0.6
					S274.8,175.5,274.5,175.5"/>
			</g>
		</g>
		<g>
			<g>
				<path id="_x36_h6if" d="M274.5,178.8h-2.6c-0.3,0-0.6-0.3-0.6-0.6s0.3-0.6,0.6-0.6l0,0h2.6c0.3,0,0.6,0.3,0.6,0.6
					S274.8,178.8,274.5,178.8L274.5,178.8"/>
			</g>
		</g>
		<g>
			<g>
				<path id="_x36_h6ig" d="M247.6,185c-1.4-0.6-5.3-2.7-5.3-5.1v-5.1c1.3-0.3,2.3-1.3,2.6-2.6h5.5c0.3,1.3,1.3,2.3,2.6,2.6v5.1
					C252.9,182.1,249.2,184.2,247.6,185L247.6,185z M253.5,173.6c-1.1,0-2-0.9-2-2c0-0.3-0.3-0.6-0.6-0.6c0,0,0,0,0,0h-6.6
					c-0.3,0-0.6,0.3-0.6,0.6c0,1.1-0.9,2-2,2c0,0,0,0,0,0c-0.3,0-0.6,0.3-0.6,0.6c0,0,0,0,0,0v5.6c0,1.6,1.1,3.2,3.2,4.7
					c1.3,0.9,3,1.8,3.3,1.8c0.1,0,0.2,0,0.2-0.1c0.3-0.1,6.3-2.7,6.3-6.4v-5.6C254.1,173.9,253.8,173.6,253.5,173.6L253.5,173.6
					L253.5,173.6z"/>
			</g>
		</g>
		<g>
			<g>
				<path id="_x36_h6ih" d="M247.8,182.1c-0.6-0.3-1.1-0.6-1.5-0.9c-1.1-0.8-1.3-1.3-1.4-1.4v-3.6c0-0.3-0.3-0.6-0.6-0.6
					s-0.6,0.3-0.6,0.6v3.6c0,0.5,0.5,1.3,1.9,2.3c0.5,0.4,1,0.7,1.6,1c0.3,0.2,0.7,0.1,0.8-0.2c0,0,0,0,0,0
					C248.3,182.6,248.1,182.2,247.8,182.1C247.8,182.1,247.8,182.1,247.8,182.1"/>
			</g>
		</g>
	</g>
</g>
</svg>
