<?xml version="1.0" encoding="utf-8"?>
<!-- Generator: Adobe Illustrator 20.1.0, SVG Export Plug-In . SVG Version: 6.00 Build 0)  -->
<svg version="1.1" id="Слой_1" xmlns="http://www.w3.org/2000/svg" xmlns:xlink="http://www.w3.org/1999/xlink" x="0px" y="0px"
	 width="30.5px" height="29.8px" viewBox="0 0 30.5 29.8" style="enable-background:new 0 0 30.5 29.8;" xml:space="preserve">
<g>
	<g transform="translate(-722 -231)">
		<g>
			<g>
				<g>
					<g>
						<path id="yw3ad" d="M736.6,254.6h-3c-0.6,0-1.1-0.3-1.3-0.9c-0.2-0.5-0.2-1.2,0.4-1.7c0.9-0.8,2-0.8,2-0.8
							c0.6,0.1,1.3,0.1,2,0.1V254.6z M737.4,232.2c-0.3,0.1-0.5,0.4-0.4,0.7c0,0,0,0,0,0c0.1,0.3,0.4,0.5,0.8,0.4
							c0.1,0,8.7-2.3,12.3,2.2c1,1.3,1.4,3,1.1,4.6c-0.3,2.9-1.9,5.5-4.2,7.1c-0.7,0.5-1.5,0.9-2.2,1.2l-0.4,0.2
							c-1.6,0.7-3.2,1.5-6.5,1.5v-3.3c5.3-0.3,9.4-4.6,9.5-9.9c0-0.3-0.3-0.6-0.6-0.6h-9.2c-0.3,0-0.6,0.2-0.6,0.6c0,0,0,0,0,0v0
							c0,0.3,0.3,0.6,0.6,0.6h8.6c-0.4,4.6-4.2,8.1-8.8,8.1c-1,0-1.9-0.1-2.8-0.4c-0.2-0.1-0.4,0-0.6,0.1l0,0.1
							c-0.2,0.2-0.3,0.6-0.1,0.8c0.1,0.1,0.1,0.1,0.2,0.2c0.8,0.3,1.7,0.4,2.6,0.5v3.3c-0.6,0-1.2-0.1-1.9-0.1
							c-1.1,0-2.1,0.4-2.9,1.1c-0.9,0.8-1.2,2-0.7,3.1c0.4,1,1.4,1.7,2.5,1.7h2.9v3.8h-3.8c-0.3,0-0.6,0.2-0.7,0.6
							c0,0.4,0.3,0.6,0.6,0.6h8.9c0.3,0,0.6-0.2,0.7-0.6c0-0.3-0.2-0.6-0.6-0.6c0,0,0,0,0,0h-3.9v-3.8h1.9c0,0,4.2,0.3,5.1,3.2
							c0.1,0.3,0.4,0.5,0.8,0.4c0.3-0.1,0.5-0.4,0.4-0.7c0,0,0,0,0,0c-1.2-3.8-6-4.1-6.3-4.1h-1.9v-3.2c3.6,0,5.4-0.8,7-1.6l0.4-0.2
							c0.7-0.3,1.5-0.7,2.4-1.3c2.7-1.9,4.4-4.8,4.7-8c0.3-1.9-0.2-3.9-1.4-5.5C747,229.7,737.8,232.1,737.4,232.2L737.4,232.2z"/>
					</g>
				</g>
			</g>
		</g>
		<g>
			<g>
				<g>
					<g>
						<path id="yw3af" d="M728.4,244.8c-1.3-0.6-5.2-2.7-5.2-5.1v-5c1.3-0.3,2.3-1.2,2.5-2.5h5.4c0.2,1.3,1.2,2.3,2.5,2.5v5
							C733.6,242,730,244.1,728.4,244.8L728.4,244.8z M734.2,233.6c-1.1,0-2-0.9-2-2c0,0,0,0,0,0c0-0.3-0.3-0.6-0.6-0.6h-6.5
							c-0.3,0-0.6,0.3-0.6,0.6c0,1.1-0.9,2-2,2c-0.3,0-0.6,0.3-0.6,0.6v5.5c0,1.6,1.1,3.1,3.2,4.6c1.3,0.9,3,1.7,3.2,1.7
							c0.1,0,0.2,0,0.2,0c0.2-0.1,6.2-2.6,6.2-6.3v-5.5C734.8,233.8,734.5,233.6,734.2,233.6L734.2,233.6z"/>
					</g>
				</g>
			</g>
		</g>
		<g>
			<g>
				<path id="yw3ag" d="M728.7,242c-0.6-0.3-1.1-0.6-1.6-0.9c-1.1-0.8-1.4-1.3-1.5-1.4v-3.6c0-0.3-0.3-0.6-0.7-0.6
					c-0.4,0-0.7,0.3-0.7,0.6v3.6c0,0.5,0.5,1.3,2,2.3c0.5,0.4,1.1,0.7,1.8,1c0.3,0.2,0.7,0.1,0.9-0.2
					C729.1,242.6,729,242.2,728.7,242C728.7,242,728.7,242,728.7,242"/>
			</g>
		</g>
	</g>
</g>
</svg>
