<?xml version="1.0" encoding="utf-8"?>
<!-- Generator: Adobe Illustrator 20.1.0, SVG Export Plug-In . SVG Version: 6.00 Build 0)  -->
<svg version="1.1" id="Слой_1" xmlns="http://www.w3.org/2000/svg" xmlns:xlink="http://www.w3.org/1999/xlink" x="0px" y="0px"
	 width="67.6px" height="40.8px" viewBox="0 0 67.6 40.8" style="enable-background:new 0 0 67.6 40.8;" xml:space="preserve">
<g>
	<g transform="translate(-990 -1762)">
		<g>
			<g>
				<path id="j1r2a" d="M1015.6,1795.9c0-0.8,0.6-1.4,1.4-1.4c0.8,0,1.4,0.6,1.4,1.4c0,0,0,0,0,0c0,0.8-0.6,1.4-1.4,1.4
					C1016.3,1797.2,1015.6,1796.6,1015.6,1795.9z M1014,1795.9c0,1.7,1.3,3,3,3s3-1.3,3-3s-1.3-3-3-3S1014,1794.2,1014,1795.9z"/>
			</g>
		</g>
		<g>
			<g>
				<path id="j1r2b" d="M1042.6,1795.9c0-0.8,0.6-1.4,1.4-1.4c0.8,0,1.4,0.6,1.4,1.4c0,0,0,0,0,0c0,0.8-0.6,1.4-1.4,1.4
					C1043.3,1797.2,1042.6,1796.6,1042.6,1795.9z M1041,1795.9c0,1.7,1.3,3,3,3s3-1.3,3-3s-1.3-3-3-3S1041,1794.2,1041,1795.9z"/>
			</g>
		</g>
		<g>
			<g>
				<path id="j1r2c" d="M999.6,1795.9c0-0.8,0.6-1.4,1.4-1.4c0.8,0,1.4,0.6,1.4,1.4c0,0,0,0,0,0c0,0.8-0.6,1.4-1.4,1.4
					C1000.3,1797.2,999.6,1796.6,999.6,1795.9z M998,1795.9c0,1.7,1.3,3,3,3s3-1.3,3-3s-1.3-3-3-3S998,1794.2,998,1795.9z"/>
			</g>
		</g>
		<g>
			<g>
				<g>
					<path id="j1r2d" d="M1055.9,1787.4h-2.3v1.6h2.3v6h-4.3c0-0.1,0-0.3-0.1-0.4l0-0.2c0-0.2-0.1-0.4-0.2-0.7
						c-0.1-0.2-0.1-0.4-0.2-0.6l-0.1-0.2l-0.2-0.4l-0.1-0.2l-0.2-0.3l-0.2-0.2l-0.2-0.3l-0.2-0.2c-0.6-0.7-1.3-1.2-2-1.6
						c-0.1-0.1-0.2-0.1-0.3-0.2l-0.3-0.1c-0.1,0-0.2-0.1-0.4-0.1l-0.3-0.1c-0.1,0-0.3-0.1-0.4-0.1l-0.2-0.1l-0.4-0.1l-0.2,0
						c-0.5,0-0.9,0-1.4,0l-0.2,0l-0.4,0.1l-0.3,0.1l-0.4,0.1l-0.3,0.1l-0.4,0.1l-0.3,0.1l-0.3,0.2l-0.2,0.1c-0.5,0.3-0.9,0.6-1.3,1
						l-0.2,0.2l-0.2,0.3c-0.1,0.1-0.1,0.1-0.2,0.2l-0.2,0.3l-0.2,0.2l-0.2,0.3l-0.1,0.2l-0.2,0.4l-0.1,0.2l-0.2,0.5c0,0,0,0.1,0,0.1
						c-0.1,0.2-0.1,0.4-0.2,0.7l0,0.2c0,0.1-0.1,0.3-0.1,0.4h-3.4v-26.7h10.1c0.4,0.3,0.8,1.1,1.2,1.8h-8.3c-0.4,0-0.8,0.4-0.8,0.8
						v11.2c0,0.4,0.4,0.8,0.8,0.8h14.2l4.5,3.3V1787.4z M1039.2,1795.8c0-3,2.4-5.4,5.4-5.4s5.4,2.4,5.4,5.4c0,0,0,0,0,0
						c0,3-2.4,5.4-5.4,5.4C1041.6,1801.3,1039.2,1798.8,1039.2,1795.8z M1046.5,1771.7c1.8,3.1,3.4,7.6,4.1,9.6h-12.5v-9.6H1046.5z
						 M1032.6,1785.8h-41v-22.2h41V1785.8z M1032.6,1795h-8.6c0-0.1,0-0.3-0.1-0.4l0-0.2c0-0.2-0.1-0.4-0.2-0.7l0-0.1
						c-0.1-0.2-0.1-0.3-0.2-0.5l-0.1-0.2c-0.1-0.1-0.1-0.3-0.2-0.4l-0.1-0.2l-0.2-0.3l-0.2-0.2l-0.2-0.3l-0.2-0.2l-0.2-0.3l-0.2-0.2
						c-0.4-0.4-0.9-0.7-1.3-1c-0.1-0.1-0.2-0.1-0.2-0.2c-0.1-0.1-0.2-0.1-0.3-0.2l-0.3-0.1c-0.1,0-0.2-0.1-0.4-0.1l-0.3-0.1
						l-0.4-0.1l-0.2-0.1l-0.5-0.1l-0.2,0c-0.5,0-0.9,0-1.4,0l-0.2,0l-0.5,0.1l-0.3,0.1l-0.4,0.1l-0.3,0.1l-0.4,0.1l-0.3,0.1
						c-0.6,0.3-1.2,0.6-1.7,1.1c-0.3,0.2-0.5,0.5-0.7,0.7l-0.2,0.2l-0.2,0.3l-0.2,0.2l-0.2,0.3l-0.1,0.2l-0.2,0.4l-0.1,0.2
						c-0.1,0.2-0.1,0.3-0.2,0.5l0,0.1c-0.1,0.2-0.1,0.4-0.2,0.7l0,0.2c0,0.1,0,0.3-0.1,0.4h-1.5c0-0.1,0-0.3-0.1-0.4l0-0.2
						c0-0.2-0.1-0.4-0.2-0.7l0-0.1c-0.1-0.2-0.1-0.4-0.2-0.5c0-0.1-0.1-0.1-0.1-0.2l-0.2-0.4l-0.1-0.2l-0.2-0.3l-0.2-0.2l-0.2-0.3
						l-0.2-0.2l-0.2-0.3l-0.2-0.2c-0.6-0.5-1.2-1-1.9-1.3l-0.3-0.1c-0.1,0-0.2-0.1-0.4-0.1l-0.3-0.1l-0.4-0.1l-0.2-0.1l-0.5-0.1
						l-0.2,0c-0.5,0-0.9,0-1.4,0l-0.2,0l-0.5,0.1l-0.3,0.1l-0.4,0.1l-0.3,0.1l-0.4,0.1l-0.3,0.1c-0.7,0.3-1.4,0.8-1.9,1.3l-0.2,0.2
						l-0.2,0.3l-0.2,0.2l-0.2,0.3l-0.2,0.2l-0.2,0.3l-0.1,0.2l-0.2,0.4l-0.1,0.2c-0.1,0.2-0.1,0.3-0.2,0.5l0,0.1
						c-0.1,0.2-0.1,0.4-0.2,0.7l0,0.2c0,0.1,0,0.3-0.1,0.4h-2.8v-7.6h41L1032.6,1795z M1011.5,1795.8c0-3,2.4-5.4,5.4-5.4
						c3,0,5.4,2.4,5.4,5.4c0,3-2.4,5.4-5.4,5.4C1014,1801.3,1011.6,1798.8,1011.5,1795.8L1011.5,1795.8z M996,1795.8
						c0-3,2.4-5.4,5.4-5.4c3,0,5.4,2.4,5.4,5.4c0,3-2.4,5.4-5.4,5.4C998.4,1801.3,996,1798.8,996,1795.8L996,1795.8z M1052.4,1781.6
						c-0.4-1.3-2.4-7.3-4.7-11.2l-0.5-0.8c-0.7-1.2-1.4-2.4-2.2-2.9c-0.1-0.1-0.3-0.1-0.4-0.1h-10.4v-3.9c0-0.4-0.4-0.8-0.8-0.8
						h-42.6c-0.4,0-0.8,0.4-0.8,0.8v33c0,0.4,0.4,0.8,0.8,0.8h3.6c0.5,3.9,4,6.6,7.9,6.1c3.2-0.4,5.7-2.9,6.1-6.1h1.5
						c0.5,3.9,4,6.6,7.9,6.1c3.2-0.4,5.7-2.9,6.1-6.1h13.7c0.5,3.9,4,6.6,7.9,6.1c3.2-0.4,5.7-2.9,6.1-6.1h5.1
						c0.4,0,0.8-0.3,0.8-0.8v-10c0-0.3-0.1-0.5-0.3-0.7L1052.4,1781.6z"/>
				</g>
			</g>
		</g>
	</g>
</g>
</svg>
