<?xml version="1.0" encoding="utf-8"?>
<!-- Generator: Adobe Illustrator 20.1.0, SVG Export Plug-In . SVG Version: 6.00 Build 0)  -->
<svg version="1.1" id="Слой_1" xmlns="http://www.w3.org/2000/svg" xmlns:xlink="http://www.w3.org/1999/xlink" x="0px" y="0px"
	 width="61.8px" height="32.8px" viewBox="0 0 61.8 32.8" style="enable-background:new 0 0 61.8 32.8;" xml:space="preserve">
<g>
	<g transform="translate(-550 -1770)">
		<g>
			<g>
				<path id="_x31_tpcb" d="M560.2,1795.8c0-1,0.8-1.8,1.8-1.8c1,0,1.8,0.8,1.8,1.8c0,0,0,0,0,0c0,1-0.8,1.8-1.8,1.8
					C561,1797.5,560.2,1796.7,560.2,1795.8z M559,1795.8c0,1.7,1.3,3,3,3s3-1.3,3-3s-1.3-3-3-3S559,1794.1,559,1795.8z"/>
			</g>
		</g>
		<g>
			<g>
				<path id="_x31_tpcc" d="M595.2,1795.8c0-1,0.8-1.8,1.8-1.8c1,0,1.8,0.8,1.8,1.8c0,0,0,0,0,0c0,1-0.8,1.8-1.8,1.8
					C596,1797.5,595.2,1796.7,595.2,1795.8z M594,1795.8c0,1.7,1.3,3,3,3s3-1.3,3-3s-1.3-3-3-3S594,1794.1,594,1795.8z"/>
			</g>
		</g>
		<g>
			<g>
				<path id="_x31_tpcd" d="M581.4,1784.8h-1.7c-0.4,0-0.7,0.2-0.7,0.5s0.3,0.5,0.7,0.5h1.7c0.4,0,0.7-0.2,0.7-0.5
					S581.7,1784.8,581.4,1784.8"/>
			</g>
		</g>
		<g>
			<g>
				<g>
					<g>
						<path id="_x31_tpcf" d="M576.9,1781.7v-6.8h6.2c1.8,0.4,4.5,2.8,7,5.2l0.2,0.2c0.8,0.7,0.9,1.1,0.8,1.2c0,0.1-0.4,0.3-1,0.3
							L576.9,1781.7z M610.5,1792.9H603c-1.1-2.3-3.4-3.8-6-3.8c-2.6,0-4.9,1.5-6,3.8h-14v-9.8h13.1c1.2,0,2-0.4,2.3-1.2
							c0.3-0.8-0.1-1.7-1.2-2.7l-0.2-0.2c-2.8-2.6-5.5-5.1-7.7-5.5c0,0-0.1,0-0.1,0h-14.6c-1.3,0-1.7,0.4-2.1,0.8
							c-0.5,0.6-2.4,2.9-4.5,5c-0.6,0.7-1.2,1.7-0.8,2.6c0.3,0.7,1.1,1.1,2.3,1.1h12.1v9.8h-7.5c-1.1-2.3-3.4-3.8-6-3.8
							c-2.6,0-4.9,1.5-6,3.8h-4.8v-10c0-0.3,0.2-0.5,0.5-0.5c0,0,0,0,0,0c0.4,0,4-0.3,5.5-1.5c2.1-1.6,6-6.1,7.5-7.9
							c0.6-0.8,1.6-1.6,3.7-1.6h14.8c5.8,0.8,13.2,10.9,13.3,11c0.1,0.2,0.3,0.3,0.5,0.3h8.2l0.3,0.1l0,0.1
							c-0.1,0.1-0.1,0.2-0.2,0.4l0,0l-0.1,0.4l0,0.1l-0.1,0.3l0,0.1c0,0.2,0,0.3,0,0.4c0,2.4,1.9,4.3,4.3,4.3c0.1,0,0.3,0,0.4,0
							l0.2,0l0.3,0V1792.9z M610.5,1795.2c0,0.3-0.2,0.5-0.5,0.5h-6.3c0-0.5-0.1-1-0.2-1.5h7V1795.2z M591.6,1795.9
							c0-3,2.4-5.5,5.4-5.5c3,0,5.4,2.5,5.4,5.5c0,3-2.4,5.5-5.4,5.5C593.9,1801.4,591.5,1798.9,591.6,1795.9z M575.6,1781.7h-12.1
							c-0.7,0-1-0.2-1.1-0.3c-0.1-0.2,0.1-0.6,0.5-1.1c1.8-1.9,3.8-4.2,4.5-5.1c0.2-0.2,0.3-0.3,1-0.3h7L575.6,1781.7z
							 M590.4,1794.2c-0.1,0.5-0.2,1-0.2,1.5h-21.4c0-0.5-0.1-1-0.2-1.5H590.4z M556.7,1795.9c0-3,2.4-5.5,5.4-5.5
							c3,0,5.4,2.5,5.4,5.5c0,0,0,0,0,0c0,3-2.4,5.5-5.4,5.5C559.1,1801.4,556.7,1798.9,556.7,1795.9z M551.3,1794.2h4.2
							c-0.1,0.5-0.2,1-0.2,1.5h-3.6c-0.3,0-0.5-0.2-0.5-0.5c0,0,0,0,0,0V1794.2z M606.7,1784l0.1-0.3l0-0.1c0-0.1,0.1-0.3,0.2-0.4
							c1.7,0.9,2.9,2.4,3.4,4.3l-0.1,0l-0.2,0.1l-0.1,0l-0.4,0c-1.6,0-2.9-1.4-2.9-3c0-0.1,0-0.3,0-0.4L606.7,1784L606.7,1784z
							 M611.8,1787.9c-0.1-2.1-1.9-5-4.8-6.2c-0.5-0.2-1-0.3-1.5-0.4h-8c-1.3-1.7-8.2-10.5-14-11.3l-0.1,0h-14.8
							c-2,0-3.5,0.7-4.7,2.1c-1.6,2-5.4,6.3-7.3,7.7c-1,0.8-3.8,1.2-4.8,1.3c-1,0-1.8,0.8-1.8,1.8v12.3c0,1,0.8,1.8,1.8,1.8h3.7
							c0.5,3.2,3.3,5.6,6.6,5.7c3.3,0,6.1-2.4,6.6-5.7h21.6c0.5,3.2,3.3,5.6,6.6,5.7c3.3,0,6.1-2.4,6.6-5.7h6.4c1,0,1.8-0.8,1.8-1.8
							v-7.1L611.8,1787.9L611.8,1787.9z"/>
					</g>
				</g>
			</g>
		</g>
	</g>
</g>
</svg>
