<svg xmlns="http://www.w3.org/2000/svg" viewBox="0 0 183.58 183.59"><title>Asset 11</title><g id="Layer_2" data-name="Layer 2"><g id="Layer_2-2" data-name="Layer 2"><path d="M176,104.79a14.88,14.88,0,0,0,0-26,1,1,0,0,0,0-.1c5.83-16.74,7.85-24.38,7.57-33.93-.4-13.61-4.63-24.46-12.51-32.19C163.27,4.65,152.43.43,138.82,0c-9.56-.29-17.2,1.73-33.94,7.56l-.09,0a14.87,14.87,0,0,0-26,0l-.1,0C62,1.76,54.3-.27,44.77,0c-13.61.4-24.46,4.62-32.19,12.5C4.65,20.31.43,31.16,0,44.77-.26,54.32,1.76,62,7.59,78.7a1,1,0,0,0,0,.1,14.88,14.88,0,0,0,0,26,.41.41,0,0,0,0,.09C1.76,121.62-.26,129.27,0,138.82c.4,13.61,4.62,24.45,12.5,32.19,7.78,7.92,18.63,12.15,32.24,12.55q.85,0,1.71,0c8.79,0,16.49-2.12,32.22-7.59l.1-.05a14.87,14.87,0,0,0,26,0l.09.05c15.74,5.47,23.43,7.59,32.23,7.59l1.71,0c13.61-.4,24.45-4.63,32.19-12.51,7.92-7.78,12.15-18.62,12.55-32.23.28-9.55-1.74-17.2-7.57-33.94Zm-99,61.77A76.61,76.61,0,0,1,17,106.69H49.17A45.39,45.39,0,0,0,76.9,134.41ZM76.9,17V49.17A45.43,45.43,0,0,0,49.17,76.9H17A76.61,76.61,0,0,1,76.9,17Zm5.45,111.73a3.53,3.53,0,0,0-1.95-.59h-.09a38.32,38.32,0,0,1-24.9-24.9s0-.06,0-.09a3.47,3.47,0,0,0-.6-2,38.31,38.31,0,0,1,0-18.87,3.47,3.47,0,0,0,.6-2s0-.06,0-.09a38.32,38.32,0,0,1,24.9-24.9h.09a3.49,3.49,0,0,0,2-.6,38.31,38.31,0,0,1,18.87,0,3.47,3.47,0,0,0,2,.6h.09a38.32,38.32,0,0,1,24.9,24.9s0,.06,0,.09a3.5,3.5,0,0,0,.59,1.95,38,38,0,0,1,0,18.88,3.54,3.54,0,0,0-.59,2s0,.06,0,.09a38.34,38.34,0,0,1-24.9,24.9h-.09a3.54,3.54,0,0,0-2,.59,38,38,0,0,1-18.88,0ZM106.69,17A76.61,76.61,0,0,1,166.56,76.9H134.41a45.35,45.35,0,0,0-27.72-27.72Zm0,149.53V134.41a45.35,45.35,0,0,0,27.72-27.72h32.15A76.61,76.61,0,0,1,106.69,166.56Zm62-66.87H136.24a44.25,44.25,0,0,0,0-15.79h32.45a7.9,7.9,0,0,1,0,15.79ZM138.61,7c11.74.35,21,3.87,27.49,10.51C172.7,24,176.21,33.24,176.56,45c.2,6.66-.82,12.3-4.69,24.1A83.82,83.82,0,0,0,114.5,11.72C126.3,7.84,131.93,6.83,138.61,7ZM91.79,7a7.91,7.91,0,0,1,7.9,7.89V47.34a44.87,44.87,0,0,0-15.79,0V14.89A7.9,7.9,0,0,1,91.79,7ZM7,45c.35-11.75,3.87-21,10.51-27.5C24,10.89,33.23,7.37,45,7c6.66-.19,12.3.83,24.1,4.7A83.81,83.81,0,0,0,11.72,69.08C7.84,57.28,6.83,51.64,7,45ZM14.89,83.9H47.34a44.87,44.87,0,0,0,0,15.79H14.89a7.9,7.9,0,0,1,0-15.79ZM45,176.56c-11.75-.34-21-3.86-27.5-10.5C10.89,159.59,7.37,150.35,7,138.61c-.19-6.66.82-12.3,4.7-24.11a83.82,83.82,0,0,0,57.36,57.37C57.28,175.74,51.65,176.75,45,176.56Zm46.81,0a7.9,7.9,0,0,1-7.89-7.9V136.24a44.25,44.25,0,0,0,15.79,0v32.45A7.91,7.91,0,0,1,91.79,176.59Zm84.77-38c-.35,11.74-3.86,21-10.5,27.5-6.47,6.59-15.71,10.11-27.45,10.45-6.66.19-12.3-.82-24.11-4.69a83.83,83.83,0,0,0,57.37-57.37C175.74,126.31,176.76,132,176.56,138.61Z"/></g></g></svg>