<?xml version="1.0" encoding="utf-8"?>
<!-- Generator: Adobe Illustrator 20.1.0, SVG Export Plug-In . SVG Version: 6.00 Build 0)  -->
<svg version="1.1" id="Слой_1" xmlns="http://www.w3.org/2000/svg" xmlns:xlink="http://www.w3.org/1999/xlink" x="0px" y="0px"
	 width="38.3px" height="29.2px" viewBox="0 0 38.3 29.2" style="enable-background:new 0 0 38.3 29.2;" xml:space="preserve">
<g>
	<g transform="translate(-1179 -171)">
		<g>
			<g>
				<g>
					<g>
						<path id="_x38_cfqc" d="M1210.7,191.9c-2.1,0-3.9,1.6-4.2,3.7h-14.3c-0.3-2.3-2.5-3.9-4.8-3.5c-1.8,0.3-3.3,1.7-3.5,3.5h-2
							c-1.1,0-1.9-0.9-1.9-1.9c0,0,0,0,0,0V193h1.9c0.3,0,0.5-0.2,0.5-0.5V190c0-0.3-0.2-0.5-0.5-0.5h-1.9c0.2-0.8,1-1.4,1.9-1.4
							h11.7v5.6c0,0.3,0.2,0.5,0.5,0.5h10.3c0.3,0,0.5-0.2,0.5-0.5v-1.2c0-0.3-0.2-0.5-0.5-0.5s-0.5,0.2-0.5,0.5v0.7h-9.3v-5.1h19.6
							c0.9,0,1.7,0.6,1.9,1.4h-3.1c-0.3,0-0.5,0.2-0.5,0.5c0,0.1,0.1,0.3,0.2,0.4l2.4,2.4c0.1,0.1,0.2,0.1,0.4,0.1h0.7v0.7
							c0,0.9-0.6,1.7-1.5,1.9C1214.5,193.5,1212.8,192,1210.7,191.9L1210.7,191.9z M1207.5,196.1c0-1.8,1.4-3.2,3.2-3.2
							s3.2,1.4,3.2,3.2c0,0,0,0,0,0c0,1.8-1.4,3.2-3.2,3.2C1208.9,199.3,1207.5,197.9,1207.5,196.1z M1184.9,196.1
							c0-1.8,1.4-3.2,3.2-3.2c1.7,0,3.2,1.4,3.2,3.2c0,1.8-1.4,3.2-3.2,3.2C1186.3,199.3,1184.9,197.9,1184.9,196.1z M1180,190.5
							h1.4v1.4h-1.4L1180,190.5z M1189.1,181.8c0.3-0.7,1-1.1,1.7-1.1h7.9c0.5,0,0.9,0.2,1.3,0.5l6.8,5.9h-20.4L1189.1,181.8z
							 M1216.3,191.9h-0.5l-1.4-1.4h1.9V191.9z M1208.4,187.1l-7.7-6.6c-0.5-0.5-1.2-0.7-1.9-0.7h-7.9c-1.1,0-2.1,0.6-2.7,1.6
							l-2.8,5.7h-3.4c-1.6,0-3,1.3-3,2.9v3.7c0,1.6,1.3,2.9,3,2.9h2c0.3,2.3,2.4,3.9,4.7,3.6c1.9-0.3,3.3-1.7,3.6-3.6h14.3
							c0.3,2.3,2.5,3.9,4.7,3.6c1.9-0.3,3.3-1.7,3.6-3.6c1.4-0.2,2.5-1.5,2.5-2.9V190c0-1.6-1.3-2.9-3-2.9H1208.4z"/>
					</g>
				</g>
			</g>
		</g>
		<g>
			<g>
				<path id="_x38_cfqd" d="M1187.4,196.1c0-0.4,0.3-0.7,0.7-0.7c0.4,0,0.7,0.3,0.7,0.7c0,0,0,0,0,0c0,0.4-0.3,0.7-0.7,0.7
					C1187.7,196.8,1187.4,196.5,1187.4,196.1z M1186.3,196.1c0,1,0.8,1.7,1.7,1.7s1.7-0.8,1.7-1.7s-0.8-1.7-1.7-1.7
					S1186.3,195.2,1186.3,196.1z"/>
			</g>
		</g>
		<g>
			<g>
				<path id="_x38_cfqe" d="M1209.9,196.1c0-0.4,0.3-0.7,0.7-0.7c0.4,0,0.7,0.3,0.7,0.7c0,0,0,0,0,0c0,0.4-0.3,0.7-0.7,0.7
					C1210.3,196.8,1210,196.5,1209.9,196.1z M1208.9,196.1c0,1,0.8,1.7,1.7,1.7s1.7-0.8,1.7-1.7s-0.8-1.7-1.7-1.7
					S1208.9,195.2,1208.9,196.1z"/>
			</g>
		</g>
		<g>
			<g>
				<path id="_x38_cfqf" d="M1210.7,183.6c-1.2-0.5-4.8-2.5-4.8-4.6v-4.6c1.2-0.2,2.1-1.1,2.3-2.3h5c0.2,1.2,1.1,2.1,2.3,2.3v4.6
					C1215.5,181,1212.2,182.9,1210.7,183.6L1210.7,183.6z M1216,173.4c-1,0-1.8-0.8-1.8-1.8c0-0.3-0.2-0.6-0.6-0.6h-6
					c-0.3,0-0.6,0.2-0.6,0.6c0,1-0.8,1.8-1.8,1.8c-0.3,0-0.6,0.2-0.6,0.6v5.1c0,1.4,1,2.9,2.9,4.2c1.2,0.8,2.7,1.6,3,1.6
					c0.1,0,0.2,0,0.2-0.1c0.2-0.1,5.7-2.4,5.7-5.8v-5.1C1216.6,173.6,1216.3,173.4,1216,173.4L1216,173.4z"/>
			</g>
		</g>
		<g>
			<g>
				<path id="_x38_cfqg" d="M1210.9,181c-0.5-0.3-1-0.6-1.4-0.9c-0.9-0.7-1.2-1.2-1.2-1.3v-3.2c0-0.3-0.2-0.6-0.6-0.6
					c-0.3,0-0.6,0.2-0.6,0.6v3.3c0,0.4,0.4,1.2,1.7,2.1c0.4,0.3,0.9,0.6,1.5,0.9c0.3,0.1,0.6,0.1,0.7-0.2c0,0,0,0,0,0
					C1211.3,181.5,1211.2,181.1,1210.9,181C1210.9,181,1210.9,181,1210.9,181"/>
			</g>
		</g>
	</g>
</g>
</svg>
