<?xml version="1.0" encoding="utf-8"?>
<!-- Generator: Adobe Illustrator 20.1.0, SVG Export Plug-In . SVG Version: 6.00 Build 0)  -->
<svg version="1.1" id="Слой_1" xmlns="http://www.w3.org/2000/svg" xmlns:xlink="http://www.w3.org/1999/xlink" x="0px" y="0px"
	 width="30.4px" height="30px" viewBox="0 0 30.4 30" style="enable-background:new 0 0 30.4 30;" xml:space="preserve">
<g>
	<g transform="translate(-935 -231)">
		<g>
			<g>
				<path id="cvypc" d="M942.4,235.7h4.2c0.4,0,0.7-0.3,0.7-0.7c0-0.4-0.3-0.7-0.7-0.7c0,0,0,0,0,0H942c-0.3,0-0.5,0.1-0.6,0.4
					c-0.6,1.1-1.6,2-2.7,2.6c-0.2,0.1-0.4,0.3-0.4,0.6v5.5c0,1,1.1,2.3,2.9,3.6c1,0.7,2,1.3,2.7,1.6c0.2,0.1,0.4,0.1,0.6,0
					c1-0.5,2-1.1,2.9-1.8c0.3-0.2,0.4-0.6,0.1-0.9c-0.2-0.3-0.7-0.4-1-0.1c-0.7,0.5-1.5,1-2.4,1.5c-0.6-0.3-1.4-0.8-2.2-1.4
					c-2-1.4-2.3-2.3-2.4-2.5v-5.1C940.8,237.7,941.7,236.8,942.4,235.7"/>
			</g>
		</g>
		<g>
			<g>
				<path id="cvypd" d="M942.1,259.9h-6.4c-0.4,0-0.7,0.2-0.7,0.6c0,0.3,0.3,0.5,0.7,0.5h6.4c0.4,0,0.7-0.2,0.7-0.5
					C942.8,260.1,942.5,259.9,942.1,259.9"/>
			</g>
		</g>
		<g>
			<g>
				<g>
					<g>
						<path id="cvypf" d="M935.7,257.6h3c0.4,0,0.7-0.3,0.7-0.8s-0.3-0.8-0.7-0.8h-3c-0.4,0-0.7,0.4-0.7,0.8
							S935.3,257.6,935.7,257.6"/>
					</g>
				</g>
			</g>
		</g>
		<g>
			<g>
				<path id="cvypg" d="M948.5,248.6c-1.4,1-2.8,1.9-4.4,2.6c-1.3-0.6-7.8-3.7-7.8-7.6v-7.5c1.9-0.3,3.4-1.8,3.7-3.7h8.2
					c0.3,1.9,1.8,3.4,3.7,3.7v7.2c0,0.4,0.3,0.7,0.7,0.7c0.4,0,0.7-0.3,0.7-0.7v-7.8c0-0.4-0.3-0.7-0.7-0.7c-1.7,0-3.1-1.4-3.1-3.1
					c0,0,0,0,0,0c0-0.4-0.3-0.7-0.7-0.7h-9.5c-0.4,0-0.7,0.3-0.7,0.7c0,1.7-1.4,3.1-3.1,3.1c-0.4,0-0.7,0.3-0.7,0.7c0,0,0,4.4,0,8.1
					c0,2.3,1.6,4.6,4.8,6.8c1.1,0.8,2.1,1.3,2.8,1.7c1,0.5,1.4,0.7,1.6,0.7c0.1,0,0.2,0,0.2-0.1c0.1-0.1,2.6-1.1,4.9-2.9
					c0.3-0.2,0.4-0.7,0.1-1C949.3,248.5,948.8,248.4,948.5,248.6C948.5,248.6,948.5,248.6,948.5,248.6"/>
			</g>
		</g>
		<g>
			<g>
				<g>
					<g>
						<path id="cvypi" d="M953.1,247.7c0-0.8,2.2-1.9,5.5-1.9c3.4,0,5.5,1.1,5.5,1.9c0,0.8-2.2,1.9-5.5,1.9S953.1,248.5,953.1,247.7
							L953.1,247.7z M964.1,251.1c0,0.8-2.2,1.9-5.5,1.9s-5.5-1.1-5.5-1.9v-1.4c1.3,0.8,3.5,1.3,5.5,1.3s4.2-0.4,5.5-1.3
							L964.1,251.1z M964.1,254.4c0,0.8-2.2,1.9-5.5,1.9s-5.5-1.1-5.5-1.9v-1.3c1.3,0.8,3.5,1.3,5.5,1.3s4.2-0.4,5.5-1.3
							L964.1,254.4z M964.1,257.7c0,0.8-2.2,1.9-5.5,1.9s-5.5-1.1-5.5-1.9v-1.3c1.3,0.8,3.5,1.3,5.5,1.3s4.2-0.4,5.5-1.3
							L964.1,257.7z M951.7,247.7v10c0,2.1,3.5,3.3,6.9,3.3c3.3,0,6.9-1.1,6.9-3.3v-10c0-2.1-3.5-3.3-6.9-3.3
							C955.2,244.5,951.7,245.6,951.7,247.7z"/>
					</g>
				</g>
			</g>
		</g>
	</g>
</g>
</svg>
