<?xml version="1.0" encoding="utf-8"?>
<!-- Generator: Adobe Illustrator 20.1.0, SVG Export Plug-In . SVG Version: 6.00 Build 0)  -->
<svg version="1.1" id="Слой_1" xmlns="http://www.w3.org/2000/svg" xmlns:xlink="http://www.w3.org/1999/xlink" x="0px" y="0px"
	 width="65.1px" height="49.7px" viewBox="0 0 65.1 49.7" style="enable-background:new 0 0 65.1 49.7;" xml:space="preserve">
<g>
	<g transform="translate(-687 -2664)">
		<g>
			<g>
				<path id="rd4sb" d="M688.6,2711c2.8,0,4.2,0.6,5.7,1.2c1.6,0.7,3.4,1.4,6.8,1.4c3.4,0,5.2-0.8,6.7-1.4c1.8-0.9,3.7-1.3,5.7-1.2
					c2.8,0,4.2,0.6,5.7,1.2c1.6,0.7,3.4,1.4,6.8,1.4c3.4,0,5.2-0.8,6.7-1.4c1.8-0.9,3.7-1.3,5.7-1.2c2.8,0,4.2,0.6,5.7,1.2
					c1.6,0.7,3.4,1.4,6.8,1.4c0.7,0,1.3-0.6,1.3-1.3c0-0.7-0.6-1.3-1.3-1.3c-2.8,0-4.2-0.6-5.7-1.2c-2.1-1-4.4-1.5-6.7-1.5
					c-3.4,0-5.2,0.8-6.8,1.5c-1.8,0.9-3.7,1.3-5.7,1.2c-2.8,0-4.2-0.6-5.7-1.2c-1.6-0.7-3.4-1.5-6.7-1.5c-3.4,0-5.2,0.8-6.8,1.5
					c-1.8,0.9-3.7,1.3-5.7,1.2c-1.4,0-2.6-0.1-3.7-0.5l-0.2-0.1l-0.1-0.2c-1.5-4.6-1.3-9.7,0.7-15.3c0.9-2.4,1.9-4.4,2.6-5.7
					l0.3-0.5l0.4,0.4c4,4.3,3.7,7.4,3.1,8.8c-0.2,0.7,0.1,1.5,0.8,1.7c0.6,0.2,1.3-0.1,1.6-0.7c1.6-3.9-0.4-7.7-2.3-10.2l-0.7-0.9
					l1.1,0.2c2.6,0.5,5,2.1,7,4.7c0.5,0.6,1.3,0.7,1.9,0.2c0,0,0,0,0,0c0.6-0.4,0.7-1.3,0.2-1.9c-3.3-4.2-6.9-5.4-9.3-5.8
					c-0.8-0.1-1.6-0.1-2.5-0.1l-0.4,0l-0.1-0.4c-0.2-1.1-0.7-2.2-1.2-3.1c-1.3-2.2-4-5.1-9.8-5.7c-0.7,0-1.4,0.5-1.4,1.2
					c0,0.7,0.4,1.3,1.1,1.4c3.6,0.4,6.2,1.9,7.7,4.3c0.1,0.2,0.2,0.4,0.3,0.6l0.4,0.8l-0.9-0.2c-0.3-0.1-0.7-0.2-1.1-0.2
					c-3.4-0.7-6.7,0.1-9.3,2.1c-0.6,0.5-0.7,1.3-0.2,1.9c0.5,0.6,1.3,0.7,1.9,0.2l0,0c3.3-2.6,7-1.8,9-1.1l0.5,0.2l-0.3,0.4
					c-1.2,2-2.1,4.1-2.9,6.2c-1.8,5-2.3,10.1-1.5,14.6l0.1,0.7l-0.7-0.2c-1.5-0.5-3.1-0.7-4.8-0.7c-0.7,0-1.3,0.6-1.3,1.3
					C687.3,2710.4,687.9,2711,688.6,2711"/>
			</g>
		</g>
		<g>
			<g>
				<path id="rd4sc" d="M726.5,2682.5c0-2.8,2.3-5.1,5.1-5.1s5.1,2.3,5.1,5.1c0,2.8-2.3,5.1-5.1,5.1S726.5,2685.3,726.5,2682.5
					L726.5,2682.5z M723.9,2682.5c0.2,4.3,3.9,7.6,8.2,7.4c4-0.2,7.2-3.4,7.4-7.4c-0.2-4.3-3.9-7.6-8.2-7.4
					C727.3,2675.3,724.1,2678.5,723.9,2682.5z"/>
			</g>
		</g>
		<g>
			<g>
				<g>
					<g>
						<path id="rd4se" d="M731.7,2664c-0.7,0-1.3,0.6-1.3,1.3v3.9c0,0.7,0.6,1.3,1.3,1.3c0.7,0,1.3-0.6,1.3-1.3v-3.9
							C733,2664.6,732.4,2664,731.7,2664"/>
					</g>
				</g>
			</g>
		</g>
		<g>
			<g>
				<path id="rd4sf" d="M731.7,2694.5c-0.7,0-1.3,0.6-1.3,1.3v3.9c0,0.7,0.6,1.3,1.3,1.3c0.7,0,1.3-0.6,1.3-1.3v-3.9
					C733,2695.1,732.4,2694.5,731.7,2694.5"/>
			</g>
		</g>
		<g>
			<g>
				<path id="rd4sg" d="M748.8,2681.2H745c-0.7,0-1.3,0.6-1.3,1.3c0,0.7,0.6,1.3,1.3,1.3h3.9c0.7,0,1.3-0.6,1.3-1.3
					C750.1,2681.8,749.5,2681.2,748.8,2681.2"/>
			</g>
		</g>
		<g>
			<g>
				<path id="rd4sh" d="M718.3,2681.2h-3.9c-0.7,0-1.3,0.6-1.3,1.3c0,0.7,0.6,1.3,1.3,1.3h3.9c0.7,0,1.3-0.6,1.3-1.3
					C719.7,2681.8,719.1,2681.2,718.3,2681.2"/>
			</g>
		</g>
		<g>
			<g>
				<path id="rd4si" d="M742,2691c-0.5-0.5-1.3-0.5-1.9,0c0,0,0,0,0,0c-0.5,0.5-0.5,1.3,0,1.9c0,0,0,0,0,0l2.7,2.7
					c0.5,0.5,1.3,0.5,1.9,0c0,0,0,0,0,0c0.5-0.5,0.5-1.3,0-1.9c0,0,0,0,0,0L742,2691z"/>
			</g>
		</g>
		<g>
			<g>
				<path id="rd4sj" d="M723.2,2672.2l-2.7-2.7c-0.5-0.5-1.3-0.5-1.9,0c-0.3,0.3-0.4,0.6-0.4,1c0,0.4,0.1,0.7,0.4,0.9l2.7,2.7
					c0.5,0.5,1.3,0.5,1.9,0c0,0,0,0,0,0C723.7,2673.5,723.7,2672.7,723.2,2672.2C723.2,2672.2,723.2,2672.2,723.2,2672.2"/>
			</g>
		</g>
		<g>
			<g>
				<path id="rd4sk" d="M722.2,2690.6c-0.3,0-0.7,0.1-0.9,0.4l-2.7,2.7c-0.5,0.5-0.5,1.4,0.1,1.9c0.5,0.5,1.3,0.5,1.8,0l2.7-2.7
					c0.5-0.5,0.5-1.4,0-1.9C722.9,2690.7,722.6,2690.6,722.2,2690.6"/>
			</g>
		</g>
		<g>
			<g>
				<path id="rd4sl" d="M743.8,2669c-0.4,0-0.7,0.1-0.9,0.4l-2.7,2.7c-0.5,0.5-0.5,1.4,0.1,1.9c0.5,0.5,1.3,0.5,1.8,0l2.7-2.7
					c0.5-0.5,0.5-1.4,0-1.9C744.5,2669.2,744.1,2669,743.8,2669"/>
			</g>
		</g>
	</g>
</g>
</svg>
