<?xml version="1.0" encoding="utf-8"?>
<!-- Generator: Adobe Illustrator 20.1.0, SVG Export Plug-In . SVG Version: 6.00 Build 0)  -->
<svg version="1.1" id="Слой_1" xmlns="http://www.w3.org/2000/svg" xmlns:xlink="http://www.w3.org/1999/xlink" x="0px" y="0px"
	 width="71.8px" height="46px" viewBox="0 0 71.8 46" style="enable-background:new 0 0 71.8 46;" xml:space="preserve">
<g>
	<g transform="translate(-324 -3036)">
		<g>
			<g>
				<path id="_x38_fgsa" d="M340.8,3049.7h0.1c0.8,1.1,2,1.8,3.3,2.1l0,0.1c0.1,0.6-0.4,1.3-1.2,1.9c-0.9,0.7-2,1.1-3.2,1.2
					c-2,0.2-3.8-0.9-3.9-2.4c-0.1-1.5,1.4-2.9,3.4-3C339.8,3049.6,340.3,3049.6,340.8,3049.7L340.8,3049.7z M345.1,3042.1
					c0.7,0.5,1.2,1.4,1.5,2.3c-0.6,0.8-1,1.7-1.2,2.7c-0.2,0.8-0.2,1.6-0.1,2.4l-0.1,0.1c-1.2,0.3-3.2-1.7-3.8-3.8
					c-0.5-1.9,0.3-3.9,1.7-4.2C343.7,3041.5,344.5,3041.6,345.1,3042.1L345.1,3042.1z M353.7,3044.1c0.5,0.5,0.7,1.2,0.6,2
					c-0.1,0.9-0.6,1.8-1.3,2.5c-0.1,0.1-0.2,0.2-0.2,0.3c-0.9-0.1-1.7-0.1-2.6,0c-0.9,0.1-1.8,0.4-2.4,0.8c-0.4-0.4-0.4-1.2-0.2-2.1
					c0.3-1.1,0.9-2.1,1.7-3c0.7-0.7,1.6-1.1,2.5-1.2C352.6,3043.4,353.3,3043.6,353.7,3044.1z M356,3054.9c-0.2,0.6-0.7,1.2-1.4,1.5
					c-0.8,0.4-1.8,0.4-2.8,0.1c-0.7-0.2-1.3-0.5-1.9-0.9c-0.3-1.2-0.9-2.3-1.7-3.2c0.3-0.6,1.2-1,2.4-1.2c0.9-0.1,1.9-0.1,2.7,0.1
					c1,0.3,1.8,0.8,2.3,1.6C356,3053.5,356.2,3054.3,356,3054.9L356,3054.9z M344.8,3061.7c-0.7-0.1-1.3-0.5-1.7-1.2
					c-0.5-0.8-0.7-1.8-0.6-2.8c0-0.4,0.1-0.8,0.3-1.2v-0.1c0.6-0.2,1.1-0.6,1.6-0.9c0.7-0.5,1.3-1.2,1.7-2c1.1,0.5,2,2.8,1.8,4.8
					C347.6,3060.4,346.2,3061.9,344.8,3061.7L344.8,3061.7z M340,3057.3l0.3-0.1l0,0.3c-0.2,1.5,0.1,2.9,0.9,4.2
					c0.8,1.4,2.2,2.2,3.8,2.2c2.5,0,4.8-2.3,5.1-5.3c0-0.1,0-0.2,0-0.3c0.9,0.4,1.9,0.6,2.9,0.6c0.8,0,1.7-0.2,2.4-0.5
					c1.3-0.5,2.3-1.6,2.7-3c0.4-1.3,0.1-2.7-0.8-3.9c-0.6-0.8-1.4-1.5-2.3-1.9c0.8-0.9,1.3-2.1,1.5-3.3c0.2-1.4-0.2-2.8-1.2-3.8
					c-1-1-2.4-1.5-3.8-1.3c-1.2,0.1-2.3,0.6-3.3,1.4c-0.4-0.9-1-1.7-1.8-2.3c-1.1-0.9-2.5-1.2-3.9-0.9c-2.6,0.7-4.1,3.8-3.3,6.9
					c0.1,0.3,0.2,0.7,0.3,1l-0.4,0c-3.2,0.3-5.7,2.7-5.4,5.5c0.2,2.5,2.7,4.4,5.7,4.4L340,3057.3L340,3057.3z"/>
			</g>
		</g>
		<g>
			<g>
				<path id="_x38_fgsb" d="M382.3,3051.7c-0.9,0-1.7,0.1-2.5,0.3c-0.7-9.5-8.9-16.6-18.4-15.9c-2.3,0.2-4.5,0.8-6.6,1.8
					c-0.6,0.3-0.8,1-0.5,1.5c0.3,0.6,1,0.8,1.5,0.5c7.4-3.7,16.4-0.8,20.1,6.6c0.3,0.7,0.6,1.4,0.9,2.1c-1.7,0.5-7.3,2-15.9,2
					c-0.6,0-1.1,0.5-1.1,1.1c0,0.6,0.5,1.1,1.1,1.1c8.8,0,14.5-1.5,16.5-2.1c0.1,0.7,0.2,1.3,0.2,2c-0.7,0.3-1.4,0.7-2.1,1.2
					c-0.1,0-0.3,0-0.4,0.1c-2,1-7.3,2.1-11.9,2.1c-0.4,0-0.7,0-1.1,0c-0.6,0-1.1,0.5-1.1,1.1c0,0.6,0.5,1.1,1.1,1.1l1.1,0
					c2.5,0,5.4-0.3,8-0.9c-1.8,1.9-3.6,4-5.2,6.1c-0.9,1.1-1.7,2.2-2.4,3c-5.4,6-14.4,13.1-22.2,13.1c-8.4,0-15.1-6.8-15.1-15.2
					c0-4.4,1.9-8.5,5.2-11.4c0.5-0.4,0.5-1.1,0.1-1.6c-0.4-0.5-1.1-0.5-1.6-0.1c-3.8,3.3-6,8.1-6,13.1c0,9.6,7.8,17.4,17.4,17.4
					c10.9,0,21.8-11.5,23.8-13.8c0.9-1,1.7-2,2.5-3.1c3.7-4.7,8.8-11.1,14.6-11.1c6.2,0,11.2,5,11.3,11.2c0,6.2-5,11.2-11.2,11.3
					c-1.8,0-3.6-0.4-5.2-1.2c-0.6-0.3-1.2-0.1-1.5,0.5c-0.3,0.6-0.1,1.2,0.5,1.5c6.6,3.4,14.8,0.7,18.1-5.9c1-1.9,1.5-4,1.5-6.1
					C395.8,3057.7,389.8,3051.7,382.3,3051.7"/>
			</g>
		</g>
	</g>
</g>
</svg>
