<?xml version="1.0" encoding="utf-8"?>
<!-- Generator: Adobe Illustrator 20.1.0, SVG Export Plug-In . SVG Version: 6.00 Build 0)  -->
<svg version="1.1" id="Слой_1" xmlns="http://www.w3.org/2000/svg" xmlns:xlink="http://www.w3.org/1999/xlink" x="0px" y="0px"
	 width="37.3px" height="29.1px" viewBox="0 0 37.3 29.1" style="enable-background:new 0 0 37.3 29.1;" xml:space="preserve">
<g>
	<g transform="translate(-467 -171)">
		<g>
			<g>
				<path id="e3qff" d="M497.1,194.7c0-0.9,0.8-1.7,1.7-1.7c0.9,0,1.7,0.8,1.7,1.7c0,0,0,0,0,0c0,0.9-0.8,1.7-1.7,1.7
					C497.9,196.4,497.1,195.6,497.1,194.7z M496,194.7c-0.1,1.5,1,2.9,2.6,3c1.5,0.1,2.9-1,3-2.6c0-0.2,0-0.3,0-0.5
					c-0.1-1.5-1.5-2.7-3-2.6C497.2,192.3,496.2,193.4,496,194.7z"/>
			</g>
		</g>
		<g>
			<g>
				<g>
					<path id="e3qfg" d="M468.1,194.7c0-2.4,1.9-4.3,4.3-4.3c2.4,0,4.3,1.9,4.3,4.3l0,0c0,2.4-1.9,4.3-4.3,4.3
						C470,199,468.1,197.1,468.1,194.7L468.1,194.7z M467,194.7c0,3,2.4,5.4,5.4,5.4c3,0,5.4-2.4,5.4-5.4c0,0,0,0,0,0
						c0-3-2.4-5.4-5.4-5.4C469.4,189.3,467,191.7,467,194.7z"/>
				</g>
			</g>
		</g>
		<g>
			<g>
				<path id="e3qfh" d="M470.7,194.7c-0.1-0.9,0.6-1.8,1.6-1.8c0.9-0.1,1.8,0.6,1.8,1.6c0,0.1,0,0.2,0,0.3c0,0.9-0.8,1.7-1.7,1.7
					C471.5,196.4,470.7,195.6,470.7,194.7L470.7,194.7z M469.6,194.7c-0.1,1.5,1,2.9,2.6,3c1.5,0.1,2.9-1,3-2.6c0-0.2,0-0.3,0-0.5
					c-0.1-1.5-1.5-2.7-3-2.6C470.8,192.3,469.7,193.4,469.6,194.7z"/>
			</g>
		</g>
		<g>
			<g>
				<path id="e3qfi" d="M471.5,187.2c-1.2,0.1-2.3,0.6-3.3,1.2c-0.3,0.1-0.4,0.5-0.3,0.7c0.1,0.3,0.5,0.4,0.7,0.3
					c0.1,0,0.1-0.1,0.1-0.1c1-0.7,2.1-1,3.3-1.1c0.1,0,0.6-0.1,0.4-0.6C472.4,187.1,471.7,187.2,471.5,187.2"/>
			</g>
		</g>
		<g>
			<g>
				<g>
					<g>
						<path id="e3qfk" d="M494.5,194.7c0-2.4,1.9-4.3,4.3-4.3s4.3,1.9,4.3,4.3s-1.9,4.3-4.3,4.3S494.5,197.1,494.5,194.7
							L494.5,194.7z M494.4,183.1h0.6v2.7h-0.6c-0.7-0.1-1.3-0.7-1.2-1.5C493.3,183.7,493.8,183.1,494.4,183.1z M492.7,188.6
							l-0.8-0.9c-0.1-0.9-0.7-1.8-1.7-2.4l1-0.9l2.7,3.1L492.7,188.6z M482.2,189.1c-0.3-0.3-0.5-0.7-0.5-1.2c0-1.4,2.1-2.6,4.6-2.6
							c2.5,0,4.6,1.2,4.6,2.6c0,0.5-0.3,0.9-0.5,1.2H482.2z M487.8,196.1h-7.9c0.2-1,0.2-1.9,0-2.9h2.3c0.3,0,0.6-0.2,0.6-0.5
							c0-0.3-0.2-0.6-0.5-0.6c0,0-0.1,0-0.1,0h-2.6c-0.2-0.7-0.6-1.3-1-1.9h11.2L487.8,196.1z M495.9,190.2l-1.5-1.7l0.6-0.5
							c0.2-0.2,0.3-0.6,0.1-0.8l-0.3-0.3h0.8c0.3,0,0.5-0.2,0.5-0.5v-3.8c0-0.3-0.2-0.6-0.5-0.6h-1.2c-1.1,0-2,0.8-2.3,1.8l-0.5-0.5
							c-0.2-0.2-0.5-0.2-0.8-0.1l-0.3,0.3l-0.6-3.1c-0.1-0.6-0.6-1.1-1.2-1.1h-2.1c-0.3,0-0.6,0.2-0.6,0.5c0,0.3,0.2,0.6,0.5,0.6
							h2.1c0.1,0,0.1,0,0.1,0.1l0.7,3.8l-0.5,0.4c-0.9-0.3-1.9-0.5-2.9-0.5c-2.9,0-5.2,1.3-5.6,3.1c-0.3,0-0.6-0.1-0.8-0.1
							c-0.1,0-0.3,0-0.4,0.1h0c-0.3,0.2-0.3,0.5-0.2,0.7c0.1,0.1,0.2,0.2,0.3,0.2c0.3,0.1,0.7,0.1,1.1,0.2c0,0.2,0.1,0.5,0.2,0.7
							h-3.4c-0.1-0.1-0.2-0.2-0.3-0.2c-0.2-0.2-0.6-0.2-0.8,0.1c-0.2,0.2-0.2,0.6,0.1,0.8c2,1.7,2.8,4.3,2.1,6.8
							c-0.1,0.2,0,0.5,0.2,0.6c0.1,0.1,0.2,0.1,0.3,0.1h9c0.2,0,0.5-0.1,0.5-0.4l2.3-6.9c0.3-0.3,0.5-0.6,0.7-0.9l0.6,0.6
							c0.2,0.2,0.5,0.2,0.8,0.1l0.6-0.5l1.5,1.6c-2.1,2.1-2.2,5.5-0.1,7.6c0.9,0.9,2.1,1.5,3.4,1.6c3,0.3,5.6-1.9,5.9-4.9
							c0.3-3-1.9-5.6-4.9-5.9C498.1,189.2,496.9,189.5,495.9,190.2L495.9,190.2z"/>
					</g>
				</g>
			</g>
		</g>
		<g>
			<g>
				<g>
					<g>
						<path id="e3qfm" d="M503.6,175h-9.2c-0.4,0-0.6-0.3-0.6-0.6c0-0.4,0.3-0.6,0.6-0.6h9.2c0.3,0,0.6,0.3,0.6,0.6
							C504.2,174.7,504,175,503.6,175C503.6,175,503.6,175,503.6,175"/>
					</g>
				</g>
			</g>
		</g>
		<g>
			<g>
				<g>
					<g>
						<path id="e3qfo" d="M503.6,178.4h-6c-0.3,0-0.6-0.3-0.6-0.6c0-0.3,0.3-0.6,0.6-0.6h6c0.3,0,0.6,0.3,0.6,0.6
							C504.2,178.1,503.9,178.4,503.6,178.4C503.6,178.4,503.6,178.4,503.6,178.4"/>
					</g>
				</g>
			</g>
		</g>
		<g>
			<g>
				<g>
					<g>
						<path id="e3qfq" d="M503.6,181.7h-2.7c-0.3,0-0.6-0.3-0.6-0.6c0-0.3,0.3-0.6,0.6-0.6c0,0,0,0,0,0h2.7c0.3,0,0.6,0.3,0.6,0.6
							C504.2,181.5,503.9,181.7,503.6,181.7C503.6,181.7,503.6,181.7,503.6,181.7"/>
					</g>
				</g>
			</g>
		</g>
		<g>
			<g>
				<g>
					<g>
						<path id="e3qfs" d="M472.7,172.3h5.7c0.3,1.3,1.3,2.4,2.6,2.6v5.2c0,2.4-3.8,4.6-5.5,5.3c-1.4-0.6-5.5-2.8-5.5-5.3v-5.2
							C471.4,174.7,472.4,173.6,472.7,172.3L472.7,172.3z M475.5,186.7c0.1,0,0.2,0,0.2,0c0.3-0.1,6.5-2.8,6.5-6.6v-5.8
							c0-0.3-0.3-0.6-0.6-0.6l0,0c-1.1,0-2.1-0.9-2.1-2.1v0c0-0.3-0.3-0.6-0.6-0.6l0,0h-6.9c-0.3,0-0.6,0.3-0.6,0.6c0,0,0,0,0,0
							c0,1.1-0.9,2.1-2.1,2.1c-0.3,0-0.6,0.3-0.6,0.6c0,0,0,0,0,0v5.8c0,1.6,1.1,3.3,3.3,4.8C473.4,185.9,475.2,186.7,475.5,186.7
							L475.5,186.7z"/>
					</g>
				</g>
			</g>
		</g>
		<g>
			<g>
				<path id="e3qft" d="M473.5,182.5c0.5,0.4,1.1,0.7,1.7,1.1c0.3,0.2,0.7,0.1,0.9-0.3c0,0,0,0,0,0c0.2-0.3,0-0.7-0.3-0.9
					c-0.6-0.3-1.1-0.6-1.6-1c-1.1-0.8-1.4-1.3-1.4-1.4v-3.7c0-0.3-0.3-0.6-0.6-0.6s-0.6,0.3-0.6,0.6v3.7
					C471.6,180.6,472.1,181.5,473.5,182.5"/>
			</g>
		</g>
	</g>
</g>
</svg>
