<svg xmlns="http://www.w3.org/2000/svg" viewBox="0 0 220.21 193.8"><title>Asset 10</title><g id="Layer_2" data-name="Layer 2"><g id="Layer_2-2" data-name="Layer 2"><path d="M200.34,147.13c9.32,0,16.49-5.38,19.67-14.77a3.8,3.8,0,0,0-.2-2.9,3.71,3.71,0,0,0-2.18-1.91h0a3.8,3.8,0,0,0-4.82,2.38c-2.15,6.37-6.35,9.61-12.47,9.61s-11.47-4.35-13.66-10.81a3.81,3.81,0,0,0-3.6-2.58l-.12-1,0,1a3.79,3.79,0,0,0-3.59,2.58c-2.19,6.46-7.69,10.81-13.67,10.81s-11.28-4.21-13.54-10.48l-.06-.16V90.2l1.15.18A35.6,35.6,0,0,1,171,98.57a5.06,5.06,0,0,0,3.32,1.24A5.14,5.14,0,0,0,178,98.28a21.08,21.08,0,0,1,30.22.06,5.2,5.2,0,0,0,4,1.54,5.07,5.07,0,0,0,4.8-5.07c0-29.21-28.11-53.59-64-55.51l-.94,0V24a3.8,3.8,0,0,0-7.6,0V39.26l-.94.05c-35.72,2-63.72,26.39-63.74,55.51a5.1,5.1,0,0,0,8.75,3.53,21.1,21.1,0,0,1,30.24-.07,5.06,5.06,0,0,0,6.93.3,35.75,35.75,0,0,1,17.6-8.17l1.16-.18v39l-.06.18c-2.36,6.16-7.63,10.15-13.42,10.15-6,0-11.48-4.35-13.67-10.81a3.8,3.8,0,0,0-3.6-2.58l-.12-1,0,1a3.8,3.8,0,0,0-3.59,2.58c-2.19,6.46-7.68,10.81-13.67,10.81s-11.48-4.35-13.67-10.81A3.79,3.79,0,0,0,79,126.15l-.12-1h0l0,1a3.79,3.79,0,0,0-3.59,2.58c-2.19,6.46-7.69,10.81-13.67,10.81s-10.31-3.24-12.47-9.61a3.8,3.8,0,0,0-4.82-2.38,3.71,3.71,0,0,0-2.18,1.91,3.8,3.8,0,0,0-.2,2.9c3.18,9.39,10.35,14.77,19.67,14.77A21.52,21.52,0,0,0,78.18,139l.77-1,.77,1a20.89,20.89,0,0,0,33.14,0l.77-1,.78,1A21.49,21.49,0,0,0,131,147.13a20.74,20.74,0,0,0,11.91-3.84l1.57-1.1v18.34l-.09.19c-2.51,5.58-7.62,9.19-13,9.19-6,0-11.48-4.34-13.67-10.81a3.78,3.78,0,0,0-3.59-2.57l-.13-1h0l0,1a3.82,3.82,0,0,0-3.65,2.58c-2.19,6.47-7.69,10.81-13.67,10.81S85.19,165.57,83,159.1a3.79,3.79,0,0,0-3.59-2.57l-.13-1h0l0,1a3.83,3.83,0,0,0-3.65,2.58C73.46,165.57,68,169.91,62,169.91S50.5,165.57,48.31,159.1a3.78,3.78,0,0,0-3.59-2.57l-.13-1h0l0,1A3.82,3.82,0,0,0,41,159.1c-2.19,6.47-7.68,10.81-13.67,10.81S17,166.68,14.83,160.3a3.79,3.79,0,0,0-1.91-2.19,3.8,3.8,0,0,0-5.28,4.63c3.17,9.38,10.34,14.77,19.66,14.77a21.5,21.5,0,0,0,16.57-8.18l.77-1,.78,1a20.86,20.86,0,0,0,33.13,0l.77-1,.78,1a20.87,20.87,0,0,0,33.14,0l.77-1,.77,1a21.5,21.5,0,0,0,16.57,8.18,20.69,20.69,0,0,0,11.55-3.6l1.56-1V190a3.8,3.8,0,0,0,7.6,0V172.15l1.59,1.18A20.78,20.78,0,0,0,166,177.51c9.32,0,16.48-5.39,19.66-14.77a3.8,3.8,0,1,0-7.19-2.44c-2.17,6.38-6.36,9.61-12.48,9.61s-11.48-4.34-13.66-10.81a5,5,0,0,0-.21-.48l-.1-.21V142.09l1.58,1.12a20.66,20.66,0,0,0,12,3.92A21.52,21.52,0,0,0,182.23,139l.77-1,.77,1A21.52,21.52,0,0,0,200.34,147.13ZM148.43,82.37h-.13a43.59,43.59,0,0,0-25.15,8.53l-.63.47-.61-.5a28.29,28.29,0,0,0-18.23-6.53,28.76,28.76,0,0,0-14,3.63l-1.92,1.09.45-2.16c4.92-23.24,30.16-40.11,60-40.13h.28c29.87,0,55.11,16.9,60,40.12l.45,2.16L207.07,88a28.76,28.76,0,0,0-14-3.63,28.29,28.29,0,0,0-18.23,6.53l-.6.5-.63-.47A43.6,43.6,0,0,0,148.43,82.37Z"/><path d="M22.29,50.31a23.73,23.73,0,0,0,4,9l-.12.11L15.76,69.77a3.84,3.84,0,0,0,5.43,5.43L31.58,64.81l.11-.12a23.68,23.68,0,0,0,9.09,4V86.85a3.84,3.84,0,0,0,7.68,0V69a23.77,23.77,0,0,0,11-4.31L70,75.2a3.84,3.84,0,0,0,5.43-5.43l-10.5-10.5a23.68,23.68,0,0,0,4-8.89H87.33a3.84,3.84,0,0,0,0-7.68H69.25a23.73,23.73,0,0,0-4.34-11.22L75.41,21A3.84,3.84,0,0,0,70,15.55l-10.5,10.5a23.66,23.66,0,0,0-11-4.31V3.84a3.84,3.84,0,0,0-7.68,0V22.05a23.58,23.58,0,0,0-9.09,4l-10.5-10.5A3.84,3.84,0,0,0,15.76,21l10.5,10.5a23.76,23.76,0,0,0-4.34,11.24l-.33,0H3.84a3.84,3.84,0,1,0,0,7.68H21.59a4.05,4.05,0,0,0,.7-.07Zm23.3-21.07A16.14,16.14,0,1,1,29.45,45.37,16.15,16.15,0,0,1,45.59,29.24Z"/></g></g></svg>