<?xml version="1.0" encoding="utf-8"?>
<!-- Generator: Adobe Illustrator 20.1.0, SVG Export Plug-In . SVG Version: 6.00 Build 0)  -->
<svg version="1.1" id="Слой_1" xmlns="http://www.w3.org/2000/svg" xmlns:xlink="http://www.w3.org/1999/xlink" x="0px" y="0px"
	 width="34.9px" height="30px" viewBox="0 0 34.9 30" style="enable-background:new 0 0 34.9 30;" xml:space="preserve">
<g>
	<g transform="translate(-1179 -231)">
		<g>
			<g>
				<path id="_x37_xfkc" d="M1197.1,233.6c1.7,0,2.9,1.7,4,5.6c-1.2-0.4-2.6-0.6-4-0.6c-1.4,0-2.8,0.2-4,0.6
					C1194.1,235.3,1195.4,233.6,1197.1,233.6z M1194,233.9c-1.1,1.3-1.8,3.4-2.3,5.4c-1.8-0.7-3.8-0.9-5.7-0.5
					C1187.8,236.2,1190.7,234.4,1194,233.9L1194,233.9z M1206,238.6c-1.3,0-2.5,0.2-3.5,0.7c-0.5-2.1-1.2-4.1-2.3-5.4
					c3.2,0.5,6.1,2.3,8,5C1207.5,238.7,1206.7,238.6,1206,238.6z M1210,241c0.4,0,0.7-0.3,0.7-0.7c0-0.2-0.1-0.3-0.1-0.4
					c-2.3-3.7-5.6-7.4-12.8-7.6v-0.6c0-0.4-0.3-0.7-0.7-0.7c-0.4,0-0.7,0.3-0.7,0.7c0,0,0,0,0,0v0.6c-7.2,0.2-10.5,4-12.8,7.6
					c-0.2,0.3-0.2,0.7,0.1,0.9c0.1,0.1,0.3,0.1,0.4,0.1c0.1,0,0.3,0,0.4-0.1c0.9-0.6,2.2-0.9,3.6-0.9c1.2,0,2.5,0.3,3.6,0.9
					c0.1,0.1,0.2,0.1,0.4,0.1c0.1,0,0.2,0,0.3-0.1c1.2-0.6,2.9-0.9,4.7-0.9c1.8,0,3.4,0.4,4.7,1c0.2,0.1,0.5,0.1,0.7,0
					c1-0.6,2.2-0.9,3.6-0.9c1.4,0,2.6,0.3,3.6,0.9C1209.7,241,1209.8,241,1210,241L1210,241z"/>
			</g>
		</g>
		<g>
			<g>
				<g>
					<g>
						<path id="_x37_xfke" d="M1194.1,259.6h-13.7v-1.2c0-0.7,0.6-1,0.7-1l4.4-1.9c0.2-0.1,0.4-0.4,0.4-0.6v-2.2
							c0-0.2-0.1-0.4-0.2-0.5c-0.9-0.7-1.4-2-1.4-3.4c0-2.2,1.4-4,3-4s3,1.8,3,4c0,1.4-0.5,2.6-1.4,3.4c-0.2,0.1-0.2,0.3-0.2,0.5
							v2.2c0,0.3,0.2,0.5,0.4,0.6l4.5,1.9c0.1,0,0.6,0.3,0.7,1L1194.1,259.6z M1194,256.2l-4.1-1.8V253c1.1-1.1,1.7-2.6,1.7-4.2
							c0-2.9-2-5.4-4.4-5.4s-4.4,2.4-4.4,5.4c0,1.7,0.6,3.2,1.7,4.2v1.5l-4.1,1.8h0c-0.9,0.4-1.4,1.3-1.5,2.2v1.9
							c0,0.4,0.3,0.7,0.7,0.7h15.1c0.4,0,0.7-0.3,0.7-0.7v-1.9v0C1195.4,257.5,1194.9,256.6,1194,256.2L1194,256.2L1194,256.2z"/>
					</g>
				</g>
			</g>
		</g>
		<g>
			<g>
				<path id="_x37_xfkf" d="M1193,251.4c0.4,0,0.7,0.3,0.7,0.7c0,0.8,0.6,1.5,1.4,1.5c0.8,0,1.4-0.7,1.4-1.5v-8.7
					c0-0.4,0.3-0.7,0.7-0.7s0.7,0.3,0.7,0.7v8.7c0,1.5-1.2,2.8-2.8,2.8h0c-1.5,0-2.8-1.3-2.8-2.8c0,0,0,0,0,0
					C1192.3,251.7,1192.6,251.4,1193,251.4"/>
			</g>
		</g>
		<g>
			<g>
				<g>
					<g>
						<path id="_x37_xfkh" d="M1207.3,259.7c-1.4-0.6-5.3-2.8-5.3-5.2v-5.1c1.3-0.3,2.3-1.3,2.6-2.6h5.6c0.3,1.3,1.3,2.3,2.6,2.6
							v5.1C1212.7,256.8,1209,258.9,1207.3,259.7L1207.3,259.7z M1213.3,248.2c-1.1,0-2-0.9-2-2c0,0,0,0,0,0c0-0.3-0.3-0.6-0.6-0.6
							h-6.7c-0.3,0-0.6,0.3-0.6,0.6c0,1.1-0.9,2-2,2c-0.3,0-0.6,0.3-0.6,0.6v5.7c0,1.6,1.1,3.2,3.2,4.7c1.3,0.9,3,1.8,3.3,1.8
							c0.1,0,0.2,0,0.2,0c0.3-0.1,6.3-2.7,6.4-6.5v-5.7C1213.9,248.4,1213.7,248.2,1213.3,248.2L1213.3,248.2z"/>
					</g>
				</g>
			</g>
		</g>
		<g>
			<g>
				<path id="_x37_xfki" d="M1207.6,257.1c-0.6-0.3-1.1-0.6-1.5-1c-1.1-0.8-1.3-1.3-1.4-1.4v-3.6c0-0.3-0.3-0.6-0.6-0.6
					c-0.3,0-0.6,0.3-0.6,0.6v3.7c0,0.5,0.5,1.3,1.9,2.4c0.5,0.4,1,0.7,1.6,1c0.1,0,0.2,0.1,0.3,0.1c0.2,0,0.4-0.1,0.5-0.3
					C1208,257.6,1207.9,257.2,1207.6,257.1"/>
			</g>
		</g>
	</g>
</g>
</svg>
