<?xml version="1.0" encoding="utf-8"?>
<!-- Generator: Adobe Illustrator 20.1.0, SVG Export Plug-In . SVG Version: 6.00 Build 0)  -->
<svg version="1.1" id="Слой_1" xmlns="http://www.w3.org/2000/svg" xmlns:xlink="http://www.w3.org/1999/xlink" x="0px" y="0px"
	 width="29.3px" height="29.4px" viewBox="0 0 29.3 29.4" style="enable-background:new 0 0 29.3 29.4;" xml:space="preserve">
<g>
	<g transform="translate(-935 -171)">
		<g>
			<g>
				<g>
					<g>
						<path id="hck6f" d="M963.6,199h-9.8c-0.4,0-0.7,0.3-0.7,0.6s0.3,0.6,0.7,0.6h9.8c0.4,0,0.7-0.3,0.7-0.6S964,199,963.6,199"/>
					</g>
				</g>
			</g>
		</g>
		<g>
			<g>
				<g>
					<g>
						<path id="hck6h" d="M963.6,195.3h-6.3c-0.4,0-0.7,0.3-0.7,0.7s0.3,0.7,0.7,0.7h6.3c0.4,0,0.7-0.3,0.7-0.7
							S964,195.3,963.6,195.3"/>
					</g>
				</g>
			</g>
		</g>
		<g>
			<g>
				<g>
					<g>
						<path id="hck6j" d="M963.6,191.8h-3c-0.4,0-0.7,0.3-0.7,0.6s0.3,0.6,0.7,0.6h3c0.4,0,0.7-0.3,0.7-0.6S964,191.8,963.6,191.8"
							/>
					</g>
				</g>
			</g>
		</g>
		<g>
			<g>
				<g>
					<g>
						<path id="hck6l" d="M946.9,175.6c0,1.7-1.4,3.2-3.2,3.2c-1.7,0-3.2-1.4-3.2-3.2s1.4-3.2,3.2-3.2
							C945.5,172.4,946.9,173.9,946.9,175.6L946.9,175.6z M951.2,187.2v0.9c0,0.5-0.4,0.8-0.8,0.8h-1.5v-5.6c0-0.4-0.3-0.7-0.7-0.7
							c-0.4,0-0.7,0.3-0.7,0.7v15c0,0.5-0.4,0.8-0.8,0.8h-2.2v-7.4c0-0.4-0.3-0.7-0.7-0.7c-0.4,0-0.7,0.3-0.7,0.7v7.4h-2.2
							c-0.5,0-0.8-0.4-0.8-0.8v0v-15c0-0.4-0.3-0.7-0.7-0.7s-0.7,0.3-0.7,0.7v5.6h-1.5c-0.5,0-0.8-0.4-0.8-0.8v0v-6.3
							c0-0.8,0.2-0.9,1.1-1.3l3.5-1.4c1.6,1.3,4,1.3,5.6,0l1.1,0.4c0.3,0.1,0.7,0,0.9-0.4c0.1-0.3,0-0.7-0.4-0.9c0,0,0,0,0,0
							l-0.6-0.2c1.4-2.1,0.8-4.9-1.3-6.2c-2.1-1.4-4.9-0.8-6.2,1.3c-1,1.5-1,3.4,0,4.9c-1.3,0.5-2.6,1-3.1,1.2
							c-1.2,0.5-1.9,1-1.9,2.5v6.3c0,1.2,1,2.1,2.2,2.1h1.5v8c0,1.2,1,2.1,2.2,2.1h5.8c1.2,0,2.2-1,2.2-2.1v-8h1.5
							c1.2,0,2.2-1,2.2-2.1v-0.9c0-0.4-0.3-0.7-0.7-0.7S951.2,186.9,951.2,187.2L951.2,187.2z"/>
					</g>
				</g>
			</g>
		</g>
		<g>
			<g>
				<path id="hck6m" d="M954,172.3h5.9c0.3,1.4,1.3,2.5,2.7,2.8v5.5c0,2.5-3.9,4.8-5.7,5.6c-1.5-0.6-5.7-3-5.7-5.6v-5.5
					C952.7,174.8,953.7,173.7,954,172.3L954,172.3z M956.9,187.5c0.1,0,0.2,0,0.3-0.1c0.3-0.1,6.7-2.9,6.7-6.9c0-2.8,0-6,0-6.1
					c0-0.4-0.3-0.7-0.6-0.7c-1.2,0-2.1-1-2.1-2.2c0,0,0,0,0,0c0-0.4-0.3-0.7-0.7-0.7h-7c-0.4,0-0.7,0.3-0.7,0.7c0,1.2-1,2.2-2.1,2.2
					c-0.3,0-0.7,0.3-0.7,0.7v6.1c0,1.7,1.2,3.4,3.4,5C954.8,186.6,956.6,187.5,956.9,187.5z"/>
			</g>
		</g>
		<g>
			<g>
				<path id="hck6n" d="M955,183.2c0.5,0.4,1.1,0.8,1.7,1.1c0.1,0.1,0.2,0.1,0.3,0.1c0.2,0,0.5-0.1,0.6-0.4c0.2-0.3,0.1-0.7-0.3-0.9
					c-0.6-0.3-1.1-0.7-1.6-1c-1.1-0.8-1.4-1.4-1.5-1.5v-3.8c0-0.4-0.3-0.7-0.6-0.7c0,0,0,0,0,0c-0.3,0-0.6,0.3-0.6,0.7v3.9
					C953.1,181.2,953.6,182.1,955,183.2"/>
			</g>
		</g>
	</g>
</g>
</svg>
