<?xml version="1.0" encoding="utf-8"?>
<!-- Generator: Adobe Illustrator 20.1.0, SVG Export Plug-In . SVG Version: 6.00 Build 0)  -->
<svg version="1.1" id="Слой_1" xmlns="http://www.w3.org/2000/svg" xmlns:xlink="http://www.w3.org/1999/xlink" x="0px" y="0px"
	 width="42px" height="48px" viewBox="0 0 42 48" style="enable-background:new 0 0 42 48;" xml:space="preserve">
<g>
	<g transform="translate(-158 -1761)">
		<g>
			<g>
				<path id="_x36_ioxa" d="M194.1,1785h4.7v22.8h-4.7V1785z M193.4,1783.8c-0.3,0-0.6,0.3-0.6,0.6l0,0v24c0,0.3,0.3,0.6,0.6,0.6h6
					c0.3,0,0.6-0.3,0.6-0.6v-24c0-0.3-0.3-0.6-0.6-0.6H193.4z"/>
			</g>
		</g>
		<g>
			<g>
				<path id="_x36_ioxb" d="M159.2,1785h4.7v22.8h-4.7V1785z M158.6,1783.8c-0.3,0-0.6,0.3-0.6,0.6l0,0v24c0,0.3,0.3,0.6,0.6,0.6h6
					c0.3,0,0.6-0.3,0.6-0.6v-24c0-0.3-0.3-0.6-0.6-0.6H158.6z"/>
			</g>
		</g>
		<g>
			<g>
				<path id="_x36_ioxc" d="M190.5,1781.7l-6-2.7c-0.1-0.1-0.3-0.2-0.3-0.3l-2-3.3c-0.2-0.3-0.5-0.4-0.8-0.2
					c-0.2,0.1-0.3,0.3-0.3,0.5v6.2c0,0.1,0,0.2,0.1,0.3l2.7,4.2l2.1,3.1c0.1,0.1,0.1,0.2,0.1,0.3l1,3.2l1.1,3.8
					c0.2,0.6-0.1,1.3-0.8,1.6l0,0h-0.1c-0.7,0.2-1.4-0.2-1.6-0.9l-2-6.7c0-0.1,0-0.1-0.1-0.2l-1.2-1.8l-3.5-5.3
					c-0.2-0.3-0.6-0.3-0.8-0.2c-0.1,0.1-0.2,0.2-0.2,0.3l-2.4,6.7l-0.1,0.3c-0.1,0.2-0.1,0.3-0.3,0.4l-5.2,5.7l-1.1,1.2
					c-0.5,0.5-1.3,0.6-1.9,0.1c-0.5-0.5-0.6-1.3-0.1-1.8l0,0l6.1-6.7c0.1-0.1,0.1-0.1,0.1-0.2l1.7-4.8l0.9-2.6c0-0.1,0-0.1,0-0.2
					v-8.1c0-0.3-0.3-0.6-0.6-0.6c-0.1,0-0.2,0-0.3,0.1l-4.8,3c-0.1,0.1-0.2,0.2-0.3,0.4l-1.4,6.4c-0.1,0.4-0.5,0.7-0.9,0.6
					s-0.7-0.5-0.6-0.9l0,0l1.5-6.9c0.1-0.2,0.2-0.4,0.3-0.5l6.8-4.2l0,0l0,0l0.4-0.3c0.1-0.1,0.3-0.1,0.4-0.1h4.3
					c0.2,0,0.4,0.1,0.6,0.3l0,0l0.1,0.1l4,6.6c0.1,0.1,0.2,0.2,0.3,0.2l5.6,2.5c0.4,0.2,0.6,0.6,0.4,1
					C191.4,1781.6,190.9,1781.8,190.5,1781.7L190.5,1781.7z M184.4,1785.1h2.6v4l-0.1-0.2L184.4,1785.1z M187,1807.8h-4.5v-16.5
					l2,6.6c0,0.1,0.1,0.3,0.1,0.4v0.1c0.1,0.1,0.1,0.2,0.2,0.3c0.4,0.6,1,0.9,1.7,1h0.1h0.3h0.1L187,1807.8z M175.4,1807.8h-4.5
					v-10.3l4.1-4.4l0.5-0.5v15.2H175.4z M170.8,1785.1h2.4l-1.4,3.9l-1,1.1V1785.1z M186.2,1776.8l-3.9-6.4
					c-0.1-0.1-0.1-0.2-0.2-0.3c-0.4-0.4-0.9-0.7-1.5-0.7h-4.3c-0.4,0-0.7,0.1-1,0.3l-0.3,0.2c-0.1,0-0.2,0.1-0.3,0.2l-6.6,4.2
					c-0.4,0.3-0.8,0.7-0.9,1.2l-1.5,6.9c-0.2,1.1,0.4,2.1,1.5,2.3c0.1,0,0.3,0,0.4,0c0.9,0,1.7-0.7,1.9-1.5l1.3-6.2l3.7-2.3v6.9
					l-0.8,2.1h-3.5c-0.3,0-0.6,0.3-0.6,0.6v6.9l-3.8,4.2c-0.9,1-0.9,2.6,0.1,3.5l0,0c1,0.9,2.6,0.9,3.6-0.2l0.1-0.1v9.6
					c0,0.3,0.3,0.6,0.6,0.6h5.7c0.3,0,0.6-0.3,0.6-0.6v-17.7l2-5.4l2.8,4.2v18.9c0,0.3,0.3,0.6,0.6,0.6h5.7c0.3,0,0.6-0.3,0.6-0.6
					v-9.1c1-0.6,1.5-1.8,1.1-2.9l-1.1-3.7v-8.3c0-0.3-0.3-0.6-0.6-0.6h-4l-1.4-2.1v-3.9l0.9,1.5c0.2,0.3,0.5,0.6,0.9,0.8l6,2.7
					c1,0.4,2.1-0.1,2.5-1.1c0.3-0.9,0-2-0.9-2.4L186.2,1776.8z"/>
			</g>
		</g>
		<g>
			<g>
				<path id="_x36_ioxd" d="M180.9,1764.6c0,1.4-1.1,2.5-2.4,2.5c-1.4,0-2.5-1.1-2.5-2.4l0,0c0-1.4,1.1-2.4,2.5-2.4
					C179.8,1762.2,180.8,1763.2,180.9,1764.6z M182,1764.6c0-2-1.6-3.6-3.6-3.6s-3.6,1.6-3.6,3.6l0,0c0,2,1.6,3.6,3.6,3.6
					S182,1766.6,182,1764.6z"/>
			</g>
		</g>
	</g>
</g>
</svg>
