<?xml version="1.0" encoding="utf-8"?>
<!-- Generator: Adobe Illustrator 20.1.0, SVG Export Plug-In . SVG Version: 6.00 Build 0)  -->
<svg version="1.1" id="Слой_1" xmlns="http://www.w3.org/2000/svg" xmlns:xlink="http://www.w3.org/1999/xlink" x="0px" y="0px"
	 width="50.2px" height="50.2px" viewBox="0 0 50.2 50.2" style="enable-background:new 0 0 50.2 50.2;" xml:space="preserve">
<g>
	<g transform="translate(-1056 -2688)">
		<g>
			<g>
				<path id="oznzc" d="M1058.3,2705.4l15.7-7.1c0.1,0,0.2,0,0.3,0l15.7,7.1v0.8c-1.8,0.7-6.8,2.3-9.5-1.5c-0.4-0.5-1.1-0.6-1.6-0.3
					c-0.5,0.4-0.6,1.1-0.3,1.6c0,0,0,0,0,0c-3.5,1.8-6.9,0.9-8.4,0.2l0.2-0.2c0.4-0.5,0.4-1.2-0.1-1.6s-1.2-0.4-1.6,0.1l0,0
					c-3.3,3.9-8.5,2.3-10.3,1.5L1058.3,2705.4z M1068.3,2708c0.4,0.2,2.2,1.1,4.8,1.4v14.5c0,0.6,0.5,1.2,1.2,1.2
					c0.6,0,1.2-0.5,1.2-1.2c0,0,0,0,0,0v-14.5c1.8-0.1,3.5-0.7,5-1.6c1.5,1.1,3.4,1.7,5.2,1.6c2.4,0,4.7-0.7,6.1-1.4
					c0.4-0.2,0.6-0.6,0.6-1v-2.3c0-0.4-0.3-0.9-0.7-1.1l-16.4-7.4c-0.7-0.3-1.5-0.3-2.2,0l-16.4,7.4c-0.4,0.2-0.7,0.6-0.7,1.1v2.3
					c0,0.4,0.2,0.8,0.6,1C1059.1,2709.2,1064.2,2710.5,1068.3,2708L1068.3,2708z"/>
			</g>
		</g>
		<g>
			<g>
				<g>
					<g>
						<path id="oznze" d="M1097.3,2717.6c-2.7-2-6-1.1-9.3,2.5c-1.9,2-3.8,3.9-5.8,5.8H1061c-2.5,0-5,1.5-5,4.2v1.6
							c0,0.6,0.5,1.2,1.2,1.2c0.6,0,1.2-0.5,1.2-1.2c0,0,0,0,0,0v-1.6c0-1.9,2.6-1.9,2.7-1.9h21.6c0.3,0,0.6-0.1,0.8-0.3
							c0.2-0.2,4.8-4.6,6.2-6.2c1.4-1.5,4-3.8,6.2-2.2c0.5,0.4,1.2,0.3,1.6-0.2C1097.9,2718.7,1097.8,2718,1097.3,2717.6
							L1097.3,2717.6"/>
					</g>
				</g>
			</g>
		</g>
		<g>
			<g>
				<path id="oznzf" d="M1092.7,2722.3l-8.2,8.2h-22.7c-0.6,0-1.2,0.5-1.2,1.2c0,0.6,0.5,1.2,1.2,1.2h1.9l-2.1,3.7
					c-0.3,0.6,0,1.3,0.6,1.5c0.5,0.2,1.1,0.1,1.4-0.4l2.8-4.8h18l2.8,4.8c0.3,0.6,1,0.8,1.6,0.4s0.8-1,0.4-1.6l-2.7-4.6l7.9-7.9
					c0.5-0.4,0.5-1.2,0-1.6C1093.9,2721.9,1093.2,2721.9,1092.7,2722.3C1092.7,2722.3,1092.7,2722.3,1092.7,2722.3"/>
			</g>
		</g>
		<g>
			<g>
				<g>
					<g>
						<path id="oznzh" d="M1093.5,2688c-5.4,0-10.2,3.4-12,8.5c-0.3,0.6,0,1.3,0.6,1.5c0.6,0.3,1.3,0,1.5-0.6c0-0.1,0-0.1,0.1-0.2
							c1.9-5.4,7.9-8.3,13.3-6.4c5.4,1.9,8.3,7.9,6.4,13.3c-1.9,5.4-7.9,8.3-13.3,6.4c-0.2-0.1-0.5-0.2-0.7-0.3
							c-0.6-0.3-1.3,0-1.5,0.6c-0.3,0.6,0,1.3,0.6,1.5c6.5,2.8,14-0.1,16.8-6.6c0.7-1.6,1.1-3.3,1.1-5.1
							C1106.2,2693.7,1100.5,2688,1093.5,2688"/>
					</g>
				</g>
			</g>
		</g>
	</g>
</g>
</svg>
