<?xml version="1.0" encoding="utf-8"?>
<!-- Generator: Adobe Illustrator 20.1.0, SVG Export Plug-In . SVG Version: 6.00 Build 0)  -->
<svg version="1.1" id="Слой_1" xmlns="http://www.w3.org/2000/svg" xmlns:xlink="http://www.w3.org/1999/xlink" x="0px" y="0px"
	 width="51.2px" height="51.1px" viewBox="0 0 51.2 51.1" style="enable-background:new 0 0 51.2 51.1;" xml:space="preserve">
<g>
	<g transform="translate(-696 -3031)">
		<g>
			<g>
				<path id="_x32_lnna" d="M721.6,3068.8c0.6,0.1,1.2-0.4,1.3-1.1s-0.4-1.2-1.1-1.3c-0.1,0-0.1,0-0.2,0h-14.1
					c-0.6-0.1-1.2,0.4-1.3,1.1s0.4,1.2,1.1,1.3c0.1,0,0.1,0,0.2,0H721.6z"/>
			</g>
		</g>
		<g>
			<g>
				<path id="_x32_lnnb" d="M738.9,3066.4h-10.2c-0.6-0.1-1.2,0.4-1.3,1.1s0.4,1.2,1.1,1.3c0.1,0,0.1,0,0.2,0h10.2
					c0.6,0.1,1.2-0.4,1.3-1.1s-0.4-1.2-1.1-1.3C739,3066.4,738.9,3066.4,738.9,3066.4"/>
			</g>
		</g>
		<g>
			<g>
				<path id="_x32_lnnc" d="M721.2,3073.9c0-0.6-0.5-1.2-1.2-1.2h-16.5c-0.6-0.1-1.2,0.4-1.3,1.1s0.4,1.2,1.1,1.3c0.1,0,0.1,0,0.2,0
					H720C720.7,3075,721.2,3074.5,721.2,3073.9"/>
			</g>
		</g>
		<g>
			<g>
				<path id="_x32_lnnd" d="M733.8,3073.9c0-0.6-0.5-1.2-1.2-1.2h-5.5c-0.6-0.1-1.2,0.4-1.3,1.1s0.4,1.2,1.1,1.3c0.1,0,0.1,0,0.2,0
					h5.5C733.2,3075,733.8,3074.5,733.8,3073.9"/>
			</g>
		</g>
		<g>
			<g>
				<path id="_x32_lnne" d="M737.3,3079.8h-7.1c-0.6-0.1-1.2,0.4-1.3,1.1s0.4,1.2,1.1,1.3c0.1,0,0.1,0,0.2,0h7.1
					c0.6,0.1,1.2-0.4,1.3-1.1s-0.4-1.2-1.1-1.3C737.4,3079.8,737.4,3079.8,737.3,3079.8"/>
			</g>
		</g>
		<g>
			<g>
				<path id="_x32_lnnf" d="M723.2,3079.8h-4.7c-0.6-0.1-1.2,0.4-1.3,1.1s0.4,1.2,1.1,1.3c0.1,0,0.1,0,0.2,0h4.7
					c0.6,0.1,1.2-0.4,1.3-1.1s-0.4-1.2-1.1-1.3C723.3,3079.8,723.2,3079.8,723.2,3079.8"/>
			</g>
		</g>
		<g>
			<g>
				<path id="_x32_lnng" d="M709.4,3056.6c0-6.7,5.5-12.2,12.2-12.2c6.7,0,12.2,5.4,12.2,12.2c0,1.5-0.3,2.9-0.8,4.3h-22.8
					C709.7,3059.5,709.4,3058.1,709.4,3056.6L709.4,3056.6z M735.4,3060.9c2.4-7.6-1.8-15.8-9.5-18.2c-1.4-0.4-2.9-0.7-4.4-0.7
					c-8,0-14.5,6.5-14.5,14.6c0,1.4,0.2,2.9,0.7,4.3h-6.5c-0.6-0.1-1.2,0.4-1.3,1.1s0.4,1.2,1.1,1.3c0.1,0,0.1,0,0.2,0H742
					c0.6,0.1,1.2-0.4,1.3-1.1s-0.4-1.2-1.1-1.3c-0.1,0-0.1,0-0.2,0H735.4z"/>
			</g>
		</g>
		<g>
			<g>
				<path id="_x32_lnnh" d="M721.6,3039.7c0.7,0,1.2-0.5,1.2-1.2v-6.3c0.1-0.6-0.4-1.2-1.1-1.3s-1.2,0.4-1.3,1.1c0,0.1,0,0.1,0,0.2
					v6.3C720.4,3039.2,721,3039.7,721.6,3039.7"/>
			</g>
		</g>
		<g>
			<g>
				<path id="_x32_lnni" d="M734.4,3045c0.3,0,0.6-0.1,0.8-0.3l4.4-4.4c0.5-0.5,0.5-1.2,0-1.7c-0.5-0.5-1.2-0.5-1.7,0l-4.4,4.4
					c-0.5,0.5-0.5,1.2,0,1.7C733.8,3044.9,734.1,3045,734.4,3045"/>
			</g>
		</g>
		<g>
			<g>
				<path id="_x32_lnnj" d="M745.9,3055.4h-6.3c-0.6-0.1-1.2,0.4-1.3,1.1s0.4,1.2,1.1,1.3c0.1,0,0.1,0,0.2,0h6.3
					c0.6,0.1,1.2-0.4,1.3-1.1s-0.4-1.2-1.1-1.3C746.1,3055.4,746,3055.4,745.9,3055.4"/>
			</g>
		</g>
		<g>
			<g>
				<path id="_x32_lnnk" d="M704.7,3056.6c0-0.6-0.5-1.2-1.2-1.2h-6.3c-0.6-0.1-1.2,0.4-1.3,1.1s0.4,1.2,1.1,1.3c0.1,0,0.1,0,0.2,0
					h6.3C704.2,3057.8,704.7,3057.3,704.7,3056.6"/>
			</g>
		</g>
		<g>
			<g>
				<path id="_x32_lnnl" d="M708,3044.7c0.5,0.5,1.2,0.5,1.7,0c0,0,0,0,0,0c0.5-0.5,0.5-1.2,0-1.7l-4.4-4.4c-0.5-0.5-1.2-0.5-1.7,0
					c-0.5,0.5-0.5,1.2,0,1.7l0,0L708,3044.7z"/>
			</g>
		</g>
		<g>
			<g>
				<path id="_x32_lnnm" d="M713.6,3040.4c0.2,0.6,0.9,0.9,1.5,0.7c0.6-0.2,0.9-0.9,0.7-1.5c0,0,0-0.1,0-0.1l-1.2-2.9
					c-0.2-0.6-0.9-0.9-1.5-0.7c-0.6,0.2-0.9,0.9-0.7,1.5c0,0,0,0.1,0,0.1L713.6,3040.4z"/>
			</g>
		</g>
		<g>
			<g>
				<path id="_x32_lnnn" d="M701.6,3049.6l2.9,1.2c0.1,0.1,0.3,0.1,0.5,0.1c0.7,0,1.2-0.5,1.2-1.2c0-0.5-0.3-0.9-0.7-1.1l-2.9-1.2
					c-0.6-0.3-1.3-0.1-1.6,0.5c-0.3,0.6-0.1,1.3,0.5,1.6C701.4,3049.5,701.5,3049.6,701.6,3049.6"/>
			</g>
		</g>
		<g>
			<g>
				<path id="_x32_lnno" d="M728.1,3041c0.6,0.2,1.3,0,1.5-0.6l1.2-2.9c0.2-0.6-0.2-1.3-0.8-1.5c-0.5-0.2-1.1,0.1-1.4,0.6l-1.2,2.9
					C727.2,3040.1,727.5,3040.8,728.1,3041"/>
			</g>
		</g>
		<g>
			<g>
				<path id="_x32_lnnp" d="M737.2,3050.2c0.2,0.6,0.9,0.9,1.5,0.6l2.9-1.2c0.6-0.3,0.9-1,0.6-1.6c-0.3-0.6-0.9-0.8-1.5-0.6
					l-2.9,1.2C737.2,3048.9,736.9,3049.6,737.2,3050.2"/>
			</g>
		</g>
	</g>
</g>
</svg>
