<?xml version="1.0" encoding="utf-8"?>
<!-- Generator: Adobe Illustrator 20.1.0, SVG Export Plug-In . SVG Version: 6.00 Build 0)  -->
<svg version="1.1" id="Слой_1" xmlns="http://www.w3.org/2000/svg" xmlns:xlink="http://www.w3.org/1999/xlink" x="0px" y="0px"
	 width="30.4px" height="29.8px" viewBox="0 0 30.4 29.8" style="enable-background:new 0 0 30.4 29.8;" xml:space="preserve">
<g>
	<g transform="translate(-40 -291)">
		<g>
			<g>
				<path id="_x38_tzxb" d="M45.9,319.7c-1.2-0.5-4.8-2.4-4.8-4.6v-4.5c1.2-0.2,2.1-1.1,2.3-2.3h5c0.2,1.2,1.1,2.1,2.3,2.3v4.5
					C50.7,317.2,47.4,319,45.9,319.7z M51.2,309.6c-1,0-1.8-0.8-1.8-1.8c0-0.3-0.2-0.5-0.5-0.5h-6c-0.3,0-0.5,0.2-0.5,0.5
					c0,1-0.8,1.8-1.8,1.8c-0.3,0-0.5,0.2-0.5,0.5v5c0,1.4,1,2.8,2.9,4.1c1.2,0.8,2.7,1.6,3,1.6c0.1,0,0.2,0,0.2,0
					c0.2-0.1,5.7-2.4,5.7-5.7v-5C51.8,309.9,51.5,309.6,51.2,309.6z"/>
			</g>
		</g>
		<g>
			<g>
				<path id="_x38_tzxc" d="M46.2,317.4c-0.5-0.3-1-0.6-1.4-0.9c-1-0.7-1.2-1.2-1.3-1.3V312c0-0.3-0.3-0.6-0.6-0.6
					c-0.3,0-0.6,0.3-0.6,0.6c0,0,0,0,0,0v3.3c0,0.4,0.5,1.2,1.8,2.1c0.5,0.3,1,0.6,1.5,1c0.3,0.1,0.6,0,0.8-0.2
					C46.5,317.9,46.4,317.6,46.2,317.4C46.2,317.4,46.2,317.4,46.2,317.4"/>
			</g>
		</g>
		<g>
			<g>
				<g>
					<g>
						<path id="_x38_tzxe" d="M63.5,304.3l-2.3-5.2c-0.1-0.3-0.4-0.4-0.7-0.4c-0.3,0-0.5,0.2-0.5,0.5l-2.1,9.9l-1.7-4.4
							c-0.1-0.2-0.3-0.4-0.6-0.4h-1.8l-3-6.6c-0.1-0.3-0.5-0.5-0.8-0.3c-0.2,0.1-0.3,0.3-0.4,0.5l-1.3,6.5h-5.8
							c-0.8-1.5-1.2-3.2-1.2-4.9c0-3.9,3.4-7,7.6-7c2.2,0,4.4,0.9,5.9,2.6c0.2,0.3,0.7,0.3,1,0c1.5-1.7,3.6-2.6,5.9-2.6
							c4.2,0,7.6,3.2,7.6,7c0,1.6-0.5,3.3-1.3,4.9L63.5,304.3z M55.2,293.5c-1.7-1.6-4-2.5-6.3-2.5c-4.9,0-8.9,3.7-8.9,8.3
							c0,1.9,0.5,3.8,1.4,5.6c0.2,0.4,0.5,0.6,0.9,0.6h6.4c0.3,0,0.6-0.2,0.6-0.5l1.1-5.1l2.3,5.2c0.1,0.2,0.3,0.4,0.6,0.4h1.8
							l2.3,5.9c0.1,0.3,0.5,0.5,0.8,0.4c0.2-0.1,0.4-0.3,0.4-0.5l2.1-10l1.7,3.8c0.1,0.2,0.3,0.4,0.6,0.4h4
							c-3.5,5.9-10.6,11-12.3,12.1l-1-0.8c-0.3-0.2-0.7-0.2-0.9,0.1c0,0.1-0.1,0.1-0.1,0.2v0c-0.1,0.3,0,0.5,0.2,0.7
							c0.8,0.6,1.3,1,1.4,1.1c0.2,0.1,0.5,0.1,0.7,0c0.6-0.4,15.3-10.1,15.3-19.6c0-4.6-4-8.3-8.8-8.3
							C59.2,291,56.9,291.9,55.2,293.5L55.2,293.5z"/>
					</g>
				</g>
			</g>
		</g>
	</g>
</g>
</svg>
