<?xml version="1.0" encoding="utf-8"?>
<!-- Generator: Adobe Illustrator 20.1.0, SVG Export Plug-In . SVG Version: 6.00 Build 0)  -->
<svg version="1.1" id="Слой_1" xmlns="http://www.w3.org/2000/svg" xmlns:xlink="http://www.w3.org/1999/xlink" x="0px" y="0px"
	 width="27.1px" height="29.4px" viewBox="0 0 27.1 29.4" style="enable-background:new 0 0 27.1 29.4;" xml:space="preserve">
<g>
	<g transform="translate(-241 -231)">
		<g>
			<g>
				<path id="couqb" d="M261.6,259.1c-1.4-0.6-5.3-2.8-5.3-5.2v-5.1c1.3-0.3,2.3-1.3,2.6-2.6h5.5c0.3,1.3,1.3,2.3,2.6,2.6v5.1
					C266.9,256.2,263.3,258.4,261.6,259.1L261.6,259.1z M267.5,247.7c-1.1,0-2-0.9-2-2c0-0.3-0.3-0.6-0.6-0.6c0,0,0,0,0,0h-6.7
					c-0.3,0-0.6,0.3-0.6,0.6c0,1.1-0.9,2-2,2c-0.3,0-0.6,0.3-0.6,0.6c0,0,0,0,0,0v5.6c0,1.6,1.1,3.2,3.2,4.7c1.3,0.9,3,1.8,3.3,1.8
					c0.1,0,0.2,0,0.2,0c0.3-0.1,6.3-2.7,6.3-6.4v-5.6C268.1,248,267.9,247.7,267.5,247.7L267.5,247.7z"/>
			</g>
		</g>
		<g>
			<g>
				<path id="couqc" d="M261.9,256.2c-0.6-0.3-1.1-0.6-1.5-0.9c-1.1-0.8-1.3-1.3-1.4-1.4v-3.6c0-0.3-0.3-0.6-0.6-0.6
					c-0.3,0-0.6,0.3-0.6,0.6l0,0v3.6c0,0.5,0.5,1.3,1.9,2.3c0.5,0.4,1,0.7,1.6,1c0.3,0.2,0.7,0.1,0.8-0.2c0,0,0,0,0,0
					C262.3,256.7,262.2,256.4,261.9,256.2C261.9,256.2,261.9,256.2,261.9,256.2"/>
			</g>
		</g>
		<g>
			<g>
				<path id="couqd" d="M252.9,246.4h-1.4l-0.7-1.2c-0.2-0.3-0.6-0.4-0.8-0.2s-0.4,0.6-0.2,0.8l0,0l0.9,1.5c0.1,0.2,0.3,0.3,0.5,0.3
					h1.8c0.3,0,0.6-0.3,0.6-0.6C253.5,246.6,253.2,246.4,252.9,246.4"/>
			</g>
		</g>
		<g>
			<g>
				<g>
					<g>
						<path id="couqf" d="M245.2,240.6l2.2-6.1h11.8l2.2,6.1H245.2z M244.9,244.8c1,0,1.8,0.8,1.8,1.8v0h-4.4v-1.8H244.9z
							 M245.8,251.5v2.1c0,0.2-0.1,0.3-0.3,0.3h-3c-0.2,0-0.3-0.1-0.3-0.3c0,0,0,0,0,0v-2.1H245.8z M251.5,232.1h3.5l0.4,1h-4.3
							L251.5,232.1z M263.1,240.7c0.2-0.6,0.7-1.3,1.6-1.3c0.3,0,0.6-0.3,0.6-0.6c0-0.3-0.3-0.6-0.6-0.6l0,0c-1.1,0-1.9,0.6-2.4,1.3
							l-2.1-5.8c-0.1-0.2-0.3-0.4-0.6-0.4h-3l-0.7-1.9c-0.1-0.2-0.3-0.4-0.5-0.4h-4.2c-0.2,0-0.4,0.1-0.5,0.4l-0.7,1.9H247
							c-0.3,0-0.5,0.2-0.6,0.4l-2.1,5.8c-0.5-0.8-1.4-1.3-2.4-1.3c-0.3,0-0.6,0.3-0.6,0.6c0,0.3,0.3,0.6,0.6,0.6
							c0.9,0,1.4,0.7,1.6,1.3c-1.5,0.4-2.5,1.7-2.5,3.2v9.7c0,0.9,0.7,1.6,1.6,1.6h3c0.9,0,1.6-0.7,1.6-1.6v-2.1h5.8
							c0.3,0,0.6-0.3,0.6-0.6c0-0.3-0.3-0.6-0.6-0.6l0,0h-10.7v-2.4h5.1c0.3,0,0.6-0.3,0.6-0.6v-0.6c0-1.7-1.4-3-3-3h-2.6
							c0.1-1,1-1.8,2.1-1.8h18c0.9,0,1.7,0.6,2,1.4c0.1,0.3,0.5,0.5,0.8,0.4s0.5-0.5,0.4-0.8l0,0C265,241.7,264.2,240.9,263.1,240.7
							L263.1,240.7z"/>
					</g>
				</g>
			</g>
		</g>
	</g>
</g>
</svg>
