<?xml version="1.0" encoding="utf-8"?>
<!-- Generator: Adobe Illustrator 20.1.0, SVG Export Plug-In . SVG Version: 6.00 Build 0)  -->
<svg version="1.1" id="Слой_1" xmlns="http://www.w3.org/2000/svg" xmlns:xlink="http://www.w3.org/1999/xlink" x="0px" y="0px"
	 width="32.8px" height="29.4px" viewBox="0 0 32.8 29.4" style="enable-background:new 0 0 32.8 29.4;" xml:space="preserve">
<g>
	<g transform="translate(-722 -171)">
		<g>
			<g>
				<g>
					<g>
						<path id="gyg2d" d="M748.4,199.1c-1.3-0.6-5.2-2.7-5.2-5v-4.9c1.3-0.2,2.3-1.2,2.5-2.5h5.4c0.2,1.3,1.2,2.3,2.5,2.5v4.9
							C753.5,196.3,750,198.4,748.4,199.1L748.4,199.1z M754.2,188c-1.1,0-2-0.9-2-1.9c0-0.3-0.3-0.6-0.6-0.6h-6.5
							c-0.3,0-0.6,0.3-0.6,0.6c0,1.1-0.9,1.9-2,1.9c-0.3,0-0.6,0.3-0.6,0.6v5.5c0,1.6,1.1,3.1,3.1,4.6c1.3,0.9,3,1.7,3.2,1.7
							c0.1,0,0.2,0,0.2-0.1c0.2-0.1,6.1-2.6,6.2-6.2v-5.5C754.8,188.3,754.5,188,754.2,188L754.2,188z"/>
					</g>
				</g>
			</g>
		</g>
		<g>
			<g>
				<path id="gyg2e" d="M748.6,196.3c-0.5-0.3-1-0.6-1.5-0.9c-1-0.8-1.3-1.2-1.3-1.4v-3.5c0-0.3-0.3-0.6-0.6-0.6
					c-0.3,0-0.6,0.3-0.6,0.6l0,0v3.5c0,0.4,0.5,1.3,1.8,2.3c0.5,0.4,1,0.7,1.6,1c0.3,0.2,0.7,0.1,0.8-0.2c0,0,0,0,0,0
					C749,196.8,748.9,196.4,748.6,196.3"/>
			</g>
		</g>
		<g>
			<g>
				<g>
					<path id="gyg2g" d="M726.6,189.5h1.5v0.6h-1.5V189.5z M726,188.4c-0.3,0-0.5,0.2-0.5,0.6v1.7c0,0.3,0.2,0.6,0.5,0.6h2.6
						c0.3,0,0.5-0.2,0.5-0.6V189c0-0.3-0.2-0.6-0.5-0.6H726z"/>
				</g>
			</g>
		</g>
		<g>
			<g>
				<g>
					<path id="gyg2h" d="M724.8,197.4h1.5v0.6h-1.5V197.4z M723.4,183.2c-0.2,0-0.3-0.1-0.3-0.3v0v-2.6c0-0.2,0.1-0.3,0.3-0.3h1.2
						v3.3L723.4,183.2z M725.7,176.4h8.5v7.6h-5.3l-0.7-0.7c-0.1-0.1-0.2-0.2-0.4-0.2h-2.1L725.7,176.4z M725.7,172.1h0.6v3.3h-0.7
						L725.7,172.1z M730.6,173.8h9.1l1.5,1.5h-12.2L730.6,173.8z M744.7,176.4v6.8h-2.1c-0.1,0-0.1,0-0.2,0
						c-0.8-1.6-2.7-2.2-4.2-1.4c-0.9,0.4-1.5,1.3-1.7,2.3h-1.1v-7.6H744.7z M744,172.1h0.7v3.3H744L744,172.1z M741.5,184.1h-3.9
						c0.3-1.1,1.5-1.7,2.6-1.4C740.8,182.8,741.3,183.4,741.5,184.1L741.5,184.1z M745.7,179.9h1.2c0.2,0,0.3,0.1,0.3,0.3v2.6
						c0,0.2-0.1,0.3-0.3,0.3h-1.2V179.9z M730.9,186.9h8.5v5.9h-8.5V186.9z M740,196.3H724v-2.4h16c0.3,0,0.6-0.2,0.6-0.6v-7
						c0-0.3-0.2-0.6-0.5-0.6h-9.6c-0.3,0-0.5,0.2-0.5,0.6v6.4h-5V186h0.3c0.3,0,0.5-0.2,0.5-0.6v-1.2h1.8l0.7,0.7
						c0.1,0.1,0.2,0.2,0.4,0.2h13.1c0.2,0,0.3-0.1,0.4-0.2l0.4-0.4l0.3-0.3h4.1c0.8,0,1.4-0.6,1.4-1.4v-2.6c0-0.8-0.6-1.4-1.4-1.4
						h-1.2v-7.3c0-0.3-0.2-0.5-0.5-0.5h-1.8c-0.3,0-0.5,0.2-0.5,0.6v3.8h-0.1l-2.5-2.4c-0.1-0.1-0.2-0.2-0.4-0.2h-9.6
						c-0.1,0-0.3,0.1-0.4,0.2l-2.5,2.5h-0.1v-3.8c0-0.3-0.2-0.6-0.5-0.6h-1.8c-0.3,0-0.5,0.2-0.5,0.6v7.3h-1.2
						c-0.8,0-1.4,0.6-1.4,1.4v2.6c0,0.8,0.6,1.4,1.4,1.4h1.2v0.6h-0.3c-0.3,0-0.5,0.2-0.5,0.6v7.3h-0.3c-0.3,0-0.5,0.2-0.5,0.5v3.5
						c0,0.3,0.2,0.6,0.5,0.6h0.3v1.2c0,0.3,0.2,0.5,0.5,0.5h2.6c0.3,0,0.5-0.2,0.5-0.6v-1.2H740c0.3,0,0.5-0.3,0.5-0.6
						C740.5,196.5,740.3,196.3,740,196.3L740,196.3z"/>
				</g>
			</g>
		</g>
	</g>
</g>
</svg>
