<?xml version="1.0" encoding="utf-8"?>
<!-- Generator: Adobe Illustrator 20.1.0, SVG Export Plug-In . SVG Version: 6.00 Build 0)  -->
<svg version="1.1" id="Слой_1" xmlns="http://www.w3.org/2000/svg" xmlns:xlink="http://www.w3.org/1999/xlink" x="0px" y="0px"
	 width="24.6px" height="29.4px" viewBox="0 0 24.6 29.4" style="enable-background:new 0 0 24.6 29.4;" xml:space="preserve">
<g>
	<g transform="translate(-241 -291)">
		<g>
			<g>
				<g>
					<g>
						<path id="_x34_qy4c" d="M257.4,314.5l-1.6,2.3h-1.3l0-0.4c0-2.3-1.7-4.1-4-4.2c-2.3,0-4.1,1.7-4.2,4c0,0.2,0,0.4,0,0.6h-4.3
							V314h2.4c0.3,0,0.5-0.2,0.5-0.5c0-0.3-0.2-0.5-0.5-0.5l0,0h-2.4v-3.5h4c0.1,0,0.2,0,0.3-0.1l2.1-1.3l7.3,2.5l1.6,2
							L257.4,314.5z M247.4,316.4c0-1.7,1.3-3,3-3s3,1.3,3,3s-1.3,3-3,3S247.4,318,247.4,316.4z M243.4,302.5c0.8,0,1.2,0.7,1.2,0.7
							l0,0l3,4.1l-1.7,1h-3.8v-5.8L243.4,302.5z M256.5,309.7c-0.1-0.1-0.2-0.1-0.2-0.2l-7.5-2.5l-3.2-4.4c-0.5-0.7-1.3-1.1-2.1-1.2
							h-1.8c-0.3,0-0.5,0.2-0.5,0.5v15.4c0,0.3,0.2,0.5,0.5,0.5h5.1c0.8,2.1,3.2,3.1,5.3,2.3c1-0.4,1.9-1.2,2.3-2.3h1.8
							c0.2,0,0.3-0.1,0.4-0.2l1.9-2.6c0.1-0.1,0.1-0.2,0.1-0.3v-2.3c0-0.1,0-0.2-0.1-0.3L256.5,309.7z"/>
					</g>
				</g>
			</g>
		</g>
		<g>
			<g>
				<path id="_x34_qy4d" d="M263.5,316.6c-1,0-1.8-0.8-1.8-1.8v-1.4h0.8c0.3,0,0.5-0.2,0.5-0.5s-0.2-0.5-0.5-0.5h-0.8v-4.1h2.7v8.3
					H263.5z M264.4,297v10.2h-2.7v-8.5c0-1,0.8-1.8,1.8-1.8H264.4z M263.5,295.9c-1.6,0-2.9,1.3-2.9,2.8v16.1c0,1.6,1.3,2.8,2.9,2.8
					h1.5c0.3,0,0.6-0.2,0.6-0.5v-20.7c0-0.3-0.2-0.5-0.6-0.5H263.5z"/>
			</g>
		</g>
		<g>
			<g>
				<path id="_x34_qy4e" d="M257.8,302.2c-0.1-0.3-0.4-0.4-0.7-0.3c-0.3,0.1-0.4,0.4-0.3,0.6l1.1,2.8c0.1,0.2,0.3,0.3,0.5,0.3l0.2,0
					c0.3-0.1,0.4-0.4,0.3-0.6L257.8,302.2z"/>
			</g>
		</g>
		<g>
			<g>
				<path id="_x34_qy4f" d="M253.8,306.1l2.7,1.7c0.3,0.2,0.6,0.1,0.7-0.2c0.2-0.2,0.1-0.6-0.2-0.7c0,0,0,0,0,0l-2.8-1.7
					c-0.2-0.1-0.6-0.1-0.7,0.2C253.5,305.7,253.6,306,253.8,306.1C253.8,306.1,253.8,306.1,253.8,306.1"/>
			</g>
		</g>
		<g>
			<g>
				<path id="_x34_qy4g" d="M251.1,303.5c-1.2-0.5-4.6-2.5-4.6-4.6v-4.5c1.1-0.2,2-1.1,2.2-2.3h4.8c0.2,1.2,1.1,2.1,2.2,2.3v4.5
					C255.7,300.9,252.5,302.8,251.1,303.5L251.1,303.5z M256.3,293.3c-1,0-1.8-0.8-1.8-1.8c0-0.3-0.2-0.5-0.5-0.5h-5.8
					c-0.3,0-0.5,0.2-0.5,0.5c0,1-0.8,1.8-1.8,1.8c-0.3,0-0.5,0.2-0.5,0.5v5c0,1.4,0.9,2.8,2.8,4.2c1.1,0.8,2.6,1.6,2.9,1.6
					c0.1,0,0.1,0,0.2,0c0.2-0.1,5.5-2.4,5.5-5.7v-5C256.8,293.6,256.6,293.3,256.3,293.3L256.3,293.3z"/>
			</g>
		</g>
		<g>
			<g>
				<path id="_x34_qy4h" d="M251.6,300.4c-0.5-0.3-0.9-0.5-1.3-0.8c-0.9-0.7-1.1-1.1-1.2-1.2v-3c0-0.3-0.2-0.6-0.5-0.6
					c-0.3,0-0.6,0.2-0.6,0.5c0,0,0,0.1,0,0.1v3.1c0,0.4,0.4,1.1,1.6,2c0.4,0.3,0.9,0.6,1.4,0.9c0.2,0.1,0.6,0.1,0.7-0.2c0,0,0,0,0,0
					C252,300.8,251.9,300.5,251.6,300.4C251.6,300.4,251.6,300.4,251.6,300.4"/>
			</g>
		</g>
	</g>
</g>
</svg>
