<?xml version="1.0" encoding="utf-8"?>
<!-- Generator: Adobe Illustrator 20.1.0, SVG Export Plug-In . SVG Version: 6.00 Build 0)  -->
<svg version="1.1" id="Слой_1" xmlns="http://www.w3.org/2000/svg" xmlns:xlink="http://www.w3.org/1999/xlink" x="0px" y="0px"
	 width="29px" height="29.5px" viewBox="0 0 29 29.5" style="enable-background:new 0 0 29 29.5;" xml:space="preserve">
<g>
	<g transform="translate(-40 -231)">
		<g>
			<g>
				<path id="ydjmc" d="M40,248.9c0,0.3,0.2,0.6,0.6,0.6H50c0.3,0,0.6-0.2,0.6-0.5s-0.2-0.6-0.5-0.6c0,0-0.1,0-0.2,0h-9.5
					C40.3,248.3,40,248.6,40,248.9L40,248.9"/>
			</g>
		</g>
		<g>
			<g>
				<path id="ydjmd" d="M56.2,248.9v-1.2c0-0.3-0.2-0.6-0.5-0.6c-0.3,0-0.6,0.2-0.6,0.5c0,0,0,0.1,0,0.2v1.2c0,0.3,0.3,0.5,0.6,0.5
					C56,249.3,56.2,249.1,56.2,248.9"/>
			</g>
		</g>
		<g>
			<g>
				<path id="ydjme" d="M58.8,248.9v-1.2c0-0.3-0.2-0.6-0.5-0.6c-0.3,0-0.6,0.2-0.6,0.5c0,0,0,0.1,0,0.2v1.2c0,0.3,0.2,0.6,0.5,0.6
					c0.3,0,0.6-0.2,0.6-0.5C58.8,249,58.8,248.9,58.8,248.9"/>
			</g>
		</g>
		<g>
			<g>
				<path id="ydjmf" d="M61.3,248.9v-1.2c0-0.3-0.3-0.5-0.6-0.5c-0.3,0-0.5,0.2-0.5,0.5v1.2c0,0.3,0.3,0.5,0.6,0.5
					C61,249.3,61.2,249.1,61.3,248.9"/>
			</g>
		</g>
		<g>
			<g>
				<g>
					<g>
						<path id="ydjmh" d="M52.4,255.3c-0.9,0-1.7-0.7-1.7-1.6l1-1.8h8.5l1,1.8c-0.1,0.9-0.8,1.6-1.7,1.6H52.4z M66.6,238.1
							c-0.4-1.2-1-2.7-3.7-2.7h-9.2c-0.3,0-0.6,0.2-0.6,0.5s0.2,0.6,0.5,0.6c0,0,0.1,0,0.2,0h9.2c1.9,0,2.2,0.8,2.6,2
							c0,0.1,1.6,4.4,2.1,6h-8.2c-0.7,0-1.2-0.5-1.2-1.2v-3.4h4.6c0.3,0,0.5-0.3,0.5-0.6c0-0.3-0.2-0.5-0.5-0.5h-9.2
							c-0.3,0-0.5,0.3-0.5,0.6c0,0.3,0.2,0.5,0.5,0.5h3.5v1.9h-3.5c-0.3,0-0.5,0.3-0.5,0.6c0,0.3,0.2,0.5,0.5,0.5h3.5v0.4
							c0,1.3,1,2.3,2.3,2.3h8.4v2.6H66c-0.3,0-0.6,0.2-0.6,0.5s0.2,0.6,0.5,0.6c0,0,0.1,0,0.2,0h1.6l-1.2,3.6h-4.4l-1.1-1.9
							c-0.1-0.2-0.3-0.3-0.5-0.3h-9.1c-0.2,0-0.4,0.1-0.5,0.3l-1.1,1.9h-9.2c-0.3,0-0.6,0.3-0.6,0.6c0,0.3,0.3,0.6,0.6,0.6h9
							c0.3,1.3,1.4,2.3,2.8,2.3h7.1c1.4,0,2.5-1,2.8-2.3h4.6c0.2,0,0.5-0.1,0.5-0.4L69,249c0-0.1,0-0.1,0-0.2v-3.6
							c0-0.1,0-0.1,0-0.2L66.6,238.1L66.6,238.1z"/>
					</g>
				</g>
			</g>
		</g>
		<g>
			<g>
				<g>
					<g>
						<path id="ydjmj" d="M68.4,257.9H40.5c-0.3,0-0.5,0.2-0.5,0.5c0,0,0,0,0,0v1.5c0,0.3,0.2,0.6,0.5,0.6c0.3,0,0.6-0.2,0.6-0.6
							V259H44v0.8c0,0,0,0.1,0,0.1v0l0,0.1c0,0.1,0.1,0.2,0.2,0.2l0,0c0,0,0.1,0,0.1,0.1l0,0l0.1,0h0l0.1,0h0.1
							c0.3,0,0.5-0.3,0.5-0.6V259H48v0.9c0,0.3,0.3,0.5,0.6,0.5c0.3,0,0.5-0.2,0.5-0.5V259h2.8v0.9c0,0.3,0.3,0.5,0.6,0.5
							c0.3,0,0.5-0.2,0.5-0.5V259h2.8v0.9c0,0.3,0.2,0.6,0.5,0.6c0.3,0,0.6-0.2,0.6-0.5c0-0.1,0-0.1,0-0.2V259h2.8v0.9
							c0,0.3,0.3,0.5,0.6,0.5c0.3,0,0.5-0.2,0.5-0.5V259h2.8v0.9c0,0.3,0.3,0.5,0.6,0.5c0.3,0,0.5-0.2,0.5-0.5V259h2.8v0.9
							c0,0.3,0.3,0.5,0.6,0.5c0.3,0,0.5-0.2,0.5-0.5v-1.4C69,258.2,68.7,257.9,68.4,257.9L68.4,257.9"/>
					</g>
				</g>
			</g>
		</g>
		<g>
			<g>
				<path id="ydjmk" d="M41.1,234.4c1.1-0.2,2-1.1,2.3-2.3h4.9c0.2,1.1,1.1,2,2.3,2.3v4.5c0,2-3.2,3.9-4.7,4.6
					c-1.2-0.5-4.7-2.4-4.7-4.6V234.4z M45.8,244.5c0.1,0,0.1,0,0.2,0c0.2-0.1,5.6-2.4,5.6-5.7c0-2.3,0-4.9,0-5
					c0-0.3-0.2-0.6-0.5-0.6c-1,0-1.8-0.8-1.8-1.8c0-0.3-0.2-0.5-0.5-0.5h-5.9c-0.3,0-0.5,0.2-0.5,0.5c0,1-0.8,1.8-1.8,1.8
					c-0.3,0-0.5,0.2-0.5,0.6v5c0,1.4,1,2.8,2.9,4.1C44,243.8,45.5,244.5,45.8,244.5L45.8,244.5z"/>
			</g>
		</g>
		<g>
			<g>
				<path id="ydjml" d="M45.8,241.9c-0.1,0-0.2,0-0.2-0.1c-0.5-0.3-1-0.6-1.5-0.9c-1.2-0.9-1.7-1.6-1.7-2.1v-3.2
					c0-0.3,0.2-0.6,0.5-0.6s0.5,0.2,0.5,0.5v3.1c0,0.1,0.3,0.6,1.2,1.2c0.4,0.3,0.8,0.6,1.3,0.8c0.3,0.1,0.4,0.5,0.2,0.7
					C46.2,241.7,46,241.9,45.8,241.9"/>
			</g>
		</g>
	</g>
</g>
</svg>
