<?xml version="1.0" encoding="utf-8"?>
<!-- Generator: Adobe Illustrator 20.1.0, SVG Export Plug-In . SVG Version: 6.00 Build 0)  -->
<svg version="1.1" id="Слой_1" xmlns="http://www.w3.org/2000/svg" xmlns:xlink="http://www.w3.org/1999/xlink" x="0px" y="0px"
	 width="58.7px" height="50.2px" viewBox="0 0 58.7 50.2" style="enable-background:new 0 0 58.7 50.2;" xml:space="preserve">
<style type="text/css">
	.st0{stroke:#000000;stroke-miterlimit:50;}
</style>
<g>
	<g transform="rotate(-45 -3051.07 1768.8)">
		<g>
			<g>
				<path id="qqlba" d="M356.2,2687.3c-1,0-2,0.1-3,0.2c-13,1.7-23.5,13.6-21.5,27c1.5,10.5,11.2,19,22.1,17.3
					c8.3-1.3,15.1-9.1,13.5-17.8c-1.1-6.5-7.3-11.7-14-10.4c-4.9,1-8.8,5.7-7.7,10.8c0.8,3.5,4.3,6.4,8.1,5.4c1.2-0.3,2.3-1.1,3-2.1
					c0.8-1.1,1-2.5,0.6-3.7c-0.3-0.8-0.8-1.5-1.5-2c-0.8-0.5-1.7-0.6-2.6-0.3c-0.5,0.2-0.9,0.6-1.2,1.1c-0.3,0.5-0.3,1.2,0,1.8
					c0.2,0.3,0.4,0.5,0.7,0.7c0.3,0.1,0.9,0.2,1.2-0.1l-0.8-1c0,0,0.2,0,0.2-0.1c0,0-0.1-0.1-0.1-0.1c-0.1-0.2-0.1-0.3,0-0.5
					c0.1-0.2,0.3-0.4,0.5-0.5c0.5-0.2,1-0.1,1.4,0.2c0.4,0.3,0.8,0.8,1,1.3c0.3,0.9,0.1,1.8-0.4,2.6c-0.5,0.8-1.4,1.4-2.3,1.6
					c-3,0.8-5.8-1.6-6.5-4.4c-1-4.3,2.4-8.4,6.6-9.2c6-1.2,11.4,3.5,12.5,9.3c1.4,7.9-4.8,15-12.5,16.2
					c-10.1,1.6-19.1-6.4-20.6-16.2c-1.8-12.6,8.1-23.8,20.4-25.5c15.4-2.1,29,10.1,30.9,25.2c0.7,5.9-0.3,12-2.8,17.4l1.2,0.6
					c2.7-5.7,3.7-11.9,2.9-18.1C383.7,2699.1,371.1,2687,356.2,2687.3"/>
			</g>
			<g>
				<path id="qqlba_1_" class="st0" d="M356.2,2687.3c-1,0-2,0.1-3,0.2c-13,1.7-23.5,13.6-21.5,27c1.5,10.5,11.2,19,22.1,17.3
					c8.3-1.3,15.1-9.1,13.5-17.8c-1.1-6.5-7.3-11.7-14-10.4c-4.9,1-8.8,5.7-7.7,10.8c0.8,3.5,4.3,6.4,8.1,5.4c1.2-0.3,2.3-1.1,3-2.1
					c0.8-1.1,1-2.5,0.6-3.7c-0.3-0.8-0.8-1.5-1.5-2c-0.8-0.5-1.7-0.6-2.6-0.3c-0.5,0.2-0.9,0.6-1.2,1.1c-0.3,0.5-0.3,1.2,0,1.8
					c0.2,0.3,0.4,0.5,0.7,0.7c0.3,0.1,0.9,0.2,1.2-0.1l-0.8-1c0,0,0.2,0,0.2-0.1c0,0-0.1-0.1-0.1-0.1c-0.1-0.2-0.1-0.3,0-0.5
					c0.1-0.2,0.3-0.4,0.5-0.5c0.5-0.2,1-0.1,1.4,0.2c0.4,0.3,0.8,0.8,1,1.3c0.3,0.9,0.1,1.8-0.4,2.6c-0.5,0.8-1.4,1.4-2.3,1.6
					c-3,0.8-5.8-1.6-6.5-4.4c-1-4.3,2.4-8.4,6.6-9.2c6-1.2,11.4,3.5,12.5,9.3c1.4,7.9-4.8,15-12.5,16.2
					c-10.1,1.6-19.1-6.4-20.6-16.2c-1.8-12.6,8.1-23.8,20.4-25.5c15.4-2.1,29,10.1,30.9,25.2c0.7,5.9-0.3,12-2.8,17.4l1.2,0.6
					c2.7-5.7,3.7-11.9,2.9-18.1C383.7,2699.1,371.1,2687,356.2,2687.3"/>
			</g>
		</g>
	</g>
</g>
</svg>
