<?xml version="1.0" encoding="utf-8"?>
<!-- Generator: Adobe Illustrator 20.1.0, SVG Export Plug-In . SVG Version: 6.00 Build 0)  -->
<svg version="1.1" id="Слой_1" xmlns="http://www.w3.org/2000/svg" xmlns:xlink="http://www.w3.org/1999/xlink" x="0px" y="0px"
	 width="29.9px" height="29.9px" viewBox="0 0 29.9 29.9" style="enable-background:new 0 0 29.9 29.9;" xml:space="preserve">
<g>
	<g transform="translate(-467 -291)">
		<g>
			<g>
				<g>
					<g>
						<path id="_x34_9u6d" d="M484,307.9c1.4-0.3,2.5-1.4,2.8-2.8h6c0.3,1.4,1.4,2.5,2.8,2.8v5.5c0,2.5-4,4.8-5.8,5.6
							c-1.5-0.6-5.8-3-5.8-5.6V307.9z M489.8,320.3c0.1,0,0.2,0,0.3,0c0.3-0.1,6.8-2.9,6.9-6.9v-6.1c0-0.4-0.3-0.7-0.7-0.7
							c-1.2,0-2.2-1-2.2-2.2c0-0.4-0.3-0.7-0.7-0.7h-7.2c-0.4,0-0.7,0.3-0.7,0.7c0,1.2-1,2.2-2.2,2.2c-0.4,0-0.7,0.3-0.7,0.7v6.1
							c0,1.7,1.2,3.4,3.5,5.1C487.6,319.4,489.4,320.3,489.8,320.3L489.8,320.3z"/>
					</g>
				</g>
			</g>
		</g>
		<g>
			<g>
				<path id="_x34_9u6e" d="M489.2,317c-0.1,0-0.2,0-0.3-0.1c-0.6-0.4-1.2-0.7-1.6-1.1c-1.4-1.1-1.9-2-1.9-2.5v-3.9
					c0-0.4,0.3-0.7,0.6-0.7c0.3,0,0.6,0.3,0.6,0.7v3.9c0,0.1,0.3,0.7,1.4,1.5c0.5,0.4,1,0.7,1.5,1c0.3,0.2,0.4,0.6,0.2,0.9
					C489.6,316.8,489.4,317,489.2,317"/>
			</g>
		</g>
		<g>
			<g>
				<path id="_x34_9u6f" d="M475.1,320.9c-0.3,0-0.5-0.2-0.6-0.4l-1.8-4.6l-1,1.7c-0.1,0.2-0.4,0.3-0.6,0.3h-3.4
					c-0.4,0-0.7-0.3-0.7-0.7c0,0,0,0,0,0c0-0.4,0.3-0.7,0.7-0.7h3l1.5-2.6c0.2-0.3,0.6-0.4,1-0.2c0.1,0.1,0.2,0.2,0.3,0.3l1.8,4.6
					l1-1.8c0.1-0.2,0.4-0.3,0.6-0.3h3.4c0.4,0,0.7,0.3,0.7,0.7c0,0.4-0.3,0.7-0.7,0.7h-3l-1.5,2.6
					C475.6,320.7,475.3,320.9,475.1,320.9"/>
			</g>
		</g>
		<g>
			<g>
				<g>
					<g>
						<path id="_x34_9u6h" d="M479.2,312.4c-0.1,0-0.2,0-0.3-0.1c-0.6-0.4-3.8-2.3-6.8-5.2c-3.5-3.4-5.2-6.7-5.1-9.8
							c0.1-3.6,3-6.4,6.5-6.4c2,0,4.1,0.9,5.6,2.3c1.5-1.4,3.5-2.2,5.6-2.3c3.6,0,6.5,2.8,6.5,6.4c0,1.5-0.3,3-1,4.4
							c-0.2,0.3-0.6,0.5-0.9,0.3c-0.3-0.1-0.5-0.5-0.3-0.9c0,0,0,0,0,0c0.6-1.3,0.9-2.6,0.9-3.8c0-2.8-2.4-5.1-5.2-5.1
							c-1.9,0-3.9,0.9-5.1,2.3c-0.2,0.3-0.7,0.3-1,0.1c0,0,0,0-0.1-0.1c-1.3-1.4-3.2-2.3-5.1-2.3c-2.8,0-5.2,2.3-5.2,5.1
							c-0.2,6.5,8.9,12.4,10.8,13.6l0.5-0.3c0.3-0.2,0.7-0.1,0.9,0.2c0.2,0.3,0.1,0.7-0.2,0.9l-0.9,0.6
							C479.4,312.4,479.3,312.4,479.2,312.4"/>
					</g>
				</g>
			</g>
		</g>
	</g>
</g>
</svg>
