<svg xmlns="http://www.w3.org/2000/svg" viewBox="0 0 168.29 168.29"><title>Asset 8</title><g id="Layer_2" data-name="Layer 2"><g id="Layer_2-2" data-name="Layer 2"><path d="M84.14,0a84.15,84.15,0,1,0,84.15,84.14A84.24,84.24,0,0,0,84.14,0Zm0,160.29a76.15,76.15,0,1,1,76.15-76.15A76.23,76.23,0,0,1,84.14,160.29Z"/><path d="M128.55,121.54c-13-1.5-23.89-4.49-25.76-6.29-.36-.93-.27-4.25.43-7.94,7.2-5.35,10.53-19.07,10.67-19.66a165.43,165.43,0,0,0,2.45-16.71l.22-1.85a50,50,0,0,0,0-13.92C114.69,41.41,100.76,31,84.14,31S53.59,41.41,51.74,55.18a50,50,0,0,0,0,13.91l.21,1.85A168.26,168.26,0,0,0,54.4,87.65c.14.59,3.47,14.32,10.67,19.66.7,3.69.78,7,.43,7.94C63.63,117,52.7,120,39.74,121.54A4,4,0,0,0,37.06,123a4,4,0,0,0-.84,3,4,4,0,0,0,4,3.54,3.59,3.59,0,0,0,.47,0c6-.69,26.1-3.4,31-9.12,3.36-3.91,1.72-12.81.85-16.45a4,4,0,0,0-2.1-2.66c-3.1-1.55-6.76-9.24-8.24-15.44-1-4-1.72-10.81-2.29-15.78l-.21-1.86a42.09,42.09,0,0,1,0-11.93C61,46.42,71.51,39,84.14,39s23.16,7.4,24.48,17.22a42.1,42.1,0,0,1,0,11.93L108.4,70c-.57,4.94-1.34,11.72-2.29,15.76C104.63,92,101,99.7,97.87,101.25a4,4,0,0,0-2.11,2.66c-.86,3.64-2.5,12.54.86,16.45,4.92,5.72,25,8.43,31,9.12a4,4,0,0,0,4.44-3.51,4,4,0,0,0-3.52-4.43Z"/></g></g></svg>