<?xml version="1.0" encoding="utf-8"?>
<!-- Generator: Adobe Illustrator 20.1.0, SVG Export Plug-In . SVG Version: 6.00 Build 0)  -->
<svg version="1.1" id="Слой_1" xmlns="http://www.w3.org/2000/svg" xmlns:xlink="http://www.w3.org/1999/xlink" x="0px" y="0px"
	 width="20px" height="20px" viewBox="0 0 20 20" style="enable-background:new 0 0 20 20;" xml:space="preserve">
<path d="M16,20c-1.8,0-3.7-0.5-5.6-1.5c-1.8-0.9-3.6-2.2-5.1-3.8s-2.9-3.3-3.8-5.1C0.5,7.7,0,5.8,0,4c0-1.1,1.1-2.3,1.5-2.7
	C2.2,0.7,3.2,0,4,0c0.4,0,0.8,0.2,1.4,0.8c0.4,0.4,0.9,0.9,1.4,1.5c0.3,0.4,1.7,2.3,1.7,3.2c0,0.7-0.8,1.3-1.7,1.8
	C6.4,7.5,6.1,7.7,5.8,8C5.5,8.2,5.5,8.3,5.5,8.3c0.9,2.4,3.8,5.3,6.2,6.2c0,0,0.1-0.1,0.4-0.3c0.2-0.3,0.4-0.6,0.6-1
	c0.6-0.9,1.1-1.7,1.8-1.7c0.9,0,2.8,1.4,3.2,1.7c0.6,0.5,1.1,1,1.5,1.4c0.5,0.6,0.8,1,0.8,1.4c0,0.8-0.7,1.8-1.3,2.5
	C18.3,18.9,17.1,20,16,20L16,20z M4,1C3.7,1,3,1.3,2.2,2.1C1.5,2.7,1,3.5,1,4c0,6.7,8.3,15,15,15c0.5,0,1.3-0.5,1.9-1.2
	C18.7,17,19,16.3,19,16c0-0.2-0.6-0.9-2-2c-1.2-1-2.2-1.5-2.5-1.5c0,0-0.1,0-0.4,0.3c-0.2,0.3-0.4,0.6-0.6,0.9
	c-0.6,0.9-1.1,1.8-1.9,1.8c-0.1,0-0.2,0-0.4-0.1c-2.6-1.1-5.7-4.2-6.8-6.8C4.4,8.4,4.4,7.9,5,7.3C5.3,7,5.8,6.7,6.2,6.5
	C6.6,6.3,6.9,6,7.2,5.8c0.3-0.2,0.3-0.3,0.3-0.4C7.5,5.2,7,4.2,6,3C4.9,1.6,4.2,1,4,1L4,1z"/>
</svg>
