<?xml version="1.0" encoding="utf-8"?>
<!-- Generator: Adobe Illustrator 20.1.0, SVG Export Plug-In . SVG Version: 6.00 Build 0)  -->
<svg version="1.1" id="Слой_1" xmlns="http://www.w3.org/2000/svg" xmlns:xlink="http://www.w3.org/1999/xlink" x="0px" y="0px"
	 width="37px" height="40px" viewBox="0 0 37 40" style="enable-background:new 0 0 37 40;" xml:space="preserve">
<title>hand13</title>
<desc>Created with Sketch.</desc>
<g id="Page-1">
	<path id="hand13" d="M33,16c0.5,0,1.1,0.1,1.6,0.3s0.9,0.5,1.3,0.8s0.6,0.8,0.9,1.3s0.3,1,0.3,1.6c0,1.5-0.1,2.9-0.2,4.3
		s-0.3,2.7-0.5,3.9s-0.5,2.4-0.9,3.4s-0.8,2-1.2,2.9c-0.5,0.9-1,1.7-1.6,2.4s-1.2,1.3-1.9,1.7c-0.7,0.5-1.4,0.8-2.2,1.1
		S26.9,40,26,40H16c-0.1,0-0.4-0.1-1-0.2s-1.3-0.5-2.1-1.1c-0.5-0.4-1.1-0.8-1.6-1.4s-1.1-1.1-1.6-1.8s-1-1.4-1.5-2.2
		s-1-1.7-1.4-2.6c-1-2-1.8-3.7-2.5-5s-1.2-2.4-1.6-3.3S1.9,21,1.7,20.7s-0.3-0.6-0.3-0.6c-0.2-0.5-0.4-1-0.4-1.5c0-0.5,0-1,0.1-1.5
		s0.4-1,0.7-1.4s0.7-0.8,1.1-1c0.4-0.3,0.9-0.4,1.4-0.5s1,0,1.5,0.1c0.5,0.1,1,0.4,1.4,0.7s0.8,0.7,1,1.2l2.7,4.7V6
		c0-0.6,0.1-1.1,0.3-1.6s0.5-0.9,0.9-1.3s0.8-0.7,1.3-0.9S14.5,2,15,2c0.4,0,0.8,0.1,1.2,0.2c0.4,0.1,0.7,0.3,1,0.5
		c0.3-0.8,0.8-1.4,1.4-1.9S20.1,0,21,0c0.6,0,1.1,0.1,1.6,0.3s0.9,0.5,1.3,0.9s0.7,0.8,0.9,1.3S25,3.5,25,4v10.5
		c0.3-0.2,0.6-0.3,1-0.4c0.3-0.1,0.7-0.1,1.1-0.1c0.9,0,1.7,0.3,2.3,0.8s1.2,1.1,1.4,1.9c0.3-0.2,0.7-0.4,1-0.5S32.6,16,33,16z
		 M32.4,33.5c0.4-0.8,0.8-1.7,1.1-2.7s0.6-2,0.8-3.2s0.4-2.4,0.5-3.6S35,21.4,35,20c0-0.5-0.2-1-0.6-1.4S33.6,18,33,18
		c-0.6,0-1,0.2-1.4,0.6S31,19.5,31,20v1c0,0.3-0.1,0.5-0.3,0.7S30.3,22,30,22s-0.5-0.1-0.7-0.3S29,21.3,29,21v-3
		c0-0.5-0.2-1-0.6-1.4S27.6,16,27,16c-0.6,0-1,0.2-1.4,0.6S25,17.5,25,18v1c0,0.3-0.1,0.5-0.3,0.7S24.3,20,24,20s-0.5-0.1-0.7-0.3
		S23,19.3,23,19V4c0-0.5-0.2-1-0.6-1.4S21.6,2,21,2c-0.5,0-1,0.2-1.4,0.6S19,3.5,19,4v15c0,0.3-0.1,0.5-0.3,0.7S18.3,20,18,20
		s-0.5-0.1-0.7-0.3S17,19.3,17,19V6c0-0.6-0.2-1-0.6-1.4S15.6,4,15,4c-0.5,0-1,0.2-1.4,0.6S13,5.5,13,6v15.6c0,0.7-0.1,1.2-0.3,1.6
		s-0.5,0.6-0.9,0.7s-0.8,0-1.1-0.2s-0.7-0.7-1-1.2l-3.1-5.4h0v0c-0.1-0.2-0.3-0.4-0.5-0.6s-0.4-0.3-0.7-0.3c-0.2-0.1-0.5-0.1-0.7,0
		S4.2,16.2,4,16.3c-0.5,0.3-0.8,0.7-0.9,1.3c-0.1,0.6-0.1,1.1,0.1,1.6v0l0.3,0.5c0.2,0.4,0.5,0.9,0.9,1.8c0.4,0.8,1,1.9,1.6,3.3
		s1.5,3.1,2.5,5.1c0.5,1,1,1.9,1.5,2.7s1,1.5,1.4,2s0.9,1,1.3,1.4s0.8,0.7,1.1,0.9c0.6,0.5,1.2,0.8,1.5,0.9S16,38,16,38h10
		c0.8,0,1.6-0.1,2.2-0.4s1.3-0.6,1.8-1.1s1-0.9,1.4-1.4S32.1,34,32.4,33.5z M35.7,4.3C35.9,4.5,36,4.7,36,5s-0.1,0.5-0.3,0.7l-4,4
		c-0.1,0.1-0.2,0.2-0.3,0.2S31.1,10,31,10c-0.1,0-0.2,0-0.4-0.1s-0.2-0.1-0.3-0.2C30.1,9.5,30,9.3,30,9s0.1-0.5,0.3-0.7L32.6,6H28
		c-0.3,0-0.5-0.1-0.7-0.3S27,5.3,27,5c0-0.3,0.1-0.5,0.3-0.7S27.7,4,28,4h4.6l-2.3-2.3C30.1,1.5,30,1.3,30,1s0.1-0.5,0.3-0.7
		S30.7,0,31,0s0.5,0.1,0.7,0.3L35.7,4.3z M8,4c0.3,0,0.5,0.1,0.7,0.3S9,4.7,9,5c0,0.3-0.1,0.5-0.3,0.7S8.3,6,8,6H3.4l2.3,2.3
		C5.9,8.5,6,8.7,6,9S5.9,9.5,5.7,9.7C5.6,9.8,5.5,9.9,5.4,9.9S5.1,10,5,10s-0.3,0-0.4-0.1S4.4,9.8,4.3,9.7l-4-4C0.1,5.5,0,5.3,0,5
		s0.1-0.5,0.3-0.7l4-4C4.5,0.1,4.7,0,5,0s0.5,0.1,0.7,0.3S6,0.7,6,1S5.9,1.5,5.7,1.7L3.4,4H8z"/>
</g>
</svg>
