<?xml version="1.0" encoding="utf-8"?>
<!-- Generator: Adobe Illustrator 20.1.0, SVG Export Plug-In . SVG Version: 6.00 Build 0)  -->
<svg version="1.1" id="Слой_1" xmlns="http://www.w3.org/2000/svg" xmlns:xlink="http://www.w3.org/1999/xlink" x="0px" y="0px"
	 width="1040px" height="1040px" viewBox="0 0 1040 1040" enable-background="new 0 0 1040 1040" xml:space="preserve">
<g>
	<path d="M498,0c14.7,0,29.3,0,44,0c2.1,0.3,4.3,0.7,6.4,0.8c38.4,1.9,76.2,7.9,113.1,18.7c135,39.6,238.2,120.5,309.5,241.6
		c37.2,63.3,58.8,132,66.2,205.1c1.1,10.6,1.9,21.2,2.9,31.8c0,14.7,0,29.3,0,44c-0.3,2.1-0.7,4.2-0.8,6.4
		c-2,38.6-8,76.5-18.9,113.5c-39.6,134.7-120.3,237.6-241,308.8c-63.4,37.4-132.2,59-205.5,66.5c-10.6,1.1-21.2,1.9-31.8,2.9
		c-14.7,0-29.3,0-44,0c-2.1-0.3-4.3-0.7-6.4-0.8c-38.6-2-76.5-8-113.5-18.9C243.4,980.7,140.5,900,69.3,779.3
		C31.9,715.9,10.3,647,2.9,573.8C1.8,563.2,0.9,552.6,0,542c0-14.7,0-29.3,0-44c0.3-2.1,0.7-4.2,0.8-6.4c2-38.6,8-76.5,18.9-113.5
		C59.3,243.4,140,140.5,260.7,69.3C324.1,32,393,10.3,466.2,2.9C476.8,1.8,487.4,0.9,498,0z M519.9,1000
		c264.9,0.1,480-214.9,480.1-480c0.1-264.6-214.7-479.7-479.6-480C255.6,39.6,40.1,254.8,40,519.7
		C39.9,784.8,254.8,999.9,519.9,1000z"/>
	<path d="M409.1,719.9c0-133.6,0-266.1,0-399.7c96.4,66.8,192.3,133.1,288.7,199.9C601.4,586.7,505.6,653,409.1,719.9z"/>
</g>
</svg>
