<svg xmlns="http://www.w3.org/2000/svg" viewBox="0 0 168.29 168.29"><title>Asset 9</title><g id="Layer_2" data-name="Layer 2"><g id="Layer_2-2" data-name="Layer 2"><path d="M84.14,0a84.15,84.15,0,1,0,84.15,84.14A84.24,84.24,0,0,0,84.14,0Zm0,160.29a76.15,76.15,0,1,1,76.15-76.15A76.23,76.23,0,0,1,84.14,160.29Z"/><path d="M128.55,121.54c-13.32-1.54-24.32-4.6-25.86-6.39-.52-.61-1.08-2.65-1.39-5.05l17.86-6.7a4,4,0,0,0,2.44-4.84c-.21-.73-5-17.91-5-35.1a33.36,33.36,0,0,0-8.43-21.71A31.55,31.55,0,0,0,84.14,31c-20,0-32.43,16.84-32.43,32.44,0,17.1-4.82,34.37-5,35.1a4,4,0,0,0,2.44,4.84L67,110.1c-.31,2.4-.87,4.44-1.39,5-1.54,1.79-12.54,4.86-25.86,6.4a4,4,0,1,0,.91,7.94c6-.69,26.1-3.4,31-9.12,3.16-3.68,3.51-11.35,3.55-12.85a4,4,0,0,0-2.6-3.84l-17.31-6.5c1.41-5.77,4.4-19.71,4.4-33.71C59.71,53.61,67.47,39,84.14,39c9.86,0,24.44,7.77,24.44,24.44,0,14,3,27.94,4.4,33.71l-17.31,6.5a4,4,0,0,0-2.6,3.84c0,1.5.39,9.17,3.55,12.85,4.92,5.72,25,8.43,31,9.12l.47,0a4,4,0,0,0,.45-8Z"/></g></g></svg>