<svg xmlns="http://www.w3.org/2000/svg" viewBox="0 0 367 177"><linearGradient id="a" gradientUnits="userSpaceOnUse" x1="46.141" y1="57.664" x2="361.516" y2="57.664"><stop offset="0" stop-color="#ff9639"/><stop offset="1" stop-color="#f2af28"/></linearGradient><path fill="url(#a)" d="M46.1 37.9L196.3 83h165.2L46.1 32.4z"/><linearGradient id="b" gradientUnits="userSpaceOnUse" x1="53.695" y1="105.196" x2="318.761" y2="205.996"><stop offset="0" stop-color="#f6f6f6"/><stop offset=".297" stop-color="#b9babe"/><stop offset=".787" stop-color="#f9f9f9"/><stop offset="1" stop-color="#b9babe"/></linearGradient><path d="M65.2 95.4l-4.1-.7v-3.3h17v3.3l-5.1.7v31.7l12.8-.5 3.4-9.9 4.3.6-1.7 13.7H61v-3.2l4.2-.5V95.4z" fill="url(#b)"/><linearGradient id="c" gradientUnits="userSpaceOnUse" x1="59.149" y1="90.856" x2="324.215" y2="191.655"><stop offset="0" stop-color="#f6f6f6"/><stop offset=".297" stop-color="#b9babe"/><stop offset=".787" stop-color="#f9f9f9"/><stop offset="1" stop-color="#b9babe"/></linearGradient><path d="M102.7 95.4l-4.3-.7v-3.3h28.3l.7 8.9h-3.7l-1.8-5.3-11.5-.5V109l9.2-.3.8-4.4h3.4v12.9h-3.4l-.8-4.6h-9.2v15l12.9-.6 3.1-6.8 4 1.1-1.4 9.7H98.5v-3.2l4.2-.5V95.4z" fill="url(#c)"/><linearGradient id="d" gradientUnits="userSpaceOnUse" x1="65.27" y1="74.76" x2="330.336" y2="175.559"><stop offset="0" stop-color="#f6f6f6"/><stop offset=".297" stop-color="#b9babe"/><stop offset=".787" stop-color="#f9f9f9"/><stop offset="1" stop-color="#b9babe"/></linearGradient><path d="M134 91.5h16.2v3.3l-4.5.7 7.9 23.8 1.5 5.4 1.3-5.4 7.4-23.8-4.2-.7v-3.3h12.9v3.3l-3.4.7-12.1 35.8h-6.3l-13.4-35.9-3.2-.7v-3.2z" fill="url(#d)"/><linearGradient id="e" gradientUnits="userSpaceOnUse" x1="68.278" y1="66.849" x2="333.344" y2="167.649"><stop offset="0" stop-color="#f6f6f6"/><stop offset=".297" stop-color="#b9babe"/><stop offset=".787" stop-color="#f9f9f9"/><stop offset="1" stop-color="#b9babe"/></linearGradient><path d="M180.9 95.4l-4.5-.7v-3.3h17v3.3l-4.7.7v31.8l4.7.6v3.1h-17v-3.2l4.5-.5V95.4z" fill="url(#e)"/><linearGradient id="f" gradientUnits="userSpaceOnUse" x1="72.743" y1="55.109" x2="337.808" y2="155.909"><stop offset="0" stop-color="#f6f6f6"/><stop offset=".297" stop-color="#b9babe"/><stop offset=".787" stop-color="#f9f9f9"/><stop offset="1" stop-color="#b9babe"/></linearGradient><path d="M203.4 95.4l-4.6-.7v-3.3h13.1l17.2 23.9 3.2 6.1v-26l-5-.7v-3.3h14.3v3.3l-4.4.7V131h-7l-18-25.1-4-7v28.4l5.8.5v3.2h-15.3v-3.2l4.6-.5V95.4z" fill="url(#f)"/><linearGradient id="g" gradientUnits="userSpaceOnUse" x1="77.935" y1="41.455" x2="343.001" y2="142.255"><stop offset="0" stop-color="#f6f6f6"/><stop offset=".297" stop-color="#b9babe"/><stop offset=".787" stop-color="#f9f9f9"/><stop offset="1" stop-color="#b9babe"/></linearGradient><path d="M255.9 131c-1.5-.3-3.2-.7-5.1-1.3-1.2-.4-2.1-.5-2.5-.6l.5-9.8h4.3l1.2 6.9c.5.5 1.3.9 2.5 1.3s2.5.6 4.1.6c2.4 0 4.2-.5 5.3-1.6 1.2-1 1.8-2.5 1.8-4.4 0-1.2-.4-2.3-1.1-3.2-.7-.9-1.7-1.7-2.9-2.4s-2.9-1.6-5.1-2.5c-2.9-1.3-5.4-3-7.3-4.8-1.9-1.9-2.9-4.4-2.9-7.6 0-2 .5-3.8 1.5-5.4 1-1.6 2.6-2.9 4.6-3.8 2-.9 4.5-1.4 7.5-1.4 1.7 0 3.3.1 4.6.4 1.3.2 2.8.6 4.3 1 .9.2 1.6.4 2.1.5l-.3 9.3h-4.3l-1.1-6.5c-.3-.3-1-.6-1.9-.9-1-.3-2-.5-3.2-.5-2.1 0-3.7.5-4.8 1.5-1.1 1-1.6 2.3-1.6 3.9 0 1.3.4 2.4 1.2 3.4.8 1 1.8 1.8 2.9 2.4 1.1.7 2.9 1.6 5.4 2.8 2 1 3.7 1.9 5.1 2.8 1.4.9 2.6 2.1 3.7 3.6 1 1.5 1.5 3.2 1.5 5.2s-.5 3.8-1.5 5.6c-1 1.8-2.6 3.2-4.8 4.4-2.2 1.2-5 1.8-8.5 1.8-2-.2-3.7-.4-5.2-.7z" fill="url(#g)"/><linearGradient id="h" gradientUnits="userSpaceOnUse" x1="82.786" y1="28.698" x2="347.852" y2="129.498"><stop offset="0" stop-color="#f6f6f6"/><stop offset=".297" stop-color="#b9babe"/><stop offset=".787" stop-color="#f9f9f9"/><stop offset="1" stop-color="#b9babe"/></linearGradient><path d="M284.6 126.1c-3.3-3.6-4.9-8.5-4.9-14.8 0-4.1.9-7.7 2.6-10.7 1.7-3.1 4.1-5.5 7.2-7.1 3.1-1.7 6.7-2.5 10.7-2.5 6.7 0 11.7 1.7 15 5.2 3.3 3.5 5 8.3 5 14.5 0 4.1-.9 7.8-2.6 10.9-1.8 3.2-4.2 5.6-7.4 7.4-3.1 1.7-6.8 2.6-10.8 2.6-6.6-.1-11.6-1.9-14.8-5.5zm7.6-27.6c-1.9 2.9-2.8 7.1-2.8 12.8 0 5.6.9 9.8 2.7 12.7 1.8 2.9 4.4 4.3 7.7 4.3s5.8-1.5 7.7-4.5c1.9-3 2.8-7.4 2.8-13.1 0-5.5-.9-9.6-2.7-12.4s-4.3-4.1-7.7-4.1c-3.3 0-5.9 1.5-7.7 4.3z" fill="url(#h)"/><linearGradient id="i" gradientUnits="userSpaceOnUse" x1="88.792" y1="12.905" x2="353.858" y2="113.704"><stop offset="0" stop-color="#f6f6f6"/><stop offset=".297" stop-color="#b9babe"/><stop offset=".787" stop-color="#f9f9f9"/><stop offset="1" stop-color="#b9babe"/></linearGradient><path d="M331.8 95.4l-4.2-.7v-3.3h12.1l15.8 23.9 3 6.1v-26l-4.6-.7v-3.3h13.2v3.3l-4.1.7V131h-6.4L340 105.8l-3.7-7v28.4l5.4.5v3.2h-14.1v-3.2l4.2-.5V95.4z" fill="url(#i)"/><linearGradient id="j" gradientUnits="userSpaceOnUse" x1="49.689" y1="115.731" x2="314.755" y2="216.531"><stop offset="0" stop-color="#f6f6f6"/><stop offset=".297" stop-color="#b9babe"/><stop offset=".787" stop-color="#f9f9f9"/><stop offset="1" stop-color="#b9babe"/></linearGradient><path d="M134.3 142.1l-1.7-.3v-1.4h7.1v1.4l-2.1.3v13.2l4.7-.2 1.4-4.1 1.8.2-.7 5.7h-12.2v-1.3l1.7-.2v-13.3z" fill="url(#j)"/><linearGradient id="k" gradientUnits="userSpaceOnUse" x1="51.965" y1="109.747" x2="317.031" y2="210.547"><stop offset="0" stop-color="#f6f6f6"/><stop offset=".297" stop-color="#b9babe"/><stop offset=".787" stop-color="#f9f9f9"/><stop offset="1" stop-color="#b9babe"/></linearGradient><path d="M155.6 140.3h3.4l5.1 15 1.3.2v1.3h-6.5v-1.3l1.7-.2-.9-2.9H154l-.9 2.9 1.8.2v1.3h-5.6v-1.3l1.3-.2 5-15zm1.5 3.7l-.4-1.7-.4 1.7-2 6.8h4.9l-2.1-6.8z" fill="url(#k)"/><linearGradient id="l" gradientUnits="userSpaceOnUse" x1="55.581" y1="100.237" x2="320.647" y2="201.037"><stop offset="0" stop-color="#f6f6f6"/><stop offset=".297" stop-color="#b9babe"/><stop offset=".787" stop-color="#f9f9f9"/><stop offset="1" stop-color="#b9babe"/></linearGradient><path d="M168.3 140.4h6.6v1.4l-1.9.3 2.8 10 .5 2.5.5-2.5 2.4-8.1-.6-1.9-1.5-.3v-1.4h6.9v1.4l-2.1.3 2.8 10 .6 2.7.5-2.7 2.5-10-2-.3v-1.4h5.3v1.4l-1.4.3L186 157h-2.9l-3-10.3-2.9 10.3h-2.9l-4.6-14.8-1.3-.3v-1.5z" fill="url(#l)"/><linearGradient id="m" gradientUnits="userSpaceOnUse" x1="59.485" y1="89.972" x2="324.551" y2="190.771"><stop offset="0" stop-color="#f6f6f6"/><stop offset=".297" stop-color="#b9babe"/><stop offset=".787" stop-color="#f9f9f9"/><stop offset="1" stop-color="#b9babe"/></linearGradient><path d="M208.2 156c-1.2-.7-2.1-1.7-2.7-3-.6-1.3-.9-2.7-.9-4.2 0-1.8.3-3.4 1-4.7.7-1.3 1.7-2.3 3-2.9 1.3-.7 2.8-1 4.5-1 1.6 0 3.4.2 5.4.7l-.2 4.1h-2.2l-.6-2.8c-.1-.1-.4-.3-.8-.4-.4-.1-1-.2-1.6-.2-1.4 0-2.6.6-3.4 1.8s-1.2 2.9-1.2 5.1c0 2.2.4 3.9 1.1 5.2.7 1.3 1.8 2 3.2 2 .6 0 1.1-.1 1.7-.2s.9-.3 1.2-.6v-4.8l-2.3-.2v-1.5h6.7v1.5l-1.2.2v5.9c-.3 0-.9.1-1.7.4-.9.3-1.7.4-2.4.6-.7.1-1.4.2-2.2.2-1.8-.1-3.2-.5-4.4-1.2z" fill="url(#m)"/><linearGradient id="n" gradientUnits="userSpaceOnUse" x1="61.405" y1="84.923" x2="326.471" y2="185.723"><stop offset="0" stop-color="#f6f6f6"/><stop offset=".297" stop-color="#b9babe"/><stop offset=".787" stop-color="#f9f9f9"/><stop offset="1" stop-color="#b9babe"/></linearGradient><path d="M223.5 155.5l1.9-.2v-13.2l-1.8-.3v-1.3h5.3c.8-.1 1.5-.1 2.1-.1 1.7 0 3 .2 4 .5s1.7.8 2.2 1.4c.4.6.7 1.5.7 2.5s-.3 2-.9 2.8c-.6.9-1.5 1.5-2.6 1.8.6.3 1.2.7 1.7 1.4s1 1.5 1.6 2.6c.4.7.7 1.2.9 1.6.2.3.4.5.6.5l.8.2v1.3h-4c-.3 0-.5-.2-.8-.7-.3-.5-.6-1.2-1.1-2.3-.5-1.2-1-2.1-1.4-2.8-.4-.7-.8-1.1-1.2-1.3H229v5.5l2.2.2v1.3h-7.7v-1.4zm9.8-8c.5-.6.8-1.5.8-2.7 0-1.1-.3-1.9-.8-2.4s-1.4-.8-2.6-.8c-.4 0-.8 0-1.1.1-.3 0-.5.1-.6.1v6.6h2.2c.9 0 1.6-.3 2.1-.9z" fill="url(#n)"/><linearGradient id="o" gradientUnits="userSpaceOnUse" x1="64.207" y1="77.556" x2="329.272" y2="178.356"><stop offset="0" stop-color="#f6f6f6"/><stop offset=".297" stop-color="#b9babe"/><stop offset=".787" stop-color="#f9f9f9"/><stop offset="1" stop-color="#b9babe"/></linearGradient><path d="M245.1 154.8c-1.3-1.5-1.9-3.6-1.9-6.1 0-1.7.3-3.2 1-4.5.7-1.3 1.6-2.3 2.9-3 1.2-.7 2.6-1 4.2-1 2.6 0 4.6.7 5.9 2.2 1.3 1.4 2 3.4 2 6 0 1.7-.3 3.2-1 4.5-.7 1.3-1.7 2.3-2.9 3.1-1.2.7-2.7 1.1-4.3 1.1-2.7 0-4.7-.8-5.9-2.3zm3-11.5c-.7 1.2-1.1 3-1.1 5.3s.4 4.1 1.1 5.3c.7 1.2 1.7 1.8 3.1 1.8 1.3 0 2.3-.6 3-1.9s1.1-3.1 1.1-5.4c0-2.3-.4-4-1.1-5.1-.7-1.1-1.7-1.7-3-1.7-1.4 0-2.4.5-3.1 1.7z" fill="url(#o)"/><linearGradient id="p" gradientUnits="userSpaceOnUse" x1="67.19" y1="69.711" x2="332.256" y2="170.51"><stop offset="0" stop-color="#f6f6f6"/><stop offset=".297" stop-color="#b9babe"/><stop offset=".787" stop-color="#f9f9f9"/><stop offset="1" stop-color="#b9babe"/></linearGradient><path d="M267 155.3c-1.1-1.1-1.6-2.9-1.6-5.3v-8l-1.5-.3v-1.4h6.7v1.4l-1.9.3v8.2c0 3.5 1.2 5.3 3.7 5.3 1.2 0 2.1-.5 2.7-1.4.6-.9.9-2.2.9-3.8V142l-1.9-.3v-1.4h5.5v1.4l-1.5.3v8.2c0 2.3-.6 4-1.7 5.1-1.1 1.1-2.6 1.7-4.5 1.7-2.2 0-3.8-.6-4.9-1.7z" fill="url(#p)"/><linearGradient id="q" gradientUnits="userSpaceOnUse" x1="69.043" y1="64.838" x2="334.109" y2="165.637"><stop offset="0" stop-color="#f6f6f6"/><stop offset=".297" stop-color="#b9babe"/><stop offset=".787" stop-color="#f9f9f9"/><stop offset="1" stop-color="#b9babe"/></linearGradient><path d="M286.2 142.1l-1.7-.3v-1.4h4.7c.9-.1 1.6-.1 2.3-.1 1.5 0 2.7.2 3.6.6.9.4 1.5.9 1.9 1.6.4.7.6 1.6.6 2.7 0 1.9-.6 3.3-1.7 4.3-1.2 1-2.8 1.5-4.8 1.5-.8 0-1.4 0-1.7-.1v4.4l3 .2v1.3h-8v-1.3l1.7-.2v-13.2zm5 7.5c1 0 1.8-.3 2.4-1 .6-.7.9-1.8.9-3.4 0-1.2-.3-2.1-.8-2.7-.5-.6-1.4-.8-2.5-.8-.4 0-.8 0-1.3.1h-.4v7.8h1.7z" fill="url(#q)"/><linearGradient id="r" gradientUnits="userSpaceOnUse" x1="34.009" y1="156.965" x2="299.074" y2="257.765"><stop offset="0" stop-color="#f6f6f6"/><stop offset=".297" stop-color="#b9babe"/><stop offset=".787" stop-color="#f9f9f9"/><stop offset="1" stop-color="#b9babe"/></linearGradient><path d="M70.1 164.2h3l3.7 11.1.9.2v1.1h-5.2v-1.1l1.2-.2-.6-2h-4l-.6 2 1.3.1v1.1h-4.4v-1.1l1-.2 3.7-11zm1.3 2.9l-.2-1.2-.3 1.2-1.3 4.9h3.3l-1.5-4.9z" fill="url(#r)"/><linearGradient id="s" gradientUnits="userSpaceOnUse" x1="36.674" y1="149.957" x2="301.739" y2="250.757"><stop offset="0" stop-color="#f6f6f6"/><stop offset=".297" stop-color="#b9babe"/><stop offset=".787" stop-color="#f9f9f9"/><stop offset="1" stop-color="#b9babe"/></linearGradient><path d="M85.4 175.1c-1-1.1-1.5-2.6-1.5-4.6 0-1.3.3-2.4.8-3.4s1.3-1.7 2.2-2.2c.9-.5 2-.8 3.1-.8.5 0 .9 0 1.3.1.4 0 1 .1 1.6.2.5.1.8.1 1 .1l-.2 3.7h-1.8l-.6-2.5c-.2-.3-.8-.4-1.5-.4-.9 0-1.5.4-2 1.3-.5.8-.7 2.1-.7 3.7s.2 2.9.7 3.8c.5 1 1.2 1.4 2.1 1.4.5 0 .8 0 1-.1.2-.1.4-.2.6-.4l.7-1.8 1.6.2-.3 2.7c-.3 0-.7.1-1.2.2-.4.1-.9.2-1.3.3-.4.1-.9.1-1.4.1-1.8.1-3.2-.5-4.2-1.6z" fill="url(#s)"/><linearGradient id="t" gradientUnits="userSpaceOnUse" x1="38.807" y1="144.346" x2="303.873" y2="245.146"><stop offset="0" stop-color="#f6f6f6"/><stop offset=".297" stop-color="#b9babe"/><stop offset=".787" stop-color="#f9f9f9"/><stop offset="1" stop-color="#b9babe"/></linearGradient><path d="M102.3 175.1c-1-1.1-1.5-2.6-1.5-4.6 0-1.3.3-2.4.8-3.4s1.3-1.7 2.2-2.2c.9-.5 2-.8 3.1-.8.5 0 .9 0 1.3.1.4 0 1 .1 1.6.2.5.1.8.1 1 .1l-.2 3.7h-1.8l-.6-2.5c-.2-.3-.8-.4-1.5-.4-.9 0-1.5.4-2 1.3-.5.8-.7 2.1-.7 3.7s.2 2.9.7 3.8c.5 1 1.2 1.4 2.1 1.4.5 0 .8 0 1-.1.2-.1.4-.2.6-.4l.7-1.8 1.6.2-.3 2.7c-.3 0-.7.1-1.2.2-.4.1-.9.2-1.3.3-.4.1-.9.1-1.4.1-1.8.1-3.3-.5-4.2-1.6z" fill="url(#t)"/><linearGradient id="u" gradientUnits="userSpaceOnUse" x1="40.489" y1="139.923" x2="305.555" y2="240.723"><stop offset="0" stop-color="#f6f6f6"/><stop offset=".297" stop-color="#b9babe"/><stop offset=".787" stop-color="#f9f9f9"/><stop offset="1" stop-color="#b9babe"/></linearGradient><path d="M119.2 165.7l-1.4-.2v-1.2h5.6v1.2l-1.4.2v9.7l1.4.2v1.1h-5.6v-1.1l1.3-.2v-9.7z" fill="url(#u)"/><linearGradient id="v" gradientUnits="userSpaceOnUse" x1="42.22" y1="135.372" x2="307.286" y2="236.172"><stop offset="0" stop-color="#f6f6f6"/><stop offset=".297" stop-color="#b9babe"/><stop offset=".787" stop-color="#f9f9f9"/><stop offset="1" stop-color="#b9babe"/></linearGradient><path d="M131.9 165.7l-1.2-.2v-1.2h2.6c.4 0 .9 0 1.5-.1h1.5c2 0 3.5.5 4.5 1.5s1.5 2.4 1.5 4.3c0 1.3-.2 2.4-.7 3.5-.5 1-1.2 1.8-2.1 2.4-.9.6-2 .9-3.3.9-.3 0-.9 0-1.5-.1-.6 0-1.1-.1-1.2-.1h-2.7v-1.1l1.3-.2v-9.6zm4.1 9.8c1 0 1.8-.4 2.3-1.3.5-.8.8-2.1.8-3.8 0-1.6-.3-2.8-.8-3.7s-1.4-1.4-2.5-1.4c-.3 0-.5 0-.7.1-.2 0-.3.1-.4.1v9.9c.4.1.8.1 1.3.1z" fill="url(#v)"/><linearGradient id="w" gradientUnits="userSpaceOnUse" x1="44.66" y1="128.955" x2="309.726" y2="229.754"><stop offset="0" stop-color="#f6f6f6"/><stop offset=".297" stop-color="#b9babe"/><stop offset=".787" stop-color="#f9f9f9"/><stop offset="1" stop-color="#b9babe"/></linearGradient><path d="M150.4 165.7l-1.3-.2v-1.2h9.1l.2 2.9h-1.3l-.6-1.7-3.3-.2v4.3h2l.3-1.4h1.1v4.2h-1.1l-.3-1.4h-2v4.5l3.6-.2 1-2.1 1.4.4-.4 3.1H149v-1.1l1.3-.2v-9.7z" fill="url(#w)"/><linearGradient id="x" gradientUnits="userSpaceOnUse" x1="47.004" y1="122.793" x2="312.069" y2="223.593"><stop offset="0" stop-color="#f6f6f6"/><stop offset=".297" stop-color="#b9babe"/><stop offset=".787" stop-color="#f9f9f9"/><stop offset="1" stop-color="#b9babe"/></linearGradient><path d="M167.3 165.6l-1.3-.2v-1.2h4.2l4.6 7.1.9 2v-7.7l-1.4-.2v-1.2h4.2v1.2l-1.3.2v10.9h-2.4l-4.9-7.6-1.1-2.2v8.5l1.8.2v1.1H166v-1.1l1.3-.2v-9.6z" fill="url(#x)"/><linearGradient id="y" gradientUnits="userSpaceOnUse" x1="49.455" y1="116.348" x2="314.52" y2="217.148"><stop offset="0" stop-color="#f6f6f6"/><stop offset=".297" stop-color="#b9babe"/><stop offset=".787" stop-color="#f9f9f9"/><stop offset="1" stop-color="#b9babe"/></linearGradient><path d="M189.3 165.5l-2.1.1-.7 3.7h-1.6l.3-5h10.9l.2 5h-1.5l-.7-3.7-2-.1v9.8l2.3.2v1.1h-7.3v-1.1l2.1-.2v-9.8z" fill="url(#y)"/><linearGradient id="z" gradientUnits="userSpaceOnUse" x1="52.535" y1="108.246" x2="317.601" y2="209.046"><stop offset="0" stop-color="#f6f6f6"/><stop offset=".297" stop-color="#b9babe"/><stop offset=".787" stop-color="#f9f9f9"/><stop offset="1" stop-color="#b9babe"/></linearGradient><path d="M216.8 164.2h3l3.7 11.1.9.2v1.1h-5.2v-1.1l1.2-.2-.6-2h-4l-.6 2 1.3.1v1.1h-4.4v-1.1l1-.2 3.7-11zm1.2 2.9l-.2-1.2-.3 1.2-1.3 4.9h3.3l-1.5-4.9z" fill="url(#z)"/><linearGradient id="A" gradientUnits="userSpaceOnUse" x1="55.192" y1="101.261" x2="320.258" y2="202.06"><stop offset="0" stop-color="#f6f6f6"/><stop offset=".297" stop-color="#b9babe"/><stop offset=".787" stop-color="#f9f9f9"/><stop offset="1" stop-color="#b9babe"/></linearGradient><path d="M234.7 165.5l-2.1.1-.7 3.7h-1.6l.3-5h10.9l.2 5h-1.5l-.7-3.7-2-.1v9.8l2.3.2v1.1h-7.3v-1.1l2.1-.2v-9.8z" fill="url(#A)"/><linearGradient id="B" gradientUnits="userSpaceOnUse" x1="57.457" y1="95.304" x2="322.523" y2="196.103"><stop offset="0" stop-color="#f6f6f6"/><stop offset=".297" stop-color="#b9babe"/><stop offset=".787" stop-color="#f9f9f9"/><stop offset="1" stop-color="#b9babe"/></linearGradient><path d="M252.6 165.5l-2.1.1-.7 3.7h-1.6l.3-5h10.9l.2 5h-1.5l-.7-3.7-2-.1v9.8l2.3.2v1.1h-7.3v-1.1l2.1-.2v-9.8z" fill="url(#B)"/><linearGradient id="C" gradientUnits="userSpaceOnUse" x1="59.515" y1="89.894" x2="324.58" y2="190.693"><stop offset="0" stop-color="#f6f6f6"/><stop offset=".297" stop-color="#b9babe"/><stop offset=".787" stop-color="#f9f9f9"/><stop offset="1" stop-color="#b9babe"/></linearGradient><path d="M266.5 175.1c-1-1.1-1.5-2.7-1.5-4.6 0-1.3.3-2.4.8-3.3.5-1 1.3-1.7 2.2-2.2 1-.5 2.1-.8 3.4-.8 2.1 0 3.7.5 4.7 1.6s1.5 2.6 1.5 4.5c0 1.3-.3 2.4-.8 3.4s-1.3 1.8-2.3 2.3c-1 .5-2.1.8-3.4.8-2.1 0-3.6-.6-4.6-1.7zm2.7-8.6c-.5.9-.7 2.2-.7 3.9 0 1.8.2 3.1.7 3.9.5.9 1.2 1.3 2.1 1.3.9 0 1.6-.5 2.1-1.4.5-.9.7-2.3.7-4 0-1.8-.2-3-.7-3.8-.5-.8-1.2-1.2-2.1-1.2-.9 0-1.6.4-2.1 1.3z" fill="url(#C)"/><linearGradient id="D" gradientUnits="userSpaceOnUse" x1="61.675" y1="84.214" x2="326.74" y2="185.014"><stop offset="0" stop-color="#f6f6f6"/><stop offset=".297" stop-color="#b9babe"/><stop offset=".787" stop-color="#f9f9f9"/><stop offset="1" stop-color="#b9babe"/></linearGradient><path d="M284.5 175.5l1.3-.2v-9.7l-1.2-.2v-1.1h3.9c.6 0 1.1-.1 1.5-.1 1.2 0 2.1.1 2.8.3.7.2 1.2.6 1.5 1.1.3.5.5 1.1.5 1.9 0 .7-.2 1.5-.6 2.1-.4.7-1 1.1-1.8 1.3.5.2.9.5 1.3 1.1.3.5.7 1.2 1.1 2 .2.5.4.8.5 1 .1.2.3.4.4.4l.5.1v1.1H293c-.2 0-.3-.2-.5-.5-.2-.4-.4-.9-.7-1.7-.3-.9-.6-1.6-.9-2.1-.2-.5-.5-.8-.8-.9h-1.5v4l1.5.2v1.1h-5.6v-1.2zm6.8-5.9c.3-.4.5-1.1.5-2 0-.8-.2-1.4-.5-1.8-.3-.4-.8-.6-1.6-.6-.4 0-.7 0-1 .1v4.9h1.3c.5.1.9-.2 1.3-.6z" fill="url(#D)"/><linearGradient id="E" gradientUnits="userSpaceOnUse" x1="64.261" y1="77.412" x2="329.327" y2="178.211"><stop offset="0" stop-color="#f6f6f6"/><stop offset=".297" stop-color="#b9babe"/><stop offset=".787" stop-color="#f9f9f9"/><stop offset="1" stop-color="#b9babe"/></linearGradient><path d="M303.9 165.6l-1.3-.2v-1.2h4.2l4.6 7.1.9 2v-7.7l-1.4-.2v-1.2h4.2v1.2l-1.3.2v10.9h-2.4l-4.9-7.6-1.1-2.2v8.5l1.8.2v1.1h-4.6v-1.1l1.3-.2v-9.6z" fill="url(#E)"/><linearGradient id="F" gradientUnits="userSpaceOnUse" x1="66.552" y1="71.389" x2="331.617" y2="172.189"><stop offset="0" stop-color="#f6f6f6"/><stop offset=".297" stop-color="#b9babe"/><stop offset=".787" stop-color="#f9f9f9"/><stop offset="1" stop-color="#b9babe"/></linearGradient><path d="M323.8 165.7l-1.3-.2v-1.2h9.1l.2 2.9h-1.3l-.6-1.7-3.3-.2v4.3h2l.3-1.4h1.1v4.2h-1.1l-.3-1.4h-2v4.5l3.6-.2 1-2.1 1.4.4-.4 3.1h-9.8v-1.1l1.3-.2v-9.7z" fill="url(#F)"/><linearGradient id="G" gradientUnits="userSpaceOnUse" x1="68.98" y1="65.003" x2="334.046" y2="165.803"><stop offset="0" stop-color="#f6f6f6"/><stop offset=".297" stop-color="#b9babe"/><stop offset=".787" stop-color="#f9f9f9"/><stop offset="1" stop-color="#b9babe"/></linearGradient><path d="M343.5 171.7l-3.4-6-.9-.2v-1.2h5.2v1.2l-1.1.2 1.9 3.8.4 1.1.4-1.1 1.7-3.8-1.3-.2v-1.2h4.2v1.2l-1 .2-3.2 6v3.7l1.8.2v1.1h-6.5v-1.1l1.7-.2v-3.7z" fill="url(#G)"/><linearGradient id="H" gradientUnits="userSpaceOnUse" x1="70.945" y1="59.835" x2="336.011" y2="160.635"><stop offset="0" stop-color="#f6f6f6"/><stop offset=".297" stop-color="#b9babe"/><stop offset=".787" stop-color="#f9f9f9"/><stop offset="1" stop-color="#b9babe"/></linearGradient><path d="M359.5 176.4c-.5-.1-1.1-.2-1.6-.4-.4-.1-.6-.2-.8-.2l.1-3.1h1.5l.4 2.1c.1.1.3.3.7.4s.7.2 1.2.2c.7 0 1.2-.2 1.5-.4.3-.3.5-.7.5-1.2 0-.4-.1-.7-.3-1-.2-.3-.5-.5-.9-.7-.4-.2-.9-.5-1.6-.8-.9-.4-1.6-.9-2.2-1.5-.6-.6-.9-1.4-.9-2.4 0-.6.2-1.2.5-1.7s.8-.9 1.5-1.2c.7-.3 1.5-.5 2.4-.5.6 0 1.1 0 1.5.1.4.1.9.2 1.4.3.3.1.5.1.6.2l-.1 2.9h-1.5l-.4-2c-.1-.1-.3-.2-.5-.3-.3-.1-.6-.1-.9-.1-.6 0-1.1.1-1.4.4-.3.3-.5.7-.5 1.1 0 .4.1.7.4 1 .3.3.6.5.9.8.4.2.9.5 1.6.9.6.3 1.1.6 1.5.9.4.3.8.7 1.1 1.1.3.5.5 1 .5 1.6 0 .6-.1 1.2-.4 1.8-.3.6-.8 1-1.5 1.4-.7.4-1.6.6-2.8.6-.4-.1-1-.2-1.5-.3z" fill="url(#H)"/><linearGradient id="I" gradientUnits="userSpaceOnUse" x1="44.966" y1="128.152" x2="310.031" y2="228.952"><stop offset="0" stop-color="#f6f6f6"/><stop offset=".297" stop-color="#b9babe"/><stop offset=".787" stop-color="#f9f9f9"/><stop offset="1" stop-color="#b9babe"/></linearGradient><path fill="url(#I)" d="M65.8 147.4h62v.9h-62z"/><linearGradient id="J" gradientUnits="userSpaceOnUse" x1="75.205" y1="48.634" x2="340.271" y2="149.433"><stop offset="0" stop-color="#f6f6f6"/><stop offset=".297" stop-color="#b9babe"/><stop offset=".787" stop-color="#f9f9f9"/><stop offset="1" stop-color="#b9babe"/></linearGradient><path fill="url(#J)" d="M305.1 147.4h62v.9h-62z"/><linearGradient id="K" gradientUnits="userSpaceOnUse" x1="-21.196" y1="15.127" x2="57.95" y2="189.099"><stop offset="0" stop-color="#b9babe"/><stop offset=".439" stop-color="#e4e4e9"/><stop offset=".679" stop-color="#f6f6f6"/><stop offset="1" stop-color="#b9babe"/></linearGradient><path d="M10.1 126.3c4.6-4.9 11.9-11.5 22.2-16.7 6.1-3.1 11.8-5 16.5-6.2.6 8.9 1.4 17.1 1.8 25.8l-42 16.9 1.5-19.8z" fill="url(#K)"/><linearGradient id="L" gradientUnits="userSpaceOnUse" x1="-6.954" y1="8.647" x2="72.193" y2="182.62"><stop offset="0" stop-color="#b9babe"/><stop offset=".439" stop-color="#e4e4e9"/><stop offset=".679" stop-color="#f6f6f6"/><stop offset="1" stop-color="#b9babe"/></linearGradient><path d="M13.8 86.4C16.9 83 41.5 72 45.9 71.1c.5 6.3 1.2 12.2 1.5 18.5l-35.3 14.6 1.7-17.8z" fill="url(#L)"/><linearGradient id="M" gradientUnits="userSpaceOnUse" x1="5.214" y1="3.111" x2="84.361" y2="177.084"><stop offset="0" stop-color="#b9babe"/><stop offset=".439" stop-color="#e4e4e9"/><stop offset=".679" stop-color="#f6f6f6"/><stop offset="1" stop-color="#b9babe"/></linearGradient><path d="M49 53.3h-3.8v-8.1c0-.4-.3-.7-.7-.7H16.4c-.4 0-.7.3-.7.7l-.2 8.1h-4.3c-.4 0-.7.3-.7.7v2.6c0 .4.3.7.7.7h4.2L15 71.9l30.1-10.5v-4H49c.4 0 .7-.3.7-.7V54c.1-.4-.3-.7-.7-.7z" fill="url(#M)"/><linearGradient id="N" gradientUnits="userSpaceOnUse" x1="-36.581" y1="22.126" x2="42.565" y2="196.098"><stop offset="0" stop-color="#b9babe"/><stop offset=".439" stop-color="#e4e4e9"/><stop offset=".679" stop-color="#f6f6f6"/><stop offset="1" stop-color="#b9babe"/></linearGradient><path d="M54.3 173.1c-.4-5-.9-10-1.3-15s-.9-9.9-1.3-14.9c-6.5 1.7-16.2 4.9-26.5 11.7-9.3 6.2-15.7 13-19.8 18.2H.5v3.6h59V173h-5.2z" fill="url(#N)"/><linearGradient id="O" gradientUnits="userSpaceOnUse" x1="15.031" y1="-1.355" x2="94.177" y2="172.618"><stop offset="0" stop-color="#b9babe"/><stop offset=".439" stop-color="#e4e4e9"/><stop offset=".679" stop-color="#f6f6f6"/><stop offset="1" stop-color="#b9babe"/></linearGradient><path d="M45.1 26.5h-1.3c-.3-1-.7-2.1-1.2-3.3-1-2.3-2.2-4.1-3.2-5.6-2.1-2.1-4.3-4.2-6.4-6.3-.2-.3-.4-.6-.4-.9l-.4-2.2V1.6c0-.7-.5-1.2-1.2-1.2s-1.2.5-1.2 1.2v6.1l-.6 2.8c0 .4-.2.8-.5 1.1-2.2 2.1-4.4 4.1-6.6 6.2-1.2 1.5-2.4 3.4-3.5 5.6-.5 1.1-.9 2.1-1.3 3h-1.5c-.4 0-.7.3-.7.7v.6c0 .4.3.7.7.7h1c-.1.9-.2 1.7-.2 2.6v9.6c0 1 .8 1.7 1.7 1.7h24.3c1 0 1.7-.8 1.7-1.7v-1.9c.1-.3.1-.6.1-.9v-7.4c0-.6-.1-1.3-.2-1.9h.9c.4 0 .7-.3.7-.7v-.6l-.7-.7zm-6.6 12.1c0 .4-.3.7-.7.7H22.9c-.4 0-.7-.3-.7-.7v-6.1c0-.2.1-.4.3-.5v-.2h15.9c.1.1.1.3.1.4v6.4z" fill="url(#O)"/></svg>