<svg xmlns="http://www.w3.org/2000/svg" viewBox="0 0 367 177"><linearGradient id="a" gradientUnits="userSpaceOnUse" x1="46.882" y1="57.309" x2="362.257" y2="57.309"><stop offset="0" stop-color="#ff9639"/><stop offset="1" stop-color="#f2af28"/></linearGradient><path fill="url(#a)" d="M46.9 37.6l150.2 45h165.2L46.9 32z"/><path d="M65.9 95.1l-4.1-.7v-3.3h17v3.3l-5.1.7v31.7l12.8-.5 3.4-9.9 4.3.6-1.6 13.6H61.7v-3.2l4.2-.5V95.1zm37.6 0l-4.3-.7v-3.3h28.3l.7 8.9h-3.7l-1.8-5.3-11.5-.5v14.3l9.2-.3.8-4.4h3.4v12.9h-3.4l-.8-4.6h-9.2v15l12.9-.6 3.1-6.8 4 1.1-1.4 9.7H99.3v-3.2l4.2-.5V95.1zm31.3-4H151v3.3l-4.5.7 7.9 23.8 1.5 5.4 1.3-5.4 7.4-23.8-4.2-.7v-3.3h12.9v3.3l-3.4.7-12.2 35.9h-6.3L138 95.1l-3.2-.7v-3.3zm46.9 4l-4.5-.7v-3.3h17v3.3l-4.7.7v31.8l4.7.6v3.1h-17v-3.2l4.5-.5V95.1zm22.4 0l-4.6-.7v-3.3h13.1l17.2 23.9 3.2 6.1v-26l-5-.7v-3.3h14.3v3.3l-4.4.7v35.5h-7l-18-25.1-4-7v28.4l5.8.5v3.2h-15.3v-3.2l4.6-.5V95.1zm52.5 35.6c-1.5-.3-3.2-.7-5.1-1.3-1.2-.4-2.1-.5-2.5-.6l.5-9.8h4.3l1.2 6.9c.5.5 1.3.9 2.5 1.3s2.5.6 4.1.6c2.4 0 4.2-.5 5.3-1.6 1.2-1 1.8-2.5 1.8-4.4 0-1.2-.4-2.3-1.1-3.2-.7-.9-1.7-1.7-2.9-2.4s-2.9-1.6-5.1-2.5c-2.9-1.3-5.4-3-7.3-4.8-1.9-1.9-2.9-4.4-2.9-7.6 0-2 .5-3.8 1.5-5.4s2.6-2.9 4.6-3.8c2-.9 4.5-1.4 7.5-1.4 1.7 0 3.3.1 4.6.4 1.3.2 2.8.6 4.3 1 .9.2 1.6.4 2.1.5l-.3 9.3h-4.3l-1.1-6.5c-.3-.3-1-.6-1.9-.9-1-.3-2-.5-3.2-.5-2.1 0-3.7.5-4.8 1.5s-1.6 2.3-1.6 3.9c0 1.3.4 2.4 1.2 3.4.8 1 1.8 1.8 2.9 2.4 1.1.7 2.9 1.6 5.4 2.8 2 1 3.7 1.9 5.1 2.8 1.4.9 2.6 2.1 3.7 3.6 1 1.5 1.5 3.2 1.5 5.2s-.5 3.8-1.5 5.6c-1 1.8-2.6 3.2-4.8 4.4-2.2 1.2-5 1.8-8.5 1.8-1.9-.3-3.7-.4-5.2-.7zm28.7-4.9c-3.3-3.6-4.9-8.5-4.9-14.8 0-4.1.9-7.7 2.6-10.7 1.7-3.1 4.1-5.5 7.2-7.1 3.1-1.7 6.7-2.5 10.7-2.5 6.7 0 11.7 1.7 15 5.2s5 8.3 5 14.5c0 4.1-.9 7.8-2.6 10.9-1.8 3.2-4.2 5.6-7.4 7.4-3.1 1.7-6.8 2.6-10.8 2.6-6.6-.1-11.5-1.9-14.8-5.5zm7.6-27.6c-1.9 2.9-2.8 7.1-2.8 12.8 0 5.6.9 9.8 2.7 12.7 1.8 2.9 4.4 4.3 7.7 4.3s5.8-1.5 7.7-4.5c1.9-3 2.8-7.4 2.8-13.1 0-5.5-.9-9.6-2.7-12.4-1.8-2.7-4.3-4.1-7.7-4.1-3.2 0-5.8 1.4-7.7 4.3zm39.6-3.1l-4.2-.7v-3.3h12.1l15.8 23.9 3 6.1v-26l-4.6-.7v-3.3h13.2v3.3l-4.1.7v35.5h-6.4l-16.5-25.1-3.7-7v28.4l5.4.5v3.2h-14.1v-3.2l4.2-.5V95.1zm-197.4 46.6l-1.7-.3V140h7.1v1.4l-2.1.3v13.2l4.7-.2 1.4-4.1 1.8.2-.7 5.7h-12.2v-1.3l1.7-.2v-13.3zm21.2-1.7h3.4l5.1 15 1.3.2v1.3h-6.5v-1.3l1.7-.2-.9-2.9h-5.7l-.9 2.9 1.8.2v1.3H150v-1.3l1.3-.2 5-15zm1.5 3.7l-.4-1.7-.4 1.7-2 6.8h4.9l-2.1-6.8zm11.3-3.7h6.6v1.4l-1.9.3 2.8 10 .5 2.5.5-2.5 2.4-8.1-.6-1.9-1.5-.3V140h6.9v1.4l-2.1.3 2.8 10 .6 2.7.5-2.7 2.5-10-2-.3V140h5.3v1.4l-1.4.3-4.2 14.9h-2.9l-3-10.3-2.9 10.3h-3l-4.6-14.8-1.3-.3V140zm39.9 15.6c-1.2-.7-2.1-1.7-2.7-3-.6-1.3-.9-2.7-.9-4.2 0-1.8.3-3.4 1-4.7.7-1.3 1.7-2.3 3-2.9s2.8-1 4.5-1c1.6 0 3.4.2 5.4.7l-.2 4.1h-2.2l-.6-2.8c-.1-.1-.4-.3-.8-.4-.4-.1-1-.2-1.6-.2-1.4 0-2.6.6-3.4 1.8s-1.2 2.9-1.2 5.1c0 2.2.4 3.9 1.1 5.2.7 1.3 1.8 2 3.2 2 .6 0 1.1-.1 1.7-.2.5-.1.9-.3 1.2-.6v-4.8l-2.3-.2V148h6.7v1.5l-1.2.2v5.9c-.3 0-.9.1-1.7.4-.9.3-1.7.4-2.4.6-.7.1-1.4.2-2.2.2-1.9-.1-3.3-.4-4.4-1.2zm15.3-.5l1.9-.2v-13.2l-1.8-.3V140h5.3c.8-.1 1.5-.1 2.1-.1 1.7 0 3 .2 4 .5s1.7.8 2.2 1.4c.4.6.7 1.5.7 2.5s-.3 2-.9 2.8c-.6.9-1.5 1.5-2.6 1.8.6.3 1.2.7 1.7 1.4s1 1.5 1.6 2.6c.4.7.7 1.2.9 1.6.2.3.4.5.6.5l.8.2v1.3h-4.1c-.3 0-.5-.2-.8-.7-.3-.5-.6-1.2-1.1-2.3-.5-1.2-1-2.1-1.4-2.8-.4-.7-.8-1.1-1.2-1.3h-2.5v5.5l2.2.2v1.3h-7.7v-1.3zm9.8-8c.5-.6.8-1.5.8-2.7 0-1.1-.3-1.9-.8-2.4s-1.4-.8-2.6-.8c-.4 0-.8 0-1.1.1-.3 0-.5.1-.6.1v6.6h2.2c.8 0 1.6-.3 2.1-.9zm11.7 7.4c-1.3-1.5-1.9-3.6-1.9-6.1 0-1.7.3-3.2 1-4.5.7-1.3 1.6-2.3 2.9-3 1.2-.7 2.6-1 4.2-1 2.6 0 4.6.7 5.9 2.2 1.3 1.4 2 3.4 2 6 0 1.7-.3 3.2-1 4.5-.7 1.3-1.7 2.3-2.9 3.1-1.2.7-2.7 1.1-4.3 1.1-2.7-.1-4.6-.8-5.9-2.3zm3-11.5c-.7 1.2-1.1 3-1.1 5.3s.4 4.1 1.1 5.3 1.7 1.8 3.1 1.8c1.3 0 2.3-.6 3-1.9.7-1.3 1.1-3.1 1.1-5.4 0-2.3-.4-4-1.1-5.1-.7-1.1-1.7-1.7-3-1.7-1.3-.1-2.4.5-3.1 1.7zm18.9 12c-1.1-1.1-1.6-2.9-1.6-5.3v-8l-1.5-.3V140h6.7v1.4l-1.9.3v8.2c0 3.5 1.2 5.3 3.7 5.3 1.2 0 2.1-.5 2.7-1.4.6-.9.9-2.2.9-3.8v-8.3l-1.9-.3V140h5.5v1.4l-1.5.3v8.2c0 2.3-.6 4-1.7 5.1-1.1 1.1-2.6 1.7-4.5 1.7-2.1-.1-3.8-.6-4.9-1.7zm19.3-13.3l-1.7-.3V140h4.7c.9-.1 1.6-.1 2.3-.1 1.5 0 2.7.2 3.6.6.9.4 1.5.9 1.9 1.6.4.7.6 1.6.6 2.7 0 1.9-.6 3.3-1.7 4.3s-2.8 1.5-4.8 1.5c-.8 0-1.4 0-1.7-.1v4.4l3 .2v1.3h-8v-1.3l1.7-.2v-13.2zm4.9 7.6c1 0 1.8-.3 2.4-1 .6-.7.9-1.8.9-3.4 0-1.2-.3-2.1-.8-2.7-.5-.6-1.4-.8-2.5-.8-.4 0-.8 0-1.3.1h-.4v7.8c.3-.1.9 0 1.7 0zm-221 14.6h3l3.7 11.1.9.2v1.1h-5.2v-1.1l1.2-.2-.6-2h-4l-.6 2 1.3.1v1.1h-4.4v-1.1l1-.2 3.7-11zm1.2 2.8l-.2-1.2-.3 1.2-1.3 4.9h3.3l-1.5-4.9zm14 8c-1-1.1-1.5-2.6-1.5-4.6 0-1.3.3-2.4.8-3.4s1.3-1.7 2.2-2.2c.9-.5 2-.8 3.1-.8.5 0 .9 0 1.3.1.4 0 1 .1 1.6.2.5.1.8.1 1 .1l-.2 3.7h-1.8l-.6-2.5c-.2-.3-.8-.4-1.5-.4-.9 0-1.5.4-2 1.3-.5.8-.7 2.1-.7 3.7s.2 2.9.7 3.8c.5 1 1.2 1.4 2.1 1.4.5 0 .8 0 1-.1.2-.1.4-.2.6-.4l.7-1.8 1.6.2-.3 2.7c-.3 0-.7.1-1.2.2-.4.1-.9.2-1.3.3-.4.1-.9.1-1.4.1-1.7.1-3.2-.5-4.2-1.6zm16.9 0c-1-1.1-1.5-2.6-1.5-4.6 0-1.3.3-2.4.8-3.4s1.3-1.7 2.2-2.2c.9-.5 2-.8 3.1-.8.5 0 .9 0 1.3.1.4 0 1 .1 1.6.2.5.1.8.1 1 .1l-.2 3.7h-1.8l-.6-2.5c-.2-.3-.8-.4-1.5-.4-.9 0-1.5.4-2 1.3-.5.8-.7 2.1-.7 3.7s.2 2.9.7 3.8c.5 1 1.2 1.4 2.1 1.4.5 0 .8 0 1-.1.2-.1.4-.2.6-.4l.7-1.8 1.6.2-.3 2.7c-.3 0-.7.1-1.2.2-.4.1-.9.2-1.3.3-.4.1-.9.1-1.4.1-1.8.1-3.2-.5-4.2-1.6zm17-9.4l-1.4-.2v-1.2h5.6v1.2l-1.4.2v9.7l1.4.2v1.1h-5.6v-1.1l1.3-.2v-9.7zm12.6 0l-1.2-.2v-1.2h2.6c.4 0 .9 0 1.5-.1h1.5c2 0 3.5.5 4.5 1.5s1.5 2.4 1.5 4.3c0 1.3-.2 2.4-.7 3.5-.5 1-1.2 1.8-2.1 2.4-.9.6-2 .9-3.3.9-.3 0-.9 0-1.5-.1-.6 0-1.1-.1-1.2-.1h-2.7v-1.1l1.3-.2v-9.6zm4.2 9.8c1 0 1.8-.4 2.3-1.3.5-.8.8-2.1.8-3.8 0-1.6-.3-2.8-.8-3.7-.5-.9-1.4-1.4-2.5-1.4-.3 0-.5 0-.7.1-.2 0-.3.1-.4.1v9.9c.3.1.8.2 1.3.1zm14.4-9.8l-1.3-.2v-1.2h9.1l.2 2.9h-1.3l-.6-1.7-3.3-.1v4.3h2l.3-1.4h1.1v4.2h-1.1l-.3-1.4h-2v4.5l3.6-.2 1-2.1 1.4.4-.4 3.1h-9.8v-1.1l1.3-.2v-9.8zm16.8 0l-1.3-.2v-1.2h4.2l4.6 7.1.9 2v-7.7l-1.4-.2v-1.2h4.2v1.2l-1.3.2v10.9h-2.4l-4.9-7.6-1.1-2.2v8.5l1.8.2v1.1h-4.6v-1.1l1.3-.2v-9.6zm22-.2l-2.1.1-.7 3.7h-1.6l.3-5h10.9l.2 5h-1.5l-.7-3.7-2-.1v9.8l2.3.2v1.1h-7.3v-1.1l2.1-.2v-9.8zm27.5-1.2h3l3.7 11.1.9.2v1.1h-5.2v-1.1l1.2-.2-.6-2h-4l-.6 2 1.3.1v1.1h-4.4v-1.1l1-.2 3.7-11zm1.3 2.8l-.2-1.2-.3 1.2-1.3 4.9h3.3l-1.5-4.9zm16.6-1.6l-2.1.1-.7 3.7H231l.3-5h10.9l.2 5H241l-.7-3.7-2-.1v9.8l2.3.2v1.1h-7.3v-1.1l2.1-.2v-9.8zm17.9 0l-2.1.1-.7 3.7H249l.3-5h10.9l.2 5h-1.5l-.7-3.7-2-.1v9.8l2.3.2v1.1h-7.3v-1.1l2.1-.2v-9.8zm13.9 9.6c-1-1.1-1.5-2.7-1.5-4.6 0-1.3.3-2.4.8-3.3.5-1 1.3-1.7 2.2-2.2 1-.5 2.1-.8 3.4-.8 2.1 0 3.7.5 4.7 1.6s1.5 2.6 1.5 4.5c0 1.3-.3 2.4-.8 3.4s-1.3 1.8-2.3 2.3c-1 .5-2.1.8-3.4.8-2 0-3.6-.6-4.6-1.7zm2.8-8.5c-.5.9-.7 2.2-.7 3.9 0 1.8.2 3.1.7 3.9.5.9 1.2 1.3 2.1 1.3.9 0 1.6-.5 2.1-1.4.5-.9.7-2.3.7-4 0-1.8-.2-3-.7-3.8-.5-.8-1.2-1.2-2.1-1.2-1 0-1.7.4-2.1 1.3zm15.3 8.9l1.3-.2v-9.7l-1.2-.2v-1.1h3.9c.6 0 1.1-.1 1.5-.1 1.2 0 2.1.1 2.8.3.7.2 1.2.6 1.5 1.1.3.5.5 1.1.5 1.9 0 .7-.2 1.5-.6 2.1-.4.7-1 1.1-1.8 1.3.5.2.9.5 1.3 1.1.3.5.7 1.2 1.1 2 .2.5.4.8.5 1 .1.2.3.4.4.4l.5.1v1.1h-3.1c-.2 0-.3-.2-.5-.5-.2-.4-.4-.9-.7-1.7-.3-.9-.6-1.6-.9-2.1-.2-.5-.5-.8-.8-.9h-1.5v4l1.5.2v1.1h-5.6v-1.2zm6.7-5.9c.3-.4.5-1.1.5-2 0-.8-.2-1.4-.5-1.8-.3-.4-.8-.6-1.6-.6-.4 0-.7 0-1 .1v4.9h1.3c.5.1 1-.1 1.3-.6zm12.6-3.9l-1.3-.2v-1.2h4.2l4.6 7.1.9 2v-7.7l-1.4-.2v-1.2h4.2v1.2l-1.3.2v10.9h-2.4l-4.9-7.6-1.1-2.2v8.5l1.8.2v1.1h-4.6v-1.1l1.3-.2v-9.6zm19.9 0l-1.3-.2v-1.2h9.1l.2 2.9h-1.3l-.6-1.7-3.3-.2v4.3h2l.3-1.4h1.1v4.2h-1.1l-.3-1.4h-2v4.5l3.6-.2 1-2.1 1.4.4-.4 3.1h-9.8v-1.1l1.3-.2v-9.7zm19.7 6l-3.4-6-.9-.2v-1.2h5.2v1.2l-1.1.2 1.9 3.8.4 1.1.4-1.1 1.7-3.8-1.3-.2v-1.2h4.2v1.2l-1 .2-3.2 6v3.7l1.8.2v1.1h-6.5v-1.1l1.7-.2v-3.7zm16.1 4.8c-.5-.1-1.1-.2-1.6-.4-.4-.1-.6-.2-.8-.2l.1-3.1h1.5l.4 2.1c.1.1.3.3.7.4.3.1.7.2 1.2.2.7 0 1.2-.2 1.5-.4.3-.3.5-.7.5-1.2 0-.4-.1-.7-.3-1-.2-.3-.5-.5-.9-.7-.4-.2-.9-.5-1.6-.8-.9-.4-1.6-.9-2.2-1.5-.6-.6-.9-1.4-.9-2.4 0-.6.2-1.2.5-1.7s.8-.9 1.5-1.2c.7-.3 1.5-.5 2.4-.5.6 0 1.1 0 1.5.1.4.1.9.2 1.4.3.3.1.5.1.6.2l-.1 2.9h-1.5l-.4-2c-.1-.1-.3-.2-.5-.3-.3-.1-.6-.1-.9-.1-.6 0-1.1.1-1.4.4-.3.3-.5.7-.5 1.1 0 .4.1.7.4 1 .3.3.6.5.9.8s.9.5 1.6.9c.6.3 1.1.6 1.5.9.4.3.8.7 1.1 1.1.3.5.5 1 .5 1.6 0 .6-.1 1.2-.4 1.8-.3.6-.8 1-1.5 1.4-.7.4-1.6.6-2.8.6-.5-.2-1-.2-1.5-.3zm-293.8-29h62v.9h-62zm239.4 0h62v.9h-62zM10.8 126c4.6-4.9 11.9-11.5 22.2-16.7 6.1-3.1 11.8-5 16.5-6.2.6 8.9 1.4 17.1 1.8 25.8L9.4 145.8l1.4-19.8zm3.8-40c3.1-3.4 27.7-14.4 32.1-15.3.5 6.3 1.2 12.2 1.5 18.5l-35.3 14.6L14.6 86zm35.2-33.1H46v-8.1c0-.4-.3-.7-.7-.7H17.1c-.4 0-.7.3-.7.7l-.2 8.1h-4.3c-.4 0-.7.3-.7.7v2.6c0 .4.3.7.7.7h4.2l-.3 14.5L45.9 61v-4h3.8c.4 0 .7-.3.7-.7v-2.6c.1-.5-.2-.8-.6-.8zm5.3 119.9c-.4-5-.9-10-1.3-15s-.9-9.9-1.3-14.9c-6.5 1.7-16.2 4.9-26.5 11.7-9.3 6.2-15.7 13-19.8 18.2H1.3v3.6h59v-3.7h-5.2zM45.9 26.2h-1.3c-.3-1-.7-2.1-1.2-3.3-1-2.3-2.2-4.1-3.2-5.6-2.1-2.1-4.3-4.2-6.4-6.3-.2-.3-.4-.6-.4-.9L33 7.9V1.3c0-.7-.5-1.2-1.2-1.2s-1.2.5-1.2 1.2v6.1l-.6 2.8c0 .4-.2.8-.5 1.1-2.2 2.1-4.4 4.1-6.6 6.2-1.2 1.5-2.4 3.4-3.5 5.6-.5 1.1-.9 2.1-1.3 3h-1.5c-.4 0-.7.3-.7.7v.6c0 .4.3.7.7.7h1c-.1.9-.2 1.7-.2 2.6v9.7c0 1 .8 1.7 1.7 1.7h24.3c1 0 1.7-.8 1.7-1.7v-1.9c.1-.3.1-.6.1-.9v-7.4c0-.6-.1-1.3-.2-1.9h.9c.4 0 .7-.3.7-.7V27c-.2-.3-.5-.6-.7-.8zm-6.7 12c0 .4-.3.7-.7.7H23.7c-.4 0-.7-.3-.7-.7v-6.1c0-.2.1-.4.3-.5v-.2h15.9c.1.1.1.3.1.4v6.4z" fill="#e5e5ea"/></svg>