<svg xmlns="http://www.w3.org/2000/svg" xmlns:xlink="http://www.w3.org/1999/xlink" width="74" height="65"><defs><path id="a" d="M865.44 1016c-4.13 7.33-6.19 17.33-6.19 30v20.75H887V1039h-11.88v-2.75c0-6.83.73-12.33 2.2-16.5 1.45-4.17 3.64-7 6.55-8.5V1002a27.95 27.95 0 0 0-18.43 14zm-46.25 0c-4.13 7.33-6.19 17.33-6.19 30v20.75h27.75V1039h-11.88v-2.75c0-6.83.73-12.33 2.2-16.5 1.45-4.17 3.64-7 6.55-8.5V1002a27.95 27.95 0 0 0-18.43 14z"/></defs><use fill="#031230" xlink:href="#a" opacity=".05" transform="translate(-813 -1002)"/></svg>