<?xml version="1.0" encoding="utf-8"?>
<!-- Generator: Adobe Illustrator 21.0.2, SVG Export Plug-In . SVG Version: 6.00 Build 0)  -->
<svg version="1.1" id="Layer_1" xmlns="http://www.w3.org/2000/svg" xmlns:xlink="http://www.w3.org/1999/xlink" x="0px" y="0px"
	 viewBox="0 0 367 177" style="enable-background:new 0 0 367 177;" xml:space="preserve">
<style type="text/css">
	.st0{fill:url(#SVGID_1_);}
	.st1{fill:url(#SVGID_2_);}
	.st2{fill:url(#SVGID_3_);}
	.st3{fill:url(#SVGID_4_);}
	.st4{fill:url(#SVGID_5_);}
	.st5{fill:url(#SVGID_6_);}
	.st6{fill:url(#SVGID_7_);}
	.st7{fill:url(#SVGID_8_);}
	.st8{fill:url(#SVGID_9_);}
	.st9{fill:url(#SVGID_10_);}
	.st10{fill:url(#SVGID_11_);}
	.st11{fill:url(#SVGID_12_);}
	.st12{fill:url(#SVGID_13_);}
	.st13{fill:url(#SVGID_14_);}
	.st14{fill:url(#SVGID_15_);}
	.st15{fill:url(#SVGID_16_);}
	.st16{fill:url(#SVGID_17_);}
	.st17{fill:url(#SVGID_18_);}
	.st18{fill:url(#SVGID_19_);}
	.st19{fill:url(#SVGID_20_);}
	.st20{fill:url(#SVGID_21_);}
	.st21{fill:url(#SVGID_22_);}
	.st22{fill:url(#SVGID_23_);}
	.st23{fill:url(#SVGID_24_);}
	.st24{fill:url(#SVGID_25_);}
	.st25{fill:url(#SVGID_26_);}
	.st26{fill:url(#SVGID_27_);}
	.st27{fill:url(#SVGID_28_);}
	.st28{fill:url(#SVGID_29_);}
	.st29{fill:url(#SVGID_30_);}
	.st30{fill:url(#SVGID_31_);}
	.st31{fill:url(#SVGID_32_);}
	.st32{fill:url(#SVGID_33_);}
	.st33{fill:url(#SVGID_34_);}
	.st34{fill:url(#SVGID_35_);}
	.st35{fill:url(#SVGID_36_);}
	.st36{fill:url(#SVGID_37_);}
	.st37{fill:url(#SVGID_38_);}
	.st38{fill:url(#SVGID_39_);}
	.st39{fill:url(#SVGID_40_);}
	.st40{fill:url(#SVGID_41_);}
</style>
<g>
	<linearGradient id="SVGID_1_" gradientUnits="userSpaceOnUse" x1="46.1406" y1="57.6643" x2="361.5156" y2="57.6643">
		<stop  offset="0" style="stop-color:#FF9639"/>
		<stop  offset="1" style="stop-color:#F2AF28"/>
	</linearGradient>
	<polygon class="st0" points="46.1,37.9 196.3,83 361.5,83 46.1,32.4 	"/>
	<g>
		<linearGradient id="SVGID_2_" gradientUnits="userSpaceOnUse" x1="53.6954" y1="105.1964" x2="318.7611" y2="205.9961">
			<stop  offset="0" style="stop-color:#F6F6F6"/>
			<stop  offset="0.297" style="stop-color:#B9BABE"/>
			<stop  offset="0.7868" style="stop-color:#F9F9F9"/>
			<stop  offset="1" style="stop-color:#B9BABE"/>
		</linearGradient>
		<path class="st1" d="M65.2,95.4l-4.1-0.7v-3.3h17v3.3L73,95.4v31.7l12.8-0.5l3.4-9.9l4.3,0.6L91.8,131H61v-3.2l4.2-0.5V95.4z"/>
		<linearGradient id="SVGID_3_" gradientUnits="userSpaceOnUse" x1="59.149" y1="90.8555" x2="324.2147" y2="191.6552">
			<stop  offset="0" style="stop-color:#F6F6F6"/>
			<stop  offset="0.297" style="stop-color:#B9BABE"/>
			<stop  offset="0.7868" style="stop-color:#F9F9F9"/>
			<stop  offset="1" style="stop-color:#B9BABE"/>
		</linearGradient>
		<path class="st2" d="M102.7,95.4l-4.3-0.7v-3.3h28.3l0.7,8.9h-3.7l-1.8-5.3l-11.5-0.5V109l9.2-0.3l0.8-4.4h3.4v12.9h-3.4l-0.8-4.6
			l-9.2,0v15l12.9-0.6l3.1-6.8l4,1.1l-1.4,9.7H98.5v-3.2l4.2-0.5V95.4z"/>
		<linearGradient id="SVGID_4_" gradientUnits="userSpaceOnUse" x1="65.2699" y1="74.7598" x2="330.3356" y2="175.5594">
			<stop  offset="0" style="stop-color:#F6F6F6"/>
			<stop  offset="0.297" style="stop-color:#B9BABE"/>
			<stop  offset="0.7868" style="stop-color:#F9F9F9"/>
			<stop  offset="1" style="stop-color:#B9BABE"/>
		</linearGradient>
		<path class="st3" d="M134,91.5h16.2v3.3l-4.5,0.7l7.9,23.8l1.5,5.4l1.3-5.4l7.4-23.8l-4.2-0.7v-3.3h12.9v3.3l-3.4,0.7L157,131.3
			h-6.3l-13.4-35.9l-3.2-0.7V91.5z"/>
		<linearGradient id="SVGID_5_" gradientUnits="userSpaceOnUse" x1="68.2782" y1="66.8489" x2="333.344" y2="167.6486">
			<stop  offset="0" style="stop-color:#F6F6F6"/>
			<stop  offset="0.297" style="stop-color:#B9BABE"/>
			<stop  offset="0.7868" style="stop-color:#F9F9F9"/>
			<stop  offset="1" style="stop-color:#B9BABE"/>
		</linearGradient>
		<path class="st4" d="M180.9,95.4l-4.5-0.7v-3.3h17v3.3l-4.7,0.7v31.8l4.7,0.6v3.1h-17v-3.2l4.5-0.5V95.4z"/>
		<linearGradient id="SVGID_6_" gradientUnits="userSpaceOnUse" x1="72.7428" y1="55.1089" x2="337.8085" y2="155.9085">
			<stop  offset="0" style="stop-color:#F6F6F6"/>
			<stop  offset="0.297" style="stop-color:#B9BABE"/>
			<stop  offset="0.7868" style="stop-color:#F9F9F9"/>
			<stop  offset="1" style="stop-color:#B9BABE"/>
		</linearGradient>
		<path class="st5" d="M203.4,95.4l-4.6-0.7v-3.3h13.1l17.2,23.9l3.2,6.1v-26l-5-0.7v-3.3h14.3v3.3l-4.4,0.7V131h-7l-18-25.1l-4-7
			v28.4l5.8,0.5v3.2h-15.3v-3.2l4.6-0.5V95.4z"/>
		<linearGradient id="SVGID_7_" gradientUnits="userSpaceOnUse" x1="77.9351" y1="41.455" x2="343.0008" y2="142.2547">
			<stop  offset="0" style="stop-color:#F6F6F6"/>
			<stop  offset="0.297" style="stop-color:#B9BABE"/>
			<stop  offset="0.7868" style="stop-color:#F9F9F9"/>
			<stop  offset="1" style="stop-color:#B9BABE"/>
		</linearGradient>
		<path class="st6" d="M255.9,131c-1.5-0.3-3.2-0.7-5.1-1.3c-1.2-0.4-2.1-0.5-2.5-0.6l0.5-9.8h4.3l1.2,6.9c0.5,0.5,1.3,0.9,2.5,1.3
			c1.2,0.4,2.5,0.6,4.1,0.6c2.4,0,4.2-0.5,5.3-1.6c1.2-1,1.8-2.5,1.8-4.4c0-1.2-0.4-2.3-1.1-3.2c-0.7-0.9-1.7-1.7-2.9-2.4
			c-1.2-0.7-2.9-1.6-5.1-2.5c-2.9-1.3-5.4-3-7.3-4.8c-1.9-1.9-2.9-4.4-2.9-7.6c0-2,0.5-3.8,1.5-5.4c1-1.6,2.6-2.9,4.6-3.8
			c2-0.9,4.5-1.4,7.5-1.4c1.7,0,3.3,0.1,4.6,0.4c1.3,0.2,2.8,0.6,4.3,1c0.9,0.2,1.6,0.4,2.1,0.5l-0.3,9.3h-4.3l-1.1-6.5
			c-0.3-0.3-1-0.6-1.9-0.9c-1-0.3-2-0.5-3.2-0.5c-2.1,0-3.7,0.5-4.8,1.5c-1.1,1-1.6,2.3-1.6,3.9c0,1.3,0.4,2.4,1.2,3.4
			c0.8,1,1.8,1.8,2.9,2.4c1.1,0.7,2.9,1.6,5.4,2.8c2,1,3.7,1.9,5.1,2.8c1.4,0.9,2.6,2.1,3.7,3.6c1,1.5,1.5,3.2,1.5,5.2
			c0,2-0.5,3.8-1.5,5.6c-1,1.8-2.6,3.2-4.8,4.4c-2.2,1.2-5,1.8-8.5,1.8C259.1,131.5,257.4,131.3,255.9,131z"/>
		<linearGradient id="SVGID_8_" gradientUnits="userSpaceOnUse" x1="82.7863" y1="28.698" x2="347.8521" y2="129.4977">
			<stop  offset="0" style="stop-color:#F6F6F6"/>
			<stop  offset="0.297" style="stop-color:#B9BABE"/>
			<stop  offset="0.7868" style="stop-color:#F9F9F9"/>
			<stop  offset="1" style="stop-color:#B9BABE"/>
		</linearGradient>
		<path class="st7" d="M284.6,126.1c-3.3-3.6-4.9-8.5-4.9-14.8c0-4.1,0.9-7.7,2.6-10.7c1.7-3.1,4.1-5.5,7.2-7.1
			c3.1-1.7,6.7-2.5,10.7-2.5c6.7,0,11.7,1.7,15,5.2c3.3,3.5,5,8.3,5,14.5c0,4.1-0.9,7.8-2.6,10.9c-1.8,3.2-4.2,5.6-7.4,7.4
			c-3.1,1.7-6.8,2.6-10.8,2.6C292.8,131.5,287.8,129.7,284.6,126.1z M292.2,98.5c-1.9,2.9-2.8,7.1-2.8,12.8c0,5.6,0.9,9.8,2.7,12.7
			c1.8,2.9,4.4,4.3,7.7,4.3c3.3,0,5.8-1.5,7.7-4.5c1.9-3,2.8-7.4,2.8-13.1c0-5.5-0.9-9.6-2.7-12.4s-4.3-4.1-7.7-4.1
			C296.6,94.2,294,95.7,292.2,98.5z"/>
		<linearGradient id="SVGID_9_" gradientUnits="userSpaceOnUse" x1="88.7922" y1="12.9047" x2="353.858" y2="113.7044">
			<stop  offset="0" style="stop-color:#F6F6F6"/>
			<stop  offset="0.297" style="stop-color:#B9BABE"/>
			<stop  offset="0.7868" style="stop-color:#F9F9F9"/>
			<stop  offset="1" style="stop-color:#B9BABE"/>
		</linearGradient>
		<path class="st8" d="M331.8,95.4l-4.2-0.7v-3.3h12.1l15.8,23.9l3,6.1v-26l-4.6-0.7v-3.3h13.2v3.3l-4.1,0.7V131h-6.4L340,105.8
			l-3.7-7v28.4l5.4,0.5v3.2h-14.1v-3.2l4.2-0.5V95.4z"/>
		<linearGradient id="SVGID_10_" gradientUnits="userSpaceOnUse" x1="49.6892" y1="115.7312" x2="314.7549" y2="216.5309">
			<stop  offset="0" style="stop-color:#F6F6F6"/>
			<stop  offset="0.297" style="stop-color:#B9BABE"/>
			<stop  offset="0.7868" style="stop-color:#F9F9F9"/>
			<stop  offset="1" style="stop-color:#B9BABE"/>
		</linearGradient>
		<path class="st9" d="M134.3,142.1l-1.7-0.3v-1.4h7.1v1.4l-2.1,0.3v13.2l4.7-0.2l1.4-4.1l1.8,0.2l-0.7,5.7h-12.2v-1.3l1.7-0.2
			V142.1z"/>
		<linearGradient id="SVGID_11_" gradientUnits="userSpaceOnUse" x1="51.9649" y1="109.7468" x2="317.0307" y2="210.5465">
			<stop  offset="0" style="stop-color:#F6F6F6"/>
			<stop  offset="0.297" style="stop-color:#B9BABE"/>
			<stop  offset="0.7868" style="stop-color:#F9F9F9"/>
			<stop  offset="1" style="stop-color:#B9BABE"/>
		</linearGradient>
		<path class="st10" d="M155.6,140.3h3.4l5.1,15l1.3,0.2v1.3h-6.5v-1.3l1.7-0.2l-0.9-2.9h-5.7l-0.9,2.9l1.8,0.2v1.3h-5.6l0-1.3
			l1.3-0.2L155.6,140.3z M157.1,144l-0.4-1.7l-0.4,1.7l-2,6.8h4.9L157.1,144z"/>
		<linearGradient id="SVGID_12_" gradientUnits="userSpaceOnUse" x1="55.5812" y1="100.2375" x2="320.6469" y2="201.0372">
			<stop  offset="0" style="stop-color:#F6F6F6"/>
			<stop  offset="0.297" style="stop-color:#B9BABE"/>
			<stop  offset="0.7868" style="stop-color:#F9F9F9"/>
			<stop  offset="1" style="stop-color:#B9BABE"/>
		</linearGradient>
		<path class="st11" d="M168.3,140.4h6.6v1.4l-1.9,0.3l2.8,10l0.5,2.5l0.5-2.5l2.4-8.1l-0.6-1.9l-1.5-0.3v-1.4h6.9v1.4l-2.1,0.3
			l2.8,10l0.6,2.7l0.5-2.7l2.5-10l-2-0.3v-1.4h5.3v1.4l-1.4,0.3l-4.2,14.9h-2.9l-3-10.3l-2.9,10.3h-2.9l-4.6-14.8l-1.3-0.3V140.4z"
			/>
		<linearGradient id="SVGID_13_" gradientUnits="userSpaceOnUse" x1="59.4851" y1="89.9717" x2="324.5508" y2="190.7713">
			<stop  offset="0" style="stop-color:#F6F6F6"/>
			<stop  offset="0.297" style="stop-color:#B9BABE"/>
			<stop  offset="0.7868" style="stop-color:#F9F9F9"/>
			<stop  offset="1" style="stop-color:#B9BABE"/>
		</linearGradient>
		<path class="st12" d="M208.2,156c-1.2-0.7-2.1-1.7-2.7-3c-0.6-1.3-0.9-2.7-0.9-4.2c0-1.8,0.3-3.4,1-4.7c0.7-1.3,1.7-2.3,3-2.9
			c1.3-0.7,2.8-1,4.5-1c1.6,0,3.4,0.2,5.4,0.7l-0.2,4.1h-2.2l-0.6-2.8c-0.1-0.1-0.4-0.3-0.8-0.4c-0.4-0.1-1-0.2-1.6-0.2
			c-1.4,0-2.6,0.6-3.4,1.8s-1.2,2.9-1.2,5.1c0,2.2,0.4,3.9,1.1,5.2c0.7,1.3,1.8,2,3.2,2c0.6,0,1.1-0.1,1.7-0.2s0.9-0.3,1.2-0.6v-4.8
			l-2.3-0.2v-1.5h6.7v1.5l-1.2,0.2v5.9c-0.3,0-0.9,0.1-1.7,0.4c-0.9,0.3-1.7,0.4-2.4,0.6c-0.7,0.1-1.4,0.2-2.2,0.2
			C210.8,157.1,209.4,156.7,208.2,156z"/>
		<linearGradient id="SVGID_14_" gradientUnits="userSpaceOnUse" x1="61.405" y1="84.923" x2="326.4707" y2="185.7227">
			<stop  offset="0" style="stop-color:#F6F6F6"/>
			<stop  offset="0.297" style="stop-color:#B9BABE"/>
			<stop  offset="0.7868" style="stop-color:#F9F9F9"/>
			<stop  offset="1" style="stop-color:#B9BABE"/>
		</linearGradient>
		<path class="st13" d="M223.5,155.5l1.9-0.2v-13.2l-1.8-0.3v-1.3h3.5c0.3,0,0.6,0,1,0c0.4,0,0.6,0,0.8,0c0.8-0.1,1.5-0.1,2.1-0.1
			c1.7,0,3,0.2,4,0.5s1.7,0.8,2.2,1.4c0.4,0.6,0.7,1.5,0.7,2.5c0,1-0.3,2-0.9,2.8c-0.6,0.9-1.5,1.5-2.6,1.8c0.6,0.3,1.2,0.7,1.7,1.4
			c0.5,0.7,1,1.5,1.6,2.6c0.4,0.7,0.7,1.2,0.9,1.6c0.2,0.3,0.4,0.5,0.6,0.5l0.8,0.2v1.3H236c-0.3,0-0.5-0.2-0.8-0.7
			c-0.3-0.5-0.6-1.2-1.1-2.3c-0.5-1.2-1-2.1-1.4-2.8c-0.4-0.7-0.8-1.1-1.2-1.3H229v5.5l2.2,0.2v1.3h-7.7V155.5z M233.3,147.5
			c0.5-0.6,0.8-1.5,0.8-2.7c0-1.1-0.3-1.9-0.8-2.4c-0.5-0.5-1.4-0.8-2.6-0.8c-0.4,0-0.8,0-1.1,0.1c-0.3,0-0.5,0.1-0.6,0.1v6.6
			c0.2,0,0.7,0,1.4,0h0.8C232.1,148.4,232.8,148.1,233.3,147.5z"/>
		<linearGradient id="SVGID_15_" gradientUnits="userSpaceOnUse" x1="64.2065" y1="77.5561" x2="329.2722" y2="178.3557">
			<stop  offset="0" style="stop-color:#F6F6F6"/>
			<stop  offset="0.297" style="stop-color:#B9BABE"/>
			<stop  offset="0.7868" style="stop-color:#F9F9F9"/>
			<stop  offset="1" style="stop-color:#B9BABE"/>
		</linearGradient>
		<path class="st14" d="M245.1,154.8c-1.3-1.5-1.9-3.6-1.9-6.1c0-1.7,0.3-3.2,1-4.5c0.7-1.3,1.6-2.3,2.9-3c1.2-0.7,2.6-1,4.2-1
			c2.6,0,4.6,0.7,5.9,2.2c1.3,1.4,2,3.4,2,6c0,1.7-0.3,3.2-1,4.5c-0.7,1.3-1.7,2.3-2.9,3.1c-1.2,0.7-2.7,1.1-4.3,1.1
			C248.3,157.1,246.3,156.3,245.1,154.8z M248.1,143.3c-0.7,1.2-1.1,3-1.1,5.3c0,2.3,0.4,4.1,1.1,5.3c0.7,1.2,1.7,1.8,3.1,1.8
			c1.3,0,2.3-0.6,3-1.9s1.1-3.1,1.1-5.4c0-2.3-0.4-4-1.1-5.1c-0.7-1.1-1.7-1.7-3-1.7C249.8,141.6,248.8,142.1,248.1,143.3z"/>
		<linearGradient id="SVGID_16_" gradientUnits="userSpaceOnUse" x1="67.19" y1="69.7107" x2="332.2557" y2="170.5103">
			<stop  offset="0" style="stop-color:#F6F6F6"/>
			<stop  offset="0.297" style="stop-color:#B9BABE"/>
			<stop  offset="0.7868" style="stop-color:#F9F9F9"/>
			<stop  offset="1" style="stop-color:#B9BABE"/>
		</linearGradient>
		<path class="st15" d="M267,155.3c-1.1-1.1-1.6-2.9-1.6-5.3v-8l-1.5-0.3v-1.4h6.7v1.4l-1.9,0.3v8.2c0,3.5,1.2,5.3,3.7,5.3
			c1.2,0,2.1-0.5,2.7-1.4c0.6-0.9,0.9-2.2,0.9-3.8v-8.3l-1.9-0.3v-1.4h5.5v1.4l-1.5,0.3v8.2c0,2.3-0.6,4-1.7,5.1
			c-1.1,1.1-2.6,1.7-4.5,1.7C269.7,157,268.1,156.4,267,155.3z"/>
		<linearGradient id="SVGID_17_" gradientUnits="userSpaceOnUse" x1="69.0431" y1="64.8376" x2="334.1089" y2="165.6372">
			<stop  offset="0" style="stop-color:#F6F6F6"/>
			<stop  offset="0.297" style="stop-color:#B9BABE"/>
			<stop  offset="0.7868" style="stop-color:#F9F9F9"/>
			<stop  offset="1" style="stop-color:#B9BABE"/>
		</linearGradient>
		<path class="st16" d="M286.2,142.1l-1.7-0.3v-1.4h3.3c0.3,0,0.8,0,1.4,0c0.9-0.1,1.6-0.1,2.3-0.1c1.5,0,2.7,0.2,3.6,0.6
			c0.9,0.4,1.5,0.9,1.9,1.6c0.4,0.7,0.6,1.6,0.6,2.7c0,1.9-0.6,3.3-1.7,4.3c-1.2,1-2.8,1.5-4.8,1.5c-0.8,0-1.4,0-1.7-0.1v4.4l3,0.2
			v1.3h-8v-1.3l1.7-0.2V142.1z M291.2,149.6c1,0,1.8-0.3,2.4-1c0.6-0.7,0.9-1.8,0.9-3.4c0-1.2-0.3-2.1-0.8-2.7
			c-0.5-0.6-1.4-0.8-2.5-0.8c-0.4,0-0.8,0-1.3,0.1c-0.2,0-0.4,0-0.4,0v7.8C289.8,149.6,290.4,149.6,291.2,149.6z"/>
		<linearGradient id="SVGID_18_" gradientUnits="userSpaceOnUse" x1="34.0086" y1="156.9654" x2="299.0743" y2="257.765">
			<stop  offset="0" style="stop-color:#F6F6F6"/>
			<stop  offset="0.297" style="stop-color:#B9BABE"/>
			<stop  offset="0.7868" style="stop-color:#F9F9F9"/>
			<stop  offset="1" style="stop-color:#B9BABE"/>
		</linearGradient>
		<path class="st17" d="M70.1,164.2h3l3.7,11.1l0.9,0.2v1.1h-5.2v-1.1l1.2-0.2l-0.6-2h-4l-0.6,2l1.3,0.1v1.1h-4.4l0-1.1l1-0.2
			L70.1,164.2z M71.4,167.1l-0.2-1.2l-0.3,1.2l-1.3,4.9h3.3L71.4,167.1z"/>
		<linearGradient id="SVGID_19_" gradientUnits="userSpaceOnUse" x1="36.6736" y1="149.9574" x2="301.7393" y2="250.7571">
			<stop  offset="0" style="stop-color:#F6F6F6"/>
			<stop  offset="0.297" style="stop-color:#B9BABE"/>
			<stop  offset="0.7868" style="stop-color:#F9F9F9"/>
			<stop  offset="1" style="stop-color:#B9BABE"/>
		</linearGradient>
		<path class="st18" d="M85.4,175.1c-1-1.1-1.5-2.6-1.5-4.6c0-1.3,0.3-2.4,0.8-3.4c0.5-1,1.3-1.7,2.2-2.2c0.9-0.5,2-0.8,3.1-0.8
			c0.5,0,0.9,0,1.3,0.1c0.4,0,1,0.1,1.6,0.2c0.5,0.1,0.8,0.1,1,0.1l-0.2,3.7h-1.8l-0.6-2.5c-0.2-0.3-0.8-0.4-1.5-0.4
			c-0.9,0-1.5,0.4-2,1.3c-0.5,0.8-0.7,2.1-0.7,3.7c0,1.6,0.2,2.9,0.7,3.8c0.5,1,1.2,1.4,2.1,1.4c0.5,0,0.8,0,1-0.1
			c0.2-0.1,0.4-0.2,0.6-0.4l0.7-1.8l1.6,0.2l-0.3,2.7c-0.3,0-0.7,0.1-1.2,0.2c-0.4,0.1-0.9,0.2-1.3,0.3c-0.4,0.1-0.9,0.1-1.4,0.1
			C87.8,176.8,86.4,176.2,85.4,175.1z"/>
		<linearGradient id="SVGID_20_" gradientUnits="userSpaceOnUse" x1="38.8074" y1="144.3464" x2="303.8731" y2="245.146">
			<stop  offset="0" style="stop-color:#F6F6F6"/>
			<stop  offset="0.297" style="stop-color:#B9BABE"/>
			<stop  offset="0.7868" style="stop-color:#F9F9F9"/>
			<stop  offset="1" style="stop-color:#B9BABE"/>
		</linearGradient>
		<path class="st19" d="M102.3,175.1c-1-1.1-1.5-2.6-1.5-4.6c0-1.3,0.3-2.4,0.8-3.4c0.5-1,1.3-1.7,2.2-2.2c0.9-0.5,2-0.8,3.1-0.8
			c0.5,0,0.9,0,1.3,0.1c0.4,0,1,0.1,1.6,0.2c0.5,0.1,0.8,0.1,1,0.1l-0.2,3.7h-1.8l-0.6-2.5c-0.2-0.3-0.8-0.4-1.5-0.4
			c-0.9,0-1.5,0.4-2,1.3c-0.5,0.8-0.7,2.1-0.7,3.7c0,1.6,0.2,2.9,0.7,3.8c0.5,1,1.2,1.4,2.1,1.4c0.5,0,0.8,0,1-0.1
			c0.2-0.1,0.4-0.2,0.6-0.4l0.7-1.8l1.6,0.2l-0.3,2.7c-0.3,0-0.7,0.1-1.2,0.2c-0.4,0.1-0.9,0.2-1.3,0.3c-0.4,0.1-0.9,0.1-1.4,0.1
			C104.7,176.8,103.2,176.2,102.3,175.1z"/>
		<linearGradient id="SVGID_21_" gradientUnits="userSpaceOnUse" x1="40.4894" y1="139.9233" x2="305.5551" y2="240.7229">
			<stop  offset="0" style="stop-color:#F6F6F6"/>
			<stop  offset="0.297" style="stop-color:#B9BABE"/>
			<stop  offset="0.7868" style="stop-color:#F9F9F9"/>
			<stop  offset="1" style="stop-color:#B9BABE"/>
		</linearGradient>
		<path class="st20" d="M119.2,165.7l-1.4-0.2v-1.2h5.6v1.2l-1.4,0.2v9.7l1.4,0.2v1.1h-5.6v-1.1l1.3-0.2V165.7z"/>
		<linearGradient id="SVGID_22_" gradientUnits="userSpaceOnUse" x1="42.2201" y1="135.3723" x2="307.2858" y2="236.1719">
			<stop  offset="0" style="stop-color:#F6F6F6"/>
			<stop  offset="0.297" style="stop-color:#B9BABE"/>
			<stop  offset="0.7868" style="stop-color:#F9F9F9"/>
			<stop  offset="1" style="stop-color:#B9BABE"/>
		</linearGradient>
		<path class="st21" d="M131.9,165.7l-1.2-0.2v-1.2h2.6c0.4,0,0.9,0,1.5-0.1c0.1,0,0.4,0,0.7,0c0.3,0,0.6,0,0.8,0
			c2,0,3.5,0.5,4.5,1.5c1,1,1.5,2.4,1.5,4.3c0,1.3-0.2,2.4-0.7,3.5c-0.5,1-1.2,1.8-2.1,2.4c-0.9,0.6-2,0.9-3.3,0.9
			c-0.3,0-0.9,0-1.5-0.1c-0.6,0-1.1-0.1-1.2-0.1h-2.7v-1.1l1.3-0.2V165.7z M136,175.5c1,0,1.8-0.4,2.3-1.3c0.5-0.8,0.8-2.1,0.8-3.8
			c0-1.6-0.3-2.8-0.8-3.7s-1.4-1.4-2.5-1.4c-0.3,0-0.5,0-0.7,0.1c-0.2,0-0.3,0.1-0.4,0.1v9.9C135.1,175.5,135.5,175.5,136,175.5z"/>
		<linearGradient id="SVGID_23_" gradientUnits="userSpaceOnUse" x1="44.6605" y1="128.9547" x2="309.7263" y2="229.7544">
			<stop  offset="0" style="stop-color:#F6F6F6"/>
			<stop  offset="0.297" style="stop-color:#B9BABE"/>
			<stop  offset="0.7868" style="stop-color:#F9F9F9"/>
			<stop  offset="1" style="stop-color:#B9BABE"/>
		</linearGradient>
		<path class="st22" d="M150.4,165.7l-1.3-0.2v-1.2h9.1l0.2,2.9h-1.3l-0.6-1.7l-3.3-0.2v4.3l2,0l0.3-1.4h1.1v4.2h-1.1l-0.3-1.4l-2,0
			v4.5l3.6-0.2l1-2.1l1.4,0.4l-0.4,3.1h-9.8v-1.1l1.3-0.2V165.7z"/>
		<linearGradient id="SVGID_24_" gradientUnits="userSpaceOnUse" x1="47.0036" y1="122.7934" x2="312.0693" y2="223.593">
			<stop  offset="0" style="stop-color:#F6F6F6"/>
			<stop  offset="0.297" style="stop-color:#B9BABE"/>
			<stop  offset="0.7868" style="stop-color:#F9F9F9"/>
			<stop  offset="1" style="stop-color:#B9BABE"/>
		</linearGradient>
		<path class="st23" d="M167.3,165.6l-1.3-0.2v-1.2h4.2l4.6,7.1l0.9,2v-7.7l-1.4-0.2v-1.2h4.2v1.2l-1.3,0.2v10.9h-2.4l-4.9-7.6
			l-1.1-2.2v8.5l1.8,0.2v1.1H166v-1.1l1.3-0.2V165.6z"/>
		<linearGradient id="SVGID_25_" gradientUnits="userSpaceOnUse" x1="49.4546" y1="116.3482" x2="314.5203" y2="217.1478">
			<stop  offset="0" style="stop-color:#F6F6F6"/>
			<stop  offset="0.297" style="stop-color:#B9BABE"/>
			<stop  offset="0.7868" style="stop-color:#F9F9F9"/>
			<stop  offset="1" style="stop-color:#B9BABE"/>
		</linearGradient>
		<path class="st24" d="M189.3,165.5l-2.1,0.1l-0.7,3.7h-1.6l0.3-5h10.9l0.2,5h-1.5l-0.7-3.7l-2-0.1v9.8l2.3,0.2v1.1h-7.3v-1.1
			l2.1-0.2V165.5z"/>
		<linearGradient id="SVGID_26_" gradientUnits="userSpaceOnUse" x1="52.5355" y1="108.2464" x2="317.6013" y2="209.0461">
			<stop  offset="0" style="stop-color:#F6F6F6"/>
			<stop  offset="0.297" style="stop-color:#B9BABE"/>
			<stop  offset="0.7868" style="stop-color:#F9F9F9"/>
			<stop  offset="1" style="stop-color:#B9BABE"/>
		</linearGradient>
		<path class="st25" d="M216.8,164.2h3l3.7,11.1l0.9,0.2v1.1h-5.2v-1.1l1.2-0.2l-0.6-2h-4l-0.6,2l1.3,0.1v1.1h-4.4l0-1.1l1-0.2
			L216.8,164.2z M218,167.1l-0.2-1.2l-0.3,1.2l-1.3,4.9h3.3L218,167.1z"/>
		<linearGradient id="SVGID_27_" gradientUnits="userSpaceOnUse" x1="55.192" y1="101.2608" x2="320.2578" y2="202.0604">
			<stop  offset="0" style="stop-color:#F6F6F6"/>
			<stop  offset="0.297" style="stop-color:#B9BABE"/>
			<stop  offset="0.7868" style="stop-color:#F9F9F9"/>
			<stop  offset="1" style="stop-color:#B9BABE"/>
		</linearGradient>
		<path class="st26" d="M234.7,165.5l-2.1,0.1l-0.7,3.7h-1.6l0.3-5h10.9l0.2,5h-1.5l-0.7-3.7l-2-0.1v9.8l2.3,0.2v1.1h-7.3v-1.1
			l2.1-0.2V165.5z"/>
		<linearGradient id="SVGID_28_" gradientUnits="userSpaceOnUse" x1="57.4574" y1="95.3037" x2="322.5231" y2="196.1034">
			<stop  offset="0" style="stop-color:#F6F6F6"/>
			<stop  offset="0.297" style="stop-color:#B9BABE"/>
			<stop  offset="0.7868" style="stop-color:#F9F9F9"/>
			<stop  offset="1" style="stop-color:#B9BABE"/>
		</linearGradient>
		<path class="st27" d="M252.6,165.5l-2.1,0.1l-0.7,3.7h-1.6l0.3-5h10.9l0.2,5h-1.5l-0.7-3.7l-2-0.1v9.8l2.3,0.2v1.1h-7.3v-1.1
			l2.1-0.2V165.5z"/>
		<linearGradient id="SVGID_29_" gradientUnits="userSpaceOnUse" x1="59.5147" y1="89.8937" x2="324.5805" y2="190.6933">
			<stop  offset="0" style="stop-color:#F6F6F6"/>
			<stop  offset="0.297" style="stop-color:#B9BABE"/>
			<stop  offset="0.7868" style="stop-color:#F9F9F9"/>
			<stop  offset="1" style="stop-color:#B9BABE"/>
		</linearGradient>
		<path class="st28" d="M266.5,175.1c-1-1.1-1.5-2.7-1.5-4.6c0-1.3,0.3-2.4,0.8-3.3c0.5-1,1.3-1.7,2.2-2.2c1-0.5,2.1-0.8,3.4-0.8
			c2.1,0,3.7,0.5,4.7,1.6c1,1.1,1.5,2.6,1.5,4.5c0,1.3-0.3,2.4-0.8,3.4c-0.5,1-1.3,1.8-2.3,2.3c-1,0.5-2.1,0.8-3.4,0.8
			C269,176.8,267.5,176.2,266.5,175.1z M269.2,166.5c-0.5,0.9-0.7,2.2-0.7,3.9c0,1.8,0.2,3.1,0.7,3.9c0.5,0.9,1.2,1.3,2.1,1.3
			c0.9,0,1.6-0.5,2.1-1.4c0.5-0.9,0.7-2.3,0.7-4c0-1.8-0.2-3-0.7-3.8c-0.5-0.8-1.2-1.2-2.1-1.2C270.4,165.2,269.7,165.6,269.2,166.5
			z"/>
		<linearGradient id="SVGID_30_" gradientUnits="userSpaceOnUse" x1="61.6745" y1="84.2142" x2="326.7403" y2="185.0139">
			<stop  offset="0" style="stop-color:#F6F6F6"/>
			<stop  offset="0.297" style="stop-color:#B9BABE"/>
			<stop  offset="0.7868" style="stop-color:#F9F9F9"/>
			<stop  offset="1" style="stop-color:#B9BABE"/>
		</linearGradient>
		<path class="st29" d="M284.5,175.5l1.3-0.2v-9.7l-1.2-0.2v-1.1h2.6c0.2,0,0.4,0,0.7,0c0.2,0,0.4,0,0.6,0c0.6,0,1.1-0.1,1.5-0.1
			c1.2,0,2.1,0.1,2.8,0.3c0.7,0.2,1.2,0.6,1.5,1.1c0.3,0.5,0.5,1.1,0.5,1.9c0,0.7-0.2,1.5-0.6,2.1c-0.4,0.7-1,1.1-1.8,1.3
			c0.5,0.2,0.9,0.5,1.3,1.1c0.3,0.5,0.7,1.2,1.1,2c0.2,0.5,0.4,0.8,0.5,1c0.1,0.2,0.3,0.4,0.4,0.4l0.5,0.1v1.1H293
			c-0.2,0-0.3-0.2-0.5-0.5c-0.2-0.4-0.4-0.9-0.7-1.7c-0.3-0.9-0.6-1.6-0.9-2.1c-0.2-0.5-0.5-0.8-0.8-0.9h-1.5v4l1.5,0.2v1.1h-5.6
			V175.5z M291.3,169.6c0.3-0.4,0.5-1.1,0.5-2c0-0.8-0.2-1.4-0.5-1.8c-0.3-0.4-0.8-0.6-1.6-0.6c-0.4,0-0.7,0-1,0.1v4.9
			c0.1,0,0.4,0,0.7,0s0.5,0,0.6,0C290.5,170.3,290.9,170,291.3,169.6z"/>
		<linearGradient id="SVGID_31_" gradientUnits="userSpaceOnUse" x1="64.2614" y1="77.4117" x2="329.3271" y2="178.2113">
			<stop  offset="0" style="stop-color:#F6F6F6"/>
			<stop  offset="0.297" style="stop-color:#B9BABE"/>
			<stop  offset="0.7868" style="stop-color:#F9F9F9"/>
			<stop  offset="1" style="stop-color:#B9BABE"/>
		</linearGradient>
		<path class="st30" d="M303.9,165.6l-1.3-0.2v-1.2h4.2l4.6,7.1l0.9,2v-7.7l-1.4-0.2v-1.2h4.2v1.2l-1.3,0.2v10.9h-2.4l-4.9-7.6
			l-1.1-2.2v8.5l1.8,0.2v1.1h-4.6v-1.1l1.3-0.2V165.6z"/>
		<linearGradient id="SVGID_32_" gradientUnits="userSpaceOnUse" x1="66.5516" y1="71.3893" x2="331.6173" y2="172.189">
			<stop  offset="0" style="stop-color:#F6F6F6"/>
			<stop  offset="0.297" style="stop-color:#B9BABE"/>
			<stop  offset="0.7868" style="stop-color:#F9F9F9"/>
			<stop  offset="1" style="stop-color:#B9BABE"/>
		</linearGradient>
		<path class="st31" d="M323.8,165.7l-1.3-0.2v-1.2h9.1l0.2,2.9h-1.3l-0.6-1.7l-3.3-0.2v4.3l2,0l0.3-1.4h1.1v4.2h-1.1l-0.3-1.4l-2,0
			v4.5l3.6-0.2l1-2.1l1.4,0.4l-0.4,3.1h-9.8v-1.1l1.3-0.2V165.7z"/>
		<linearGradient id="SVGID_33_" gradientUnits="userSpaceOnUse" x1="68.9802" y1="65.0029" x2="334.046" y2="165.8026">
			<stop  offset="0" style="stop-color:#F6F6F6"/>
			<stop  offset="0.297" style="stop-color:#B9BABE"/>
			<stop  offset="0.7868" style="stop-color:#F9F9F9"/>
			<stop  offset="1" style="stop-color:#B9BABE"/>
		</linearGradient>
		<path class="st32" d="M343.5,171.7l-3.4-6l-0.9-0.2v-1.2h5.2v1.2l-1.1,0.2l1.9,3.8l0.4,1.1l0.4-1.1l1.7-3.8l-1.3-0.2v-1.2h4.2v1.2
			l-1,0.2l-3.2,6v3.7l1.8,0.2v1.1h-6.5v-1.1l1.7-0.2V171.7z"/>
		<linearGradient id="SVGID_34_" gradientUnits="userSpaceOnUse" x1="70.9453" y1="59.8354" x2="336.0111" y2="160.6351">
			<stop  offset="0" style="stop-color:#F6F6F6"/>
			<stop  offset="0.297" style="stop-color:#B9BABE"/>
			<stop  offset="0.7868" style="stop-color:#F9F9F9"/>
			<stop  offset="1" style="stop-color:#B9BABE"/>
		</linearGradient>
		<path class="st33" d="M359.5,176.4c-0.5-0.1-1.1-0.2-1.6-0.4c-0.4-0.1-0.6-0.2-0.8-0.2l0.1-3.1h1.5l0.4,2.1
			c0.1,0.1,0.3,0.3,0.7,0.4s0.7,0.2,1.2,0.2c0.7,0,1.2-0.2,1.5-0.4c0.3-0.3,0.5-0.7,0.5-1.2c0-0.4-0.1-0.7-0.3-1
			c-0.2-0.3-0.5-0.5-0.9-0.7c-0.4-0.2-0.9-0.5-1.6-0.8c-0.9-0.4-1.6-0.9-2.2-1.5c-0.6-0.6-0.9-1.4-0.9-2.4c0-0.6,0.2-1.2,0.5-1.7
			c0.3-0.5,0.8-0.9,1.5-1.2c0.7-0.3,1.5-0.5,2.4-0.5c0.6,0,1.1,0,1.5,0.1c0.4,0.1,0.9,0.2,1.4,0.3c0.3,0.1,0.5,0.1,0.6,0.2l-0.1,2.9
			h-1.5l-0.4-2c-0.1-0.1-0.3-0.2-0.5-0.3c-0.3-0.1-0.6-0.1-0.9-0.1c-0.6,0-1.1,0.1-1.4,0.4c-0.3,0.3-0.5,0.7-0.5,1.1
			c0,0.4,0.1,0.7,0.4,1c0.3,0.3,0.6,0.5,0.9,0.8c0.4,0.2,0.9,0.5,1.6,0.9c0.6,0.3,1.1,0.6,1.5,0.9c0.4,0.3,0.8,0.7,1.1,1.1
			c0.3,0.5,0.5,1,0.5,1.6c0,0.6-0.1,1.2-0.4,1.8c-0.3,0.6-0.8,1-1.5,1.4c-0.7,0.4-1.6,0.6-2.8,0.6
			C360.6,176.6,360,176.5,359.5,176.4z"/>
		<linearGradient id="SVGID_35_" gradientUnits="userSpaceOnUse" x1="44.9657" y1="128.1522" x2="310.0315" y2="228.9518">
			<stop  offset="0" style="stop-color:#F6F6F6"/>
			<stop  offset="0.297" style="stop-color:#B9BABE"/>
			<stop  offset="0.7868" style="stop-color:#F9F9F9"/>
			<stop  offset="1" style="stop-color:#B9BABE"/>
		</linearGradient>
		<rect x="65.8" y="147.4" class="st34" width="62" height="0.9"/>
		<linearGradient id="SVGID_36_" gradientUnits="userSpaceOnUse" x1="75.2051" y1="48.6337" x2="340.2709" y2="149.4334">
			<stop  offset="0" style="stop-color:#F6F6F6"/>
			<stop  offset="0.297" style="stop-color:#B9BABE"/>
			<stop  offset="0.7868" style="stop-color:#F9F9F9"/>
			<stop  offset="1" style="stop-color:#B9BABE"/>
		</linearGradient>
		<rect x="305.1" y="147.4" class="st35" width="62" height="0.9"/>
	</g>
	<g>
		<linearGradient id="SVGID_37_" gradientUnits="userSpaceOnUse" x1="-21.1964" y1="15.1265" x2="57.95" y2="189.0992">
			<stop  offset="0" style="stop-color:#B9BABE"/>
			<stop  offset="0.439" style="stop-color:#E4E4E9"/>
			<stop  offset="0.679" style="stop-color:#F6F6F6"/>
			<stop  offset="1" style="stop-color:#B9BABE"/>
		</linearGradient>
		<path class="st36" d="M10.1,126.3c4.6-4.9,11.9-11.5,22.2-16.7c6.1-3.1,11.8-5,16.5-6.2c0.6,8.9,1.4,17.1,1.8,25.8L8.6,146.1
			L10.1,126.3z"/>
		<linearGradient id="SVGID_38_" gradientUnits="userSpaceOnUse" x1="-6.9537" y1="8.647" x2="72.1926" y2="182.6197">
			<stop  offset="0" style="stop-color:#B9BABE"/>
			<stop  offset="0.439" style="stop-color:#E4E4E9"/>
			<stop  offset="0.679" style="stop-color:#F6F6F6"/>
			<stop  offset="1" style="stop-color:#B9BABE"/>
		</linearGradient>
		<path class="st37" d="M13.8,86.4C16.9,83,41.5,72,45.9,71.1c0.5,6.3,1.2,12.2,1.5,18.5l-35.3,14.6L13.8,86.4z"/>
		<linearGradient id="SVGID_39_" gradientUnits="userSpaceOnUse" x1="5.2143" y1="3.1113" x2="84.3607" y2="177.0841">
			<stop  offset="0" style="stop-color:#B9BABE"/>
			<stop  offset="0.439" style="stop-color:#E4E4E9"/>
			<stop  offset="0.679" style="stop-color:#F6F6F6"/>
			<stop  offset="1" style="stop-color:#B9BABE"/>
		</linearGradient>
		<path class="st38" d="M49,53.3h-3.8v-8.1c0-0.4-0.3-0.7-0.7-0.7H16.4c-0.4,0-0.7,0.3-0.7,0.7l-0.2,8.1h-4.3
			c-0.4,0-0.7,0.3-0.7,0.7v2.6c0,0.4,0.3,0.7,0.7,0.7h4.2L15,71.9l30.1-10.5v-4H49c0.4,0,0.7-0.3,0.7-0.7V54
			C49.8,53.6,49.4,53.3,49,53.3z"/>
		<linearGradient id="SVGID_40_" gradientUnits="userSpaceOnUse" x1="-36.5815" y1="22.1257" x2="42.5649" y2="196.0984">
			<stop  offset="0" style="stop-color:#B9BABE"/>
			<stop  offset="0.439" style="stop-color:#E4E4E9"/>
			<stop  offset="0.679" style="stop-color:#F6F6F6"/>
			<stop  offset="1" style="stop-color:#B9BABE"/>
		</linearGradient>
		<path class="st39" d="M54.3,173.1c-0.4-5-0.9-10-1.3-15c-0.4-5-0.9-9.9-1.3-14.9c-6.5,1.7-16.2,4.9-26.5,11.7
			c-9.3,6.2-15.7,13-19.8,18.2H0.5v1v2.6h59v-3.6v-0.1H54.3z"/>
		<linearGradient id="SVGID_41_" gradientUnits="userSpaceOnUse" x1="15.0307" y1="-1.3545" x2="94.1771" y2="172.6182">
			<stop  offset="0" style="stop-color:#B9BABE"/>
			<stop  offset="0.439" style="stop-color:#E4E4E9"/>
			<stop  offset="0.679" style="stop-color:#F6F6F6"/>
			<stop  offset="1" style="stop-color:#B9BABE"/>
		</linearGradient>
		<path class="st40" d="M45.1,26.5h-1.3c-0.3-1-0.7-2.1-1.2-3.3c-1-2.3-2.2-4.1-3.2-5.6c-2.1-2.1-4.3-4.2-6.4-6.3
			c-0.2-0.3-0.4-0.6-0.4-0.9l-0.4-2.2V1.6c0-0.7-0.5-1.2-1.2-1.2c-0.7,0-1.2,0.5-1.2,1.2v6.1l-0.6,2.8c0,0.4-0.2,0.8-0.5,1.1
			c-2.2,2.1-4.4,4.1-6.6,6.2c-1.2,1.5-2.4,3.4-3.5,5.6c-0.5,1.1-0.9,2.1-1.3,3h-1.5c-0.4,0-0.7,0.3-0.7,0.7v0.6
			c0,0.4,0.3,0.7,0.7,0.7h1c-0.1,0.9-0.2,1.7-0.2,2.6v7.2c0,0.1,0,0.2,0,0.3v2.1c0,1,0.8,1.7,1.7,1.7h1.6h21.5h1.2
			c1,0,1.7-0.8,1.7-1.7v-1.9c0.1-0.3,0.1-0.6,0.1-0.9v-7.4c0-0.6-0.1-1.3-0.2-1.9h0.9c0.4,0,0.7-0.3,0.7-0.7v-0.6
			C45.6,27,45.4,26.8,45.1,26.5z M38.5,38.6c0,0.4-0.3,0.7-0.7,0.7H22.9c-0.4,0-0.7-0.3-0.7-0.7v-6.1c0-0.2,0.1-0.4,0.3-0.5
			c0-0.1,0-0.1,0-0.2h15.9c0.1,0.1,0.1,0.3,0.1,0.4v0.2c0,0,0,0,0,0.1V38.6z"/>
	</g>
</g>
</svg>
