<?xml version="1.0" encoding="utf-8"?>
<!-- Generator: Adobe Illustrator 21.0.2, SVG Export Plug-In . SVG Version: 6.00 Build 0)  -->
<svg version="1.1" id="Layer_1" xmlns="http://www.w3.org/2000/svg" xmlns:xlink="http://www.w3.org/1999/xlink" x="0px" y="0px"
	 viewBox="0 0 367 177" style="enable-background:new 0 0 367 177;" xml:space="preserve">
<style type="text/css">
	.st0{fill:url(#SVGID_1_);}
	.st1{fill:#E5E5EA;}
</style>
<g>
	<linearGradient id="SVGID_1_" gradientUnits="userSpaceOnUse" x1="46.8822" y1="57.3093" x2="362.2572" y2="57.3093">
		<stop  offset="0" style="stop-color:#FF9639"/>
		<stop  offset="1" style="stop-color:#F2AF28"/>
	</linearGradient>
	<polygon class="st0" points="46.9,37.6 197.1,82.6 362.3,82.6 46.9,32 	"/>
	<g>
		<path class="st1" d="M65.9,95.1l-4.1-0.7v-3.3h17v3.3l-5.1,0.7v31.7l12.8-0.5l3.4-9.9l4.3,0.6l-1.6,13.6H61.7v-3.2l4.2-0.5V95.1z"
			/>
		<path class="st1" d="M103.5,95.1l-4.3-0.7v-3.3h28.3l0.7,8.9h-3.7l-1.8-5.3l-11.5-0.5v14.3l9.2-0.3l0.8-4.4h3.4v12.9h-3.4
			l-0.8-4.6l-9.2,0v15l12.9-0.6l3.1-6.8l4,1.1l-1.4,9.7H99.3v-3.2l4.2-0.5V95.1z"/>
		<path class="st1" d="M134.8,91.1H151v3.3l-4.5,0.7l7.9,23.8l1.5,5.4l1.3-5.4l7.4-23.8l-4.2-0.7v-3.3h12.9v3.3l-3.4,0.7L157.7,131
			h-6.3L138,95.1l-3.2-0.7V91.1z"/>
		<path class="st1" d="M181.7,95.1l-4.5-0.7v-3.3h17v3.3l-4.7,0.7v31.8l4.7,0.6v3.1h-17v-3.2l4.5-0.5V95.1z"/>
		<path class="st1" d="M204.1,95.1l-4.6-0.7v-3.3h13.1l17.2,23.9l3.2,6.1v-26l-5-0.7v-3.3h14.3v3.3l-4.4,0.7v35.5h-7l-18-25.1l-4-7
			v28.4l5.8,0.5v3.2h-15.3v-3.2l4.6-0.5V95.1z"/>
		<path class="st1" d="M256.6,130.7c-1.5-0.3-3.2-0.7-5.1-1.3c-1.2-0.4-2.1-0.5-2.5-0.6l0.5-9.8h4.3l1.2,6.9
			c0.5,0.5,1.3,0.9,2.5,1.3c1.2,0.4,2.5,0.6,4.1,0.6c2.4,0,4.2-0.5,5.3-1.6c1.2-1,1.8-2.5,1.8-4.4c0-1.2-0.4-2.3-1.1-3.2
			c-0.7-0.9-1.7-1.7-2.9-2.4c-1.2-0.7-2.9-1.6-5.1-2.5c-2.9-1.3-5.4-3-7.3-4.8c-1.9-1.9-2.9-4.4-2.9-7.6c0-2,0.5-3.8,1.5-5.4
			s2.6-2.9,4.6-3.8c2-0.9,4.5-1.4,7.5-1.4c1.7,0,3.3,0.1,4.6,0.4c1.3,0.2,2.8,0.6,4.3,1c0.9,0.2,1.6,0.4,2.1,0.5l-0.3,9.3h-4.3
			l-1.1-6.5c-0.3-0.3-1-0.6-1.9-0.9c-1-0.3-2-0.5-3.2-0.5c-2.1,0-3.7,0.5-4.8,1.5s-1.6,2.3-1.6,3.9c0,1.3,0.4,2.4,1.2,3.4
			c0.8,1,1.8,1.8,2.9,2.4c1.1,0.7,2.9,1.6,5.4,2.8c2,1,3.7,1.9,5.1,2.8c1.4,0.9,2.6,2.1,3.7,3.6c1,1.5,1.5,3.2,1.5,5.2
			c0,2-0.5,3.8-1.5,5.6c-1,1.8-2.6,3.2-4.8,4.4c-2.2,1.2-5,1.8-8.5,1.8C259.9,131.1,258.1,131,256.6,130.7z"/>
		<path class="st1" d="M285.3,125.8c-3.3-3.6-4.9-8.5-4.9-14.8c0-4.1,0.9-7.7,2.6-10.7c1.7-3.1,4.1-5.5,7.2-7.1
			c3.1-1.7,6.7-2.5,10.7-2.5c6.7,0,11.7,1.7,15,5.2s5,8.3,5,14.5c0,4.1-0.9,7.8-2.6,10.9c-1.8,3.2-4.2,5.6-7.4,7.4
			c-3.1,1.7-6.8,2.6-10.8,2.6C293.5,131.2,288.6,129.4,285.3,125.8z M292.9,98.2c-1.9,2.9-2.8,7.1-2.8,12.8c0,5.6,0.9,9.8,2.7,12.7
			c1.8,2.9,4.4,4.3,7.7,4.3c3.3,0,5.8-1.5,7.7-4.5c1.9-3,2.8-7.4,2.8-13.1c0-5.5-0.9-9.6-2.7-12.4c-1.8-2.7-4.3-4.1-7.7-4.1
			C297.4,93.9,294.8,95.3,292.9,98.2z"/>
		<path class="st1" d="M332.5,95.1l-4.2-0.7v-3.3h12.1l15.8,23.9l3,6.1v-26l-4.6-0.7v-3.3h13.2v3.3l-4.1,0.7v35.5h-6.4l-16.5-25.1
			l-3.7-7v28.4l5.4,0.5v3.2h-14.1v-3.2l4.2-0.5V95.1z"/>
		<path class="st1" d="M135.1,141.7l-1.7-0.3V140h7.1v1.4l-2.1,0.3v13.2l4.7-0.2l1.4-4.1l1.8,0.2l-0.7,5.7h-12.2v-1.3l1.7-0.2V141.7
			z"/>
		<path class="st1" d="M156.3,140h3.4l5.1,15l1.3,0.2v1.3h-6.5v-1.3l1.7-0.2l-0.9-2.9h-5.7l-0.9,2.9l1.8,0.2v1.3h-5.6l0-1.3l1.3-0.2
			L156.3,140z M157.8,143.7l-0.4-1.7l-0.4,1.7l-2,6.8h4.9L157.8,143.7z"/>
		<path class="st1" d="M169.1,140h6.6v1.4l-1.9,0.3l2.8,10l0.5,2.5l0.5-2.5l2.4-8.1l-0.6-1.9l-1.5-0.3V140h6.9v1.4l-2.1,0.3l2.8,10
			l0.6,2.7l0.5-2.7l2.5-10l-2-0.3V140h5.3v1.4l-1.4,0.3l-4.2,14.9h-2.9l-3-10.3l-2.9,10.3H175l-4.6-14.8l-1.3-0.3V140z"/>
		<path class="st1" d="M209,155.6c-1.2-0.7-2.1-1.7-2.7-3c-0.6-1.3-0.9-2.7-0.9-4.2c0-1.8,0.3-3.4,1-4.7c0.7-1.3,1.7-2.3,3-2.9
			s2.8-1,4.5-1c1.6,0,3.4,0.2,5.4,0.7l-0.2,4.1h-2.2l-0.6-2.8c-0.1-0.1-0.4-0.3-0.8-0.4c-0.4-0.1-1-0.2-1.6-0.2
			c-1.4,0-2.6,0.6-3.4,1.8s-1.2,2.9-1.2,5.1c0,2.2,0.4,3.9,1.1,5.2c0.7,1.3,1.8,2,3.2,2c0.6,0,1.1-0.1,1.7-0.2
			c0.5-0.1,0.9-0.3,1.2-0.6v-4.8l-2.3-0.2V148h6.7v1.5l-1.2,0.2v5.9c-0.3,0-0.9,0.1-1.7,0.4c-0.9,0.3-1.7,0.4-2.4,0.6
			c-0.7,0.1-1.4,0.2-2.2,0.2C211.5,156.7,210.1,156.4,209,155.6z"/>
		<path class="st1" d="M224.3,155.1l1.9-0.2v-13.2l-1.8-0.3V140h3.5c0.3,0,0.6,0,1,0c0.4,0,0.6,0,0.8,0c0.8-0.1,1.5-0.1,2.1-0.1
			c1.7,0,3,0.2,4,0.5s1.7,0.8,2.2,1.4c0.4,0.6,0.7,1.5,0.7,2.5c0,1-0.3,2-0.9,2.8c-0.6,0.9-1.5,1.5-2.6,1.8c0.6,0.3,1.2,0.7,1.7,1.4
			c0.5,0.7,1,1.5,1.6,2.6c0.4,0.7,0.7,1.2,0.9,1.6c0.2,0.3,0.4,0.5,0.6,0.5l0.8,0.2v1.3h-4.1c-0.3,0-0.5-0.2-0.8-0.7
			c-0.3-0.5-0.6-1.2-1.1-2.3c-0.5-1.2-1-2.1-1.4-2.8c-0.4-0.7-0.8-1.1-1.2-1.3h-2.5v5.5l2.2,0.2v1.3h-7.7V155.1z M234.1,147.1
			c0.5-0.6,0.8-1.5,0.8-2.7c0-1.1-0.3-1.9-0.8-2.4s-1.4-0.8-2.6-0.8c-0.4,0-0.8,0-1.1,0.1c-0.3,0-0.5,0.1-0.6,0.1v6.6
			c0.2,0,0.7,0,1.4,0h0.8C232.8,148,233.6,147.7,234.1,147.1z"/>
		<path class="st1" d="M245.8,154.5c-1.3-1.5-1.9-3.6-1.9-6.1c0-1.7,0.3-3.2,1-4.5c0.7-1.3,1.6-2.3,2.9-3c1.2-0.7,2.6-1,4.2-1
			c2.6,0,4.6,0.7,5.9,2.2c1.3,1.4,2,3.4,2,6c0,1.7-0.3,3.2-1,4.5c-0.7,1.3-1.7,2.3-2.9,3.1c-1.2,0.7-2.7,1.1-4.3,1.1
			C249,156.7,247.1,156,245.8,154.5z M248.8,143c-0.7,1.2-1.1,3-1.1,5.3c0,2.3,0.4,4.1,1.1,5.3s1.7,1.8,3.1,1.8c1.3,0,2.3-0.6,3-1.9
			c0.7-1.3,1.1-3.1,1.1-5.4c0-2.3-0.4-4-1.1-5.1c-0.7-1.1-1.7-1.7-3-1.7C250.6,141.2,249.5,141.8,248.8,143z"/>
		<path class="st1" d="M267.7,155c-1.1-1.1-1.6-2.9-1.6-5.3v-8l-1.5-0.3V140h6.7v1.4l-1.9,0.3v8.2c0,3.5,1.2,5.3,3.7,5.3
			c1.2,0,2.1-0.5,2.7-1.4c0.6-0.9,0.9-2.2,0.9-3.8v-8.3l-1.9-0.3V140h5.5v1.4l-1.5,0.3v8.2c0,2.3-0.6,4-1.7,5.1
			c-1.1,1.1-2.6,1.7-4.5,1.7C270.5,156.6,268.8,156.1,267.7,155z"/>
		<path class="st1" d="M287,141.7l-1.7-0.3V140h3.3c0.3,0,0.8,0,1.4,0c0.9-0.1,1.6-0.1,2.3-0.1c1.5,0,2.7,0.2,3.6,0.6
			c0.9,0.4,1.5,0.9,1.9,1.6c0.4,0.7,0.6,1.6,0.6,2.7c0,1.9-0.6,3.3-1.7,4.3s-2.8,1.5-4.8,1.5c-0.8,0-1.4,0-1.7-0.1v4.4l3,0.2v1.3h-8
			v-1.3l1.7-0.2V141.7z M291.9,149.3c1,0,1.8-0.3,2.4-1c0.6-0.7,0.9-1.8,0.9-3.4c0-1.2-0.3-2.1-0.8-2.7c-0.5-0.6-1.4-0.8-2.5-0.8
			c-0.4,0-0.8,0-1.3,0.1c-0.2,0-0.4,0-0.4,0v7.8C290.5,149.2,291.1,149.3,291.9,149.3z"/>
		<path class="st1" d="M70.9,163.9h3l3.7,11.1l0.9,0.2v1.1h-5.2v-1.1l1.2-0.2l-0.6-2h-4l-0.6,2l1.3,0.1v1.1h-4.4l0-1.1l1-0.2
			L70.9,163.9z M72.1,166.7l-0.2-1.2l-0.3,1.2l-1.3,4.9h3.3L72.1,166.7z"/>
		<path class="st1" d="M86.1,174.7c-1-1.1-1.5-2.6-1.5-4.6c0-1.3,0.3-2.4,0.8-3.4c0.5-1,1.3-1.7,2.2-2.2c0.9-0.5,2-0.8,3.1-0.8
			c0.5,0,0.9,0,1.3,0.1c0.4,0,1,0.1,1.6,0.2c0.5,0.1,0.8,0.1,1,0.1l-0.2,3.7h-1.8l-0.6-2.5c-0.2-0.3-0.8-0.4-1.5-0.4
			c-0.9,0-1.5,0.4-2,1.3c-0.5,0.8-0.7,2.1-0.7,3.7c0,1.6,0.2,2.9,0.7,3.8c0.5,1,1.2,1.4,2.1,1.4c0.5,0,0.8,0,1-0.1
			c0.2-0.1,0.4-0.2,0.6-0.4l0.7-1.8l1.6,0.2l-0.3,2.7c-0.3,0-0.7,0.1-1.2,0.2c-0.4,0.1-0.9,0.2-1.3,0.3c-0.4,0.1-0.9,0.1-1.4,0.1
			C88.6,176.4,87.1,175.8,86.1,174.7z"/>
		<path class="st1" d="M103,174.7c-1-1.1-1.5-2.6-1.5-4.6c0-1.3,0.3-2.4,0.8-3.4c0.5-1,1.3-1.7,2.2-2.2c0.9-0.5,2-0.8,3.1-0.8
			c0.5,0,0.9,0,1.3,0.1c0.4,0,1,0.1,1.6,0.2c0.5,0.1,0.8,0.1,1,0.1l-0.2,3.7h-1.8l-0.6-2.5c-0.2-0.3-0.8-0.4-1.5-0.4
			c-0.9,0-1.5,0.4-2,1.3c-0.5,0.8-0.7,2.1-0.7,3.7c0,1.6,0.2,2.9,0.7,3.8c0.5,1,1.2,1.4,2.1,1.4c0.5,0,0.8,0,1-0.1
			c0.2-0.1,0.4-0.2,0.6-0.4l0.7-1.8l1.6,0.2l-0.3,2.7c-0.3,0-0.7,0.1-1.2,0.2c-0.4,0.1-0.9,0.2-1.3,0.3c-0.4,0.1-0.9,0.1-1.4,0.1
			C105.4,176.4,104,175.8,103,174.7z"/>
		<path class="st1" d="M120,165.3l-1.4-0.2v-1.2h5.6v1.2l-1.4,0.2v9.7l1.4,0.2v1.1h-5.6v-1.1l1.3-0.2V165.3z"/>
		<path class="st1" d="M132.6,165.3l-1.2-0.2v-1.2h2.6c0.4,0,0.9,0,1.5-0.1c0.1,0,0.4,0,0.7,0s0.6,0,0.8,0c2,0,3.5,0.5,4.5,1.5
			c1,1,1.5,2.4,1.5,4.3c0,1.3-0.2,2.4-0.7,3.5c-0.5,1-1.2,1.8-2.1,2.4c-0.9,0.6-2,0.9-3.3,0.9c-0.3,0-0.9,0-1.5-0.1
			c-0.6,0-1.1-0.1-1.2-0.1h-2.7v-1.1l1.3-0.2V165.3z M136.8,175.1c1,0,1.8-0.4,2.3-1.3c0.5-0.8,0.8-2.1,0.8-3.8
			c0-1.6-0.3-2.8-0.8-3.7c-0.5-0.9-1.4-1.4-2.5-1.4c-0.3,0-0.5,0-0.7,0.1c-0.2,0-0.3,0.1-0.4,0.1v9.9
			C135.8,175.1,136.3,175.2,136.8,175.1z"/>
		<path class="st1" d="M151.2,165.3l-1.3-0.2v-1.2h9.1l0.2,2.9h-1.3l-0.6-1.7L154,165v4.3l2,0l0.3-1.4h1.1v4.2h-1.1l-0.3-1.4l-2,0
			v4.5l3.6-0.2l1-2.1l1.4,0.4l-0.4,3.1h-9.8v-1.1l1.3-0.2V165.3z"/>
		<path class="st1" d="M168,165.3l-1.3-0.2v-1.2h4.2l4.6,7.1l0.9,2v-7.7l-1.4-0.2v-1.2h4.2v1.2l-1.3,0.2v10.9h-2.4l-4.9-7.6
			l-1.1-2.2v8.5l1.8,0.2v1.1h-4.6v-1.1l1.3-0.2V165.3z"/>
		<path class="st1" d="M190,165.1l-2.1,0.1l-0.7,3.7h-1.6l0.3-5h10.9l0.2,5h-1.5l-0.7-3.7l-2-0.1v9.8l2.3,0.2v1.1h-7.3v-1.1l2.1-0.2
			V165.1z"/>
		<path class="st1" d="M217.5,163.9h3l3.7,11.1l0.9,0.2v1.1h-5.2v-1.1l1.2-0.2l-0.6-2h-4l-0.6,2l1.3,0.1v1.1h-4.4l0-1.1l1-0.2
			L217.5,163.9z M218.8,166.7l-0.2-1.2l-0.3,1.2l-1.3,4.9h3.3L218.8,166.7z"/>
		<path class="st1" d="M235.4,165.1l-2.1,0.1l-0.7,3.7h-1.6l0.3-5h10.9l0.2,5H241l-0.7-3.7l-2-0.1v9.8l2.3,0.2v1.1h-7.3v-1.1
			l2.1-0.2V165.1z"/>
		<path class="st1" d="M253.3,165.1l-2.1,0.1l-0.7,3.7H249l0.3-5h10.9l0.2,5h-1.5l-0.7-3.7l-2-0.1v9.8l2.3,0.2v1.1h-7.3v-1.1
			l2.1-0.2V165.1z"/>
		<path class="st1" d="M267.2,174.7c-1-1.1-1.5-2.7-1.5-4.6c0-1.3,0.3-2.4,0.8-3.3c0.5-1,1.3-1.7,2.2-2.2c1-0.5,2.1-0.8,3.4-0.8
			c2.1,0,3.7,0.5,4.7,1.6c1,1.1,1.5,2.6,1.5,4.5c0,1.3-0.3,2.4-0.8,3.4c-0.5,1-1.3,1.8-2.3,2.3c-1,0.5-2.1,0.8-3.4,0.8
			C269.8,176.4,268.2,175.8,267.2,174.7z M270,166.2c-0.5,0.9-0.7,2.2-0.7,3.9c0,1.8,0.2,3.1,0.7,3.9c0.5,0.9,1.2,1.3,2.1,1.3
			c0.9,0,1.6-0.5,2.1-1.4c0.5-0.9,0.7-2.3,0.7-4c0-1.8-0.2-3-0.7-3.8c-0.5-0.8-1.2-1.2-2.1-1.2C271.1,164.9,270.4,165.3,270,166.2z"
			/>
		<path class="st1" d="M285.3,175.1l1.3-0.2v-9.7l-1.2-0.2v-1.1h2.6c0.2,0,0.4,0,0.7,0c0.2,0,0.4,0,0.6,0c0.6,0,1.1-0.1,1.5-0.1
			c1.2,0,2.1,0.1,2.8,0.3c0.7,0.2,1.2,0.6,1.5,1.1c0.3,0.5,0.5,1.1,0.5,1.9c0,0.7-0.2,1.5-0.6,2.1c-0.4,0.7-1,1.1-1.8,1.3
			c0.5,0.2,0.9,0.5,1.3,1.1c0.3,0.5,0.7,1.2,1.1,2c0.2,0.5,0.4,0.8,0.5,1c0.1,0.2,0.3,0.4,0.4,0.4l0.5,0.1v1.1h-3.1
			c-0.2,0-0.3-0.2-0.5-0.5c-0.2-0.4-0.4-0.9-0.7-1.7c-0.3-0.9-0.6-1.6-0.9-2.1c-0.2-0.5-0.5-0.8-0.8-0.9h-1.5v4l1.5,0.2v1.1h-5.6
			V175.1z M292,169.2c0.3-0.4,0.5-1.1,0.5-2c0-0.8-0.2-1.4-0.5-1.8c-0.3-0.4-0.8-0.6-1.6-0.6c-0.4,0-0.7,0-1,0.1v4.9
			c0.1,0,0.4,0,0.7,0s0.5,0,0.6,0C291.2,169.9,291.7,169.7,292,169.2z"/>
		<path class="st1" d="M304.6,165.3l-1.3-0.2v-1.2h4.2l4.6,7.1l0.9,2v-7.7l-1.4-0.2v-1.2h4.2v1.2l-1.3,0.2v10.9h-2.4l-4.9-7.6
			l-1.1-2.2v8.5l1.8,0.2v1.1h-4.6v-1.1l1.3-0.2V165.3z"/>
		<path class="st1" d="M324.5,165.3l-1.3-0.2v-1.2h9.1l0.2,2.9h-1.3l-0.6-1.7l-3.3-0.2v4.3l2,0l0.3-1.4h1.1v4.2h-1.1l-0.3-1.4l-2,0
			v4.5l3.6-0.2l1-2.1l1.4,0.4l-0.4,3.1h-9.8v-1.1l1.3-0.2V165.3z"/>
		<path class="st1" d="M344.2,171.3l-3.4-6l-0.9-0.2v-1.2h5.2v1.2l-1.1,0.2l1.9,3.8l0.4,1.1l0.4-1.1l1.7-3.8l-1.3-0.2v-1.2h4.2v1.2
			l-1,0.2l-3.2,6v3.7l1.8,0.2v1.1h-6.5v-1.1l1.7-0.2V171.3z"/>
		<path class="st1" d="M360.3,176.1c-0.5-0.1-1.1-0.2-1.6-0.4c-0.4-0.1-0.6-0.2-0.8-0.2l0.1-3.1h1.5l0.4,2.1
			c0.1,0.1,0.3,0.3,0.7,0.4c0.3,0.1,0.7,0.2,1.2,0.2c0.7,0,1.2-0.2,1.5-0.4c0.3-0.3,0.5-0.7,0.5-1.2c0-0.4-0.1-0.7-0.3-1
			c-0.2-0.3-0.5-0.5-0.9-0.7c-0.4-0.2-0.9-0.5-1.6-0.8c-0.9-0.4-1.6-0.9-2.2-1.5c-0.6-0.6-0.9-1.4-0.9-2.4c0-0.6,0.2-1.2,0.5-1.7
			c0.3-0.5,0.8-0.9,1.5-1.2c0.7-0.3,1.5-0.5,2.4-0.5c0.6,0,1.1,0,1.5,0.1c0.4,0.1,0.9,0.2,1.4,0.3c0.3,0.1,0.5,0.1,0.6,0.2l-0.1,2.9
			h-1.5l-0.4-2c-0.1-0.1-0.3-0.2-0.5-0.3c-0.3-0.1-0.6-0.1-0.9-0.1c-0.6,0-1.1,0.1-1.4,0.4c-0.3,0.3-0.5,0.7-0.5,1.1
			c0,0.4,0.1,0.7,0.4,1c0.3,0.3,0.6,0.5,0.9,0.8s0.9,0.5,1.6,0.9c0.6,0.3,1.1,0.6,1.5,0.9c0.4,0.3,0.8,0.7,1.1,1.1
			c0.3,0.5,0.5,1,0.5,1.6c0,0.6-0.1,1.2-0.4,1.8c-0.3,0.6-0.8,1-1.5,1.4c-0.7,0.4-1.6,0.6-2.8,0.6
			C361.3,176.2,360.8,176.2,360.3,176.1z"/>
		<rect x="66.5" y="147.1" class="st1" width="62" height="0.9"/>
		<rect x="305.9" y="147.1" class="st1" width="62" height="0.9"/>
	</g>
	<g>
		<path class="st1" d="M10.8,126c4.6-4.9,11.9-11.5,22.2-16.7c6.1-3.1,11.8-5,16.5-6.2c0.6,8.9,1.4,17.1,1.8,25.8L9.4,145.8
			L10.8,126z"/>
		<path class="st1" d="M14.6,86c3.1-3.4,27.7-14.4,32.1-15.3c0.5,6.3,1.2,12.2,1.5,18.5l-35.3,14.6L14.6,86z"/>
		<path class="st1" d="M49.8,52.9h-3.8v-8.1c0-0.4-0.3-0.7-0.7-0.7H17.1c-0.4,0-0.7,0.3-0.7,0.7l-0.2,8.1h-4.3
			c-0.4,0-0.7,0.3-0.7,0.7v2.6c0,0.4,0.3,0.7,0.7,0.7h4.2l-0.3,14.5L45.9,61v-4h3.8c0.4,0,0.7-0.3,0.7-0.7v-2.6
			C50.5,53.2,50.2,52.9,49.8,52.9z"/>
		<path class="st1" d="M55.1,172.8c-0.4-5-0.9-10-1.3-15c-0.4-5-0.9-9.9-1.3-14.9c-6.5,1.7-16.2,4.9-26.5,11.7
			c-9.3,6.2-15.7,13-19.8,18.2H1.3v1v2.6h59v-3.6v-0.1H55.1z"/>
		<path class="st1" d="M45.9,26.2h-1.3c-0.3-1-0.7-2.1-1.2-3.3c-1-2.3-2.2-4.1-3.2-5.6c-2.1-2.1-4.3-4.2-6.4-6.3
			c-0.2-0.3-0.4-0.6-0.4-0.9l-0.4-2.2V1.3c0-0.7-0.5-1.2-1.2-1.2c-0.7,0-1.2,0.5-1.2,1.2v6.1l-0.6,2.8c0,0.4-0.2,0.8-0.5,1.1
			c-2.2,2.1-4.4,4.1-6.6,6.2c-1.2,1.5-2.4,3.4-3.5,5.6c-0.5,1.1-0.9,2.1-1.3,3h-1.5c-0.4,0-0.7,0.3-0.7,0.7v0.6
			c0,0.4,0.3,0.7,0.7,0.7h1c-0.1,0.9-0.2,1.7-0.2,2.6V38c0,0.1,0,0.2,0,0.3v2.1c0,1,0.8,1.7,1.7,1.7h1.6h21.5h1.2
			c1,0,1.7-0.8,1.7-1.7v-1.9c0.1-0.3,0.1-0.6,0.1-0.9v-7.4c0-0.6-0.1-1.3-0.2-1.9h0.9c0.4,0,0.7-0.3,0.7-0.7v-0.6
			C46.4,26.7,46.1,26.4,45.9,26.2z M39.2,38.2c0,0.4-0.3,0.7-0.7,0.7H23.7c-0.4,0-0.7-0.3-0.7-0.7v-6.1c0-0.2,0.1-0.4,0.3-0.5
			c0-0.1,0-0.1,0-0.2h15.9c0.1,0.1,0.1,0.3,0.1,0.4V32c0,0,0,0,0,0.1V38.2z"/>
	</g>
</g>
</svg>
